<ttFont>
    <TTGlyph name="A" xMin="19" yMin="0" xMax="591" yMax="682">
      <contour>
        <pt x="253" y="682" on="1"/>
        <pt x="357" y="682" on="1"/>
        <pt x="591" y="0" on="1"/>
        <pt x="504" y="0" on="1"/>
        <pt x="444" y="182" on="1"/>
        <pt x="167" y="182" on="1"/>
        <pt x="106" y="0" on="1"/>
        <pt x="19" y="0" on="1"/>
      </contour>
      <contour>
        <pt x="417" y="262" on="1"/>
        <pt x="307" y="602" on="1"/>
        <pt x="304" y="602" on="1"/>
        <pt x="193" y="262" on="1"/>
      </contour>
    </TTGlyph>
    <TTGlyph name="AE" xMin="13" yMin="0" xMax="818" yMax="682">
      <contour>
        <pt x="197" y="192" on="1"/>
        <pt x="109" y="0" on="1"/>
        <pt x="13" y="0" on="1"/>
        <pt x="342" y="682" on="1"/>
        <pt x="808" y="682" on="1"/>
        <pt x="808" y="605" on="1"/>
        <pt x="474" y="605" on="1"/>
        <pt x="474" y="387" on="1"/>
        <pt x="784" y="387" on="1"/>
        <pt x="784" y="312" on="1"/>
        <pt x="474" y="312" on="1"/>
        <pt x="474" y="77" on="1"/>
        <pt x="818" y="77" on="1"/>
        <pt x="818" y="0" on="1"/>
        <pt x="390" y="0" on="1"/>
        <pt x="390" y="192" on="1"/>
      </contour>
      <contour>
        <pt x="234" y="272" on="1"/>
        <pt x="390" y="272" on="1"/>
        <pt x="390" y="602" on="1"/>
        <pt x="386" y="602" on="1"/>
      </contour>
    </TTGlyph>
    <TTGlyph name="Aacute" xMin="19" yMin="0" xMax="591" yMax="938">
      <component glyphName="A" x="0" y="0" flags="0x204"/>
      <component glyphName="acute" x="105" y="167" flags="0x4"/>
    </TTGlyph>
    <TTGlyph name="Acircumflex" xMin="19" yMin="0" xMax="591" yMax="940">
      <component glyphName="A" x="0" y="0" flags="0x204"/>
      <component glyphName="circumflex" x="50" y="170" flags="0x4"/>
    </TTGlyph>
    <TTGlyph name="Adieresis" xMin="19" yMin="0" xMax="591" yMax="878">
      <component glyphName="A" x="0" y="0" flags="0x204"/>
      <component glyphName="dieresis" x="64" y="177" flags="0x4"/>
    </TTGlyph>
    <TTGlyph name="Agrave" xMin="19" yMin="0" xMax="591" yMax="939">
      <component glyphName="A" x="0" y="0" flags="0x204"/>
      <component glyphName="grave" x="48" y="168" flags="0x4"/>
    </TTGlyph>
    <TTGlyph name="Aring" xMin="19" yMin="0" xMax="591" yMax="936">
      <component glyphName="A" x="0" y="0" flags="0x204"/>
      <component glyphName="ring" x="98" y="152" flags="0x4"/>
    </TTGlyph>
    <TTGlyph name="Atilde" xMin="19" yMin="0" xMax="591" yMax="870">
      <component glyphName="A" x="0" y="0" flags="0x204"/>
      <component glyphName="tilde" x="23" y="165" flags="0x4"/>
    </TTGlyph>
    <TTGlyph name="B" xMin="88" yMin="0" xMax="525" yMax="682">
      <contour>
        <pt x="88" y="682" on="1"/>
        <pt x="270" y="682" on="1"/>
        <pt x="378" y="682" on="0"/>
        <pt x="475" y="602" on="0"/>
        <pt x="475" y="520" on="1"/>
        <pt x="475" y="482" on="0"/>
        <pt x="454" y="426" on="0"/>
        <pt x="441" y="407" on="1"/>
        <pt x="426" y="385" on="0"/>
        <pt x="408" y="369" on="1"/>
        <pt x="432" y="360" on="0"/>
        <pt x="474" y="332" on="0"/>
        <pt x="506" y="292" on="0"/>
        <pt x="525" y="237" on="0"/>
        <pt x="525" y="200" on="1"/>
        <pt x="525" y="159" on="0"/>
        <pt x="503" y="86" on="0"/>
        <pt x="451" y="32" on="0"/>
        <pt x="365" y="0" on="0"/>
        <pt x="301" y="0" on="1"/>
        <pt x="88" y="0" on="1"/>
      </contour>
      <contour>
        <pt x="172" y="386" on="1"/>
        <pt x="339" y="386" on="1"/>
        <pt x="353" y="397" on="0"/>
        <pt x="364" y="415" on="1"/>
        <pt x="374" y="430" on="0"/>
        <pt x="390" y="475" on="0"/>
        <pt x="390" y="507" on="1"/>
        <pt x="390" y="566" on="0"/>
        <pt x="329" y="607" on="0"/>
        <pt x="274" y="607" on="1"/>
        <pt x="172" y="607" on="1"/>
      </contour>
      <contour>
        <pt x="172" y="75" on="1"/>
        <pt x="308" y="75" on="1"/>
        <pt x="374" y="75" on="0"/>
        <pt x="440" y="143" on="0"/>
        <pt x="440" y="200" on="1"/>
        <pt x="440" y="225" on="0"/>
        <pt x="427" y="267" on="0"/>
        <pt x="395" y="298" on="0"/>
        <pt x="341" y="316" on="0"/>
        <pt x="301" y="316" on="1"/>
        <pt x="172" y="316" on="1"/>
      </contour>
    </TTGlyph>
    <TTGlyph name="C" xMin="51" yMin="-13" xMax="574" yMax="691">
      <contour>
        <pt x="552" y="586" on="1"/>
        <pt x="527" y="594" on="0"/>
        <pt x="471" y="607" on="0"/>
        <pt x="404" y="616" on="0"/>
        <pt x="367" y="616" on="1"/>
        <pt x="307" y="616" on="0"/>
        <pt x="223" y="564" on="0"/>
        <pt x="170" y="483" on="0"/>
        <pt x="146" y="383" on="0"/>
        <pt x="146" y="334" on="1"/>
        <pt x="146" y="272" on="0"/>
        <pt x="181" y="171" on="0"/>
        <pt x="242" y="100" on="0"/>
        <pt x="323" y="62" on="0"/>
        <pt x="368" y="62" on="1"/>
        <pt x="410" y="62" on="0"/>
        <pt x="480" y="71" on="0"/>
        <pt x="505" y="76" on="1"/>
        <pt x="534" y="82" on="0"/>
        <pt x="557" y="90" on="1"/>
        <pt x="574" y="19" on="1"/>
        <pt x="547" y="10" on="0"/>
        <pt x="514" y="3" on="1"/>
        <pt x="486" y="-3" on="0"/>
        <pt x="412" y="-13" on="0"/>
        <pt x="368" y="-13" on="1"/>
        <pt x="289" y="-13" on="0"/>
        <pt x="170" y="39" on="0"/>
        <pt x="91" y="132" on="0"/>
        <pt x="51" y="259" on="0"/>
        <pt x="51" y="335" on="1"/>
        <pt x="51" y="422" on="0"/>
        <pt x="99" y="555" on="0"/>
        <pt x="183" y="645" on="0"/>
        <pt x="299" y="691" on="0"/>
        <pt x="368" y="691" on="1"/>
        <pt x="410" y="691" on="0"/>
        <pt x="483" y="682" on="0"/>
        <pt x="544" y="668" on="0"/>
        <pt x="570" y="660" on="1"/>
      </contour>
    </TTGlyph>
    <TTGlyph name="Ccedilla" xMin="51" yMin="-244" xMax="574" yMax="691">
      <component glyphName="C" x="0" y="0" flags="0x204"/>
      <component glyphName="cedilla" x="175" y="0" flags="0x4"/>
    </TTGlyph>
    <TTGlyph name="D" xMin="88" yMin="0" xMax="664" yMax="682">
      <contour>
        <pt x="172" y="77" on="1"/>
        <pt x="307" y="77" on="1"/>
        <pt x="362" y="77" on="0"/>
        <pt x="459" y="105" on="0"/>
        <pt x="532" y="168" on="0"/>
        <pt x="574" y="270" on="0"/>
        <pt x="574" y="343" on="1"/>
        <pt x="574" y="411" on="0"/>
        <pt x="536" y="510" on="0"/>
        <pt x="467" y="574" on="0"/>
        <pt x="368" y="605" on="0"/>
        <pt x="307" y="605" on="1"/>
        <pt x="172" y="605" on="1"/>
      </contour>
      <contour>
        <pt x="88" y="682" on="1"/>
        <pt x="307" y="682" on="1"/>
        <pt x="388" y="682" on="0"/>
        <pt x="519" y="642" on="0"/>
        <pt x="613" y="558" on="0"/>
        <pt x="664" y="430" on="0"/>
        <pt x="664" y="343" on="1"/>
        <pt x="664" y="255" on="0"/>
        <pt x="608" y="126" on="0"/>
        <pt x="512" y="41" on="0"/>
        <pt x="382" y="0" on="0"/>
        <pt x="307" y="0" on="1"/>
        <pt x="88" y="0" on="1"/>
      </contour>
    </TTGlyph>
    <TTGlyph name="E" xMin="88" yMin="0" xMax="516" yMax="682">
      <contour>
        <pt x="88" y="682" on="1"/>
        <pt x="506" y="682" on="1"/>
        <pt x="506" y="605" on="1"/>
        <pt x="172" y="605" on="1"/>
        <pt x="172" y="387" on="1"/>
        <pt x="482" y="387" on="1"/>
        <pt x="482" y="312" on="1"/>
        <pt x="172" y="312" on="1"/>
        <pt x="172" y="77" on="1"/>
        <pt x="516" y="77" on="1"/>
        <pt x="516" y="0" on="1"/>
        <pt x="88" y="0" on="1"/>
      </contour>
    </TTGlyph>
    <TTGlyph name="Eacute" xMin="88" yMin="0" xMax="516" yMax="939">
      <component glyphName="E" x="0" y="0" flags="0x204"/>
      <component glyphName="acute" x="125" y="168" flags="0x4"/>
    </TTGlyph>
    <TTGlyph name="Ecircumflex" xMin="88" yMin="0" xMax="516" yMax="939">
      <component glyphName="E" x="0" y="0" flags="0x204"/>
      <component glyphName="circumflex" x="51" y="169" flags="0x4"/>
    </TTGlyph>
    <TTGlyph name="Edieresis" xMin="88" yMin="0" xMax="516" yMax="866">
      <component glyphName="E" x="0" y="0" flags="0x204"/>
      <component glyphName="dieresis" x="67" y="165" flags="0x4"/>
    </TTGlyph>
    <TTGlyph name="Egrave" xMin="88" yMin="0" xMax="516" yMax="938">
      <component glyphName="E" x="0" y="0" flags="0x204"/>
      <component glyphName="grave" x="72" y="167" flags="0x4"/>
    </TTGlyph>
    <TTGlyph name="Eth" xMin="3" yMin="0" xMax="702" yMax="682">
      <contour>
        <pt x="126" y="312" on="1"/>
        <pt x="3" y="312" on="1"/>
        <pt x="3" y="392" on="1"/>
        <pt x="126" y="392" on="1"/>
        <pt x="126" y="682" on="1"/>
        <pt x="345" y="682" on="1"/>
        <pt x="426" y="682" on="0"/>
        <pt x="557" y="642" on="0"/>
        <pt x="651" y="558" on="0"/>
        <pt x="702" y="430" on="0"/>
        <pt x="702" y="343" on="1"/>
        <pt x="702" y="255" on="0"/>
        <pt x="646" y="126" on="0"/>
        <pt x="550" y="41" on="0"/>
        <pt x="420" y="0" on="0"/>
        <pt x="345" y="0" on="1"/>
        <pt x="126" y="0" on="1"/>
      </contour>
      <contour>
        <pt x="210" y="392" on="1"/>
        <pt x="368" y="392" on="1"/>
        <pt x="368" y="312" on="1"/>
        <pt x="210" y="312" on="1"/>
        <pt x="210" y="77" on="1"/>
        <pt x="345" y="77" on="1"/>
        <pt x="400" y="77" on="0"/>
        <pt x="497" y="105" on="0"/>
        <pt x="570" y="168" on="0"/>
        <pt x="612" y="270" on="0"/>
        <pt x="612" y="343" on="1"/>
        <pt x="612" y="411" on="0"/>
        <pt x="574" y="510" on="0"/>
        <pt x="505" y="574" on="0"/>
        <pt x="406" y="605" on="0"/>
        <pt x="345" y="605" on="1"/>
        <pt x="210" y="605" on="1"/>
      </contour>
    </TTGlyph>
    <TTGlyph name="Euro" xMin="46" yMin="-16" xMax="543" yMax="691">
      <contour>
        <pt x="46" y="315" on="1"/>
        <pt x="134" y="315" on="1"/>
        <pt x="134" y="389" on="1"/>
        <pt x="46" y="389" on="1"/>
        <pt x="46" y="454" on="1"/>
        <pt x="141" y="454" on="1"/>
        <pt x="162" y="580" on="0"/>
        <pt x="286" y="691" on="0"/>
        <pt x="376" y="691" on="1"/>
        <pt x="429" y="691" on="0"/>
        <pt x="534" y="676" on="1"/>
        <pt x="521" y="606" on="1"/>
        <pt x="430" y="620" on="0"/>
        <pt x="372" y="621" on="1"/>
        <pt x="298" y="621" on="0"/>
        <pt x="231" y="508" on="0"/>
        <pt x="226" y="454" on="1"/>
        <pt x="444" y="454" on="1"/>
        <pt x="444" y="389" on="1"/>
        <pt x="223" y="389" on="1"/>
        <pt x="223" y="315" on="1"/>
        <pt x="444" y="315" on="1"/>
        <pt x="444" y="250" on="1"/>
        <pt x="227" y="250" on="1"/>
        <pt x="235" y="171" on="0"/>
        <pt x="281" y="57" on="0"/>
        <pt x="378" y="58" on="1"/>
        <pt x="424" y="58" on="0"/>
        <pt x="531" y="78" on="1"/>
        <pt x="543" y="9" on="1"/>
        <pt x="427" y="-12" on="0"/>
        <pt x="360" y="-12" on="1"/>
        <pt x="263" y="-16" on="0"/>
        <pt x="158" y="122" on="0"/>
        <pt x="141" y="250" on="1"/>
        <pt x="46" y="250" on="1"/>
      </contour>
    </TTGlyph>
    <TTGlyph name="F" xMin="88" yMin="0" xMax="506" yMax="682">
      <contour>
        <pt x="88" y="682" on="1"/>
        <pt x="506" y="682" on="1"/>
        <pt x="506" y="605" on="1"/>
        <pt x="172" y="605" on="1"/>
        <pt x="172" y="387" on="1"/>
        <pt x="482" y="387" on="1"/>
        <pt x="482" y="312" on="1"/>
        <pt x="172" y="312" on="1"/>
        <pt x="172" y="0" on="1"/>
        <pt x="88" y="0" on="1"/>
      </contour>
    </TTGlyph>
    <TTGlyph name="G" xMin="51" yMin="-14" xMax="631" yMax="691">
      <contour>
        <pt x="607" y="586" on="1"/>
        <pt x="563" y="595" on="0"/>
        <pt x="464" y="611" on="0"/>
        <pt x="399" y="613" on="1"/>
        <pt x="333" y="612" on="0"/>
        <pt x="237" y="574" on="0"/>
        <pt x="176" y="503" on="0"/>
        <pt x="146" y="405" on="0"/>
        <pt x="146" y="346" on="1"/>
        <pt x="146" y="270" on="0"/>
        <pt x="185" y="162" on="0"/>
        <pt x="254" y="93" on="0"/>
        <pt x="346" y="61" on="0"/>
        <pt x="399" y="61" on="1"/>
        <pt x="433" y="61" on="0"/>
        <pt x="488" y="69" on="0"/>
        <pt x="529" y="80" on="0"/>
        <pt x="546" y="87" on="1"/>
        <pt x="546" y="270" on="1"/>
        <pt x="421" y="270" on="1"/>
        <pt x="421" y="345" on="1"/>
        <pt x="631" y="345" on="1"/>
        <pt x="631" y="46" on="1"/>
        <pt x="596" y="23" on="0"/>
        <pt x="473" y="-14" on="0"/>
        <pt x="399" y="-13" on="1"/>
        <pt x="331" y="-13" on="0"/>
        <pt x="206" y="19" on="0"/>
        <pt x="109" y="100" on="0"/>
        <pt x="51" y="240" on="0"/>
        <pt x="51" y="347" on="1"/>
        <pt x="51" y="434" on="0"/>
        <pt x="105" y="563" on="0"/>
        <pt x="198" y="648" on="0"/>
        <pt x="321" y="691" on="0"/>
        <pt x="390" y="691" on="1"/>
        <pt x="435" y="691" on="0"/>
        <pt x="519" y="682" on="0"/>
        <pt x="589" y="671" on="0"/>
        <pt x="621" y="663" on="1"/>
      </contour>
    </TTGlyph>
    <TTGlyph name="H" xMin="88" yMin="0" xMax="601" yMax="682">
      <contour>
        <pt x="88" y="682" on="1"/>
        <pt x="172" y="682" on="1"/>
        <pt x="172" y="387" on="1"/>
        <pt x="517" y="387" on="1"/>
        <pt x="517" y="682" on="1"/>
        <pt x="601" y="682" on="1"/>
        <pt x="601" y="0" on="1"/>
        <pt x="517" y="0" on="1"/>
        <pt x="517" y="312" on="1"/>
        <pt x="172" y="312" on="1"/>
        <pt x="172" y="0" on="1"/>
        <pt x="88" y="0" on="1"/>
      </contour>
    </TTGlyph>
    <TTGlyph name="I" xMin="88" yMin="0" xMax="172" yMax="682">
      <contour>
        <pt x="88" y="682" on="1"/>
        <pt x="172" y="682" on="1"/>
        <pt x="172" y="0" on="1"/>
        <pt x="88" y="0" on="1"/>
      </contour>
    </TTGlyph>
    <TTGlyph name="Iacute" xMin="53" yMin="0" xMax="277" yMax="938">
      <component glyphName="I" x="0" y="0" flags="0x204"/>
      <component glyphName="acute" x="-47" y="167" flags="0x4"/>
    </TTGlyph>
    <TTGlyph name="Icircumflex" xMin="-25" yMin="0" xMax="285" yMax="939">
      <component glyphName="I" x="0" y="0" flags="0x204"/>
      <component glyphName="circumflex" x="-125" y="169" flags="0x4"/>
    </TTGlyph>
    <TTGlyph name="Idieresis" xMin="-11" yMin="0" xMax="271" yMax="866">
      <component glyphName="I" x="0" y="0" flags="0x204"/>
      <component glyphName="dieresis" x="-111" y="165" flags="0x4"/>
    </TTGlyph>
    <TTGlyph name="Igrave" xMin="-13" yMin="0" xMax="211" yMax="938">
      <contour>
        <pt x="88" y="682" on="1"/>
        <pt x="172" y="682" on="1"/>
        <pt x="172" y="0" on="1"/>
        <pt x="88" y="0" on="1"/>
      </contour>
      <contour>
        <pt x="-13" y="877" on="1"/>
        <pt x="39" y="938" on="1"/>
        <pt x="211" y="813" on="1"/>
        <pt x="177" y="768" on="1"/>
      </contour>
      <contour>
        <pt x="88" y="682" on="1"/>
        <pt x="172" y="682" on="1"/>
        <pt x="172" y="0" on="1"/>
        <pt x="88" y="0" on="1"/>
      </contour>
      <contour>
        <pt x="-13" y="877" on="1"/>
        <pt x="39" y="938" on="1"/>
        <pt x="211" y="813" on="1"/>
        <pt x="177" y="768" on="1"/>
      </contour>
    </TTGlyph>
    <TTGlyph name="J" xMin="21" yMin="-13" xMax="241" yMax="682">
      <contour>
        <pt x="241" y="682" on="1"/>
        <pt x="241" y="213" on="1"/>
        <pt x="241" y="154" on="0"/>
        <pt x="220" y="71" on="0"/>
        <pt x="188" y="46" on="1"/>
        <pt x="165" y="28" on="0"/>
        <pt x="92" y="-5" on="0"/>
        <pt x="32" y="-13" on="1"/>
        <pt x="21" y="58" on="1"/>
        <pt x="68" y="66" on="0"/>
        <pt x="123" y="91" on="0"/>
        <pt x="150" y="127" on="0"/>
        <pt x="157" y="179" on="0"/>
        <pt x="157" y="214" on="1"/>
        <pt x="157" y="682" on="1"/>
      </contour>
    </TTGlyph>
    <TTGlyph name="K" xMin="88" yMin="0" xMax="603" yMax="682">
      <contour>
        <pt x="88" y="682" on="1"/>
        <pt x="172" y="682" on="1"/>
        <pt x="172" y="367" on="1"/>
        <pt x="458" y="682" on="1"/>
        <pt x="563" y="682" on="1"/>
        <pt x="301" y="396" on="1"/>
        <pt x="603" y="0" on="1"/>
        <pt x="498" y="0" on="1"/>
        <pt x="243" y="334" on="1"/>
        <pt x="172" y="256" on="1"/>
        <pt x="172" y="0" on="1"/>
        <pt x="88" y="0" on="1"/>
      </contour>
    </TTGlyph>
    <TTGlyph name="L" xMin="88" yMin="0" xMax="482" yMax="682">
      <contour>
        <pt x="88" y="682" on="1"/>
        <pt x="172" y="682" on="1"/>
        <pt x="172" y="80" on="1"/>
        <pt x="482" y="80" on="1"/>
        <pt x="482" y="0" on="1"/>
        <pt x="88" y="0" on="1"/>
      </contour>
    </TTGlyph>
    <TTGlyph name="Lslash" xMin="-5" yMin="0" xMax="535" yMax="682">
      <contour>
        <pt x="224" y="682" on="1"/>
        <pt x="224" y="441" on="1"/>
        <pt x="341" y="497" on="1"/>
        <pt x="372" y="428" on="1"/>
        <pt x="224" y="358" on="1"/>
        <pt x="224" y="80" on="1"/>
        <pt x="535" y="80" on="1"/>
        <pt x="535" y="0" on="1"/>
        <pt x="141" y="0" on="1"/>
        <pt x="141" y="321" on="1"/>
        <pt x="26" y="267" on="1"/>
        <pt x="-5" y="336" on="1"/>
        <pt x="141" y="404" on="1"/>
        <pt x="141" y="682" on="1"/>
      </contour>
    </TTGlyph>
    <TTGlyph name="M" xMin="71" yMin="0" xMax="786" yMax="682">
      <contour>
        <pt x="107" y="682" on="1"/>
        <pt x="214" y="682" on="1"/>
        <pt x="368" y="276" on="1"/>
        <pt x="381" y="241" on="0"/>
        <pt x="403" y="182" on="0"/>
        <pt x="411" y="159" on="1"/>
        <pt x="421" y="133" on="0"/>
        <pt x="428" y="111" on="1"/>
        <pt x="430" y="111" on="1"/>
        <pt x="436" y="133" on="0"/>
        <pt x="445" y="159" on="1"/>
        <pt x="453" y="182" on="0"/>
        <pt x="473" y="241" on="0"/>
        <pt x="487" y="276" on="1"/>
        <pt x="644" y="682" on="1"/>
        <pt x="751" y="682" on="1"/>
        <pt x="786" y="0" on="1"/>
        <pt x="701" y="0" on="1"/>
        <pt x="684" y="375" on="1"/>
        <pt x="682" y="424" on="0"/>
        <pt x="680" y="492" on="0"/>
        <pt x="680" y="514" on="1"/>
        <pt x="680" y="556" on="1"/>
        <pt x="678" y="556" on="1"/>
        <pt x="672" y="541" on="0"/>
        <pt x="663" y="515" on="1"/>
        <pt x="655" y="493" on="0"/>
        <pt x="630" y="424" on="0"/>
        <pt x="612" y="375" on="1"/>
        <pt x="471" y="0" on="1"/>
        <pt x="386" y="0" on="1"/>
        <pt x="244" y="375" on="1"/>
        <pt x="225" y="423" on="0"/>
        <pt x="201" y="492" on="0"/>
        <pt x="193" y="514" on="1"/>
        <pt x="184" y="540" on="0"/>
        <pt x="179" y="556" on="1"/>
        <pt x="177" y="556" on="1"/>
        <pt x="178" y="540" on="0"/>
        <pt x="179" y="514" on="1"/>
        <pt x="180" y="472" on="0"/>
        <pt x="176" y="375" on="1"/>
        <pt x="156" y="0" on="1"/>
        <pt x="71" y="0" on="1"/>
      </contour>
    </TTGlyph>
    <TTGlyph name="N" xMin="88" yMin="0" xMax="602" yMax="682">
      <contour>
        <pt x="88" y="682" on="1"/>
        <pt x="168" y="682" on="1"/>
        <pt x="526" y="141" on="1"/>
        <pt x="528" y="141" on="1"/>
        <pt x="526" y="170" on="0"/>
        <pt x="525" y="203" on="1"/>
        <pt x="523" y="231" on="0"/>
        <pt x="522" y="304" on="0"/>
        <pt x="522" y="342" on="1"/>
        <pt x="522" y="682" on="1"/>
        <pt x="602" y="682" on="1"/>
        <pt x="602" y="0" on="1"/>
        <pt x="522" y="0" on="1"/>
        <pt x="164" y="543" on="1"/>
        <pt x="162" y="543" on="1"/>
        <pt x="163" y="513" on="0"/>
        <pt x="165" y="480" on="1"/>
        <pt x="166" y="451" on="0"/>
        <pt x="168" y="379" on="0"/>
        <pt x="168" y="341" on="1"/>
        <pt x="168" y="0" on="1"/>
        <pt x="88" y="0" on="1"/>
      </contour>
    </TTGlyph>
    <TTGlyph name="Ntilde" xMin="88" yMin="0" xMax="602" yMax="859">
      <component glyphName="N" x="0" y="0" flags="0x204"/>
      <component glyphName="tilde" x="68" y="154" flags="0x4"/>
    </TTGlyph>
    <TTGlyph name="O" xMin="51" yMin="-13" xMax="709" yMax="691">
      <contour>
        <pt x="51" y="341" on="1"/>
        <pt x="51" y="438" on="0"/>
        <pt x="112" y="572" on="0"/>
        <pt x="207" y="654" on="0"/>
        <pt x="324" y="691" on="0"/>
        <pt x="380" y="691" on="1"/>
        <pt x="436" y="691" on="0"/>
        <pt x="553" y="660" on="0"/>
        <pt x="648" y="581" on="0"/>
        <pt x="709" y="445" on="0"/>
        <pt x="709" y="340" on="1"/>
        <pt x="709" y="242" on="0"/>
        <pt x="648" y="108" on="0"/>
        <pt x="553" y="24" on="0"/>
        <pt x="436" y="-13" on="0"/>
        <pt x="380" y="-13" on="1"/>
        <pt x="324" y="-13" on="0"/>
        <pt x="207" y="23" on="0"/>
        <pt x="112" y="105" on="0"/>
        <pt x="51" y="241" on="0"/>
      </contour>
      <contour>
        <pt x="614" y="336" on="1"/>
        <pt x="614" y="471" on="0"/>
        <pt x="489" y="611" on="0"/>
        <pt x="384" y="611" on="1"/>
        <pt x="331" y="611" on="0"/>
        <pt x="244" y="578" on="0"/>
        <pt x="181" y="512" on="0"/>
        <pt x="146" y="413" on="0"/>
        <pt x="146" y="346" on="1"/>
        <pt x="146" y="211" on="0"/>
        <pt x="271" y="67" on="0"/>
        <pt x="376" y="67" on="1"/>
        <pt x="428" y="67" on="0"/>
        <pt x="516" y="100" on="0"/>
        <pt x="579" y="168" on="0"/>
        <pt x="614" y="268" on="0"/>
      </contour>
    </TTGlyph>
    <TTGlyph name="OE" xMin="51" yMin="0" xMax="862" yMax="682">
      <contour>
        <pt x="434" y="605" on="1"/>
        <pt x="408" y="605" on="1"/>
        <pt x="347" y="605" on="0"/>
        <pt x="248" y="574" on="0"/>
        <pt x="179" y="510" on="0"/>
        <pt x="141" y="411" on="0"/>
        <pt x="141" y="343" on="1"/>
        <pt x="141" y="270" on="0"/>
        <pt x="183" y="168" on="0"/>
        <pt x="256" y="105" on="0"/>
        <pt x="353" y="77" on="0"/>
        <pt x="408" y="77" on="1"/>
        <pt x="434" y="77" on="1"/>
      </contour>
      <contour>
        <pt x="408" y="0" on="1"/>
        <pt x="333" y="0" on="0"/>
        <pt x="203" y="41" on="0"/>
        <pt x="107" y="126" on="0"/>
        <pt x="51" y="255" on="0"/>
        <pt x="51" y="343" on="1"/>
        <pt x="51" y="430" on="0"/>
        <pt x="102" y="558" on="0"/>
        <pt x="196" y="642" on="0"/>
        <pt x="327" y="682" on="0"/>
        <pt x="408" y="682" on="1"/>
        <pt x="852" y="682" on="1"/>
        <pt x="852" y="605" on="1"/>
        <pt x="518" y="605" on="1"/>
        <pt x="518" y="387" on="1"/>
        <pt x="828" y="387" on="1"/>
        <pt x="828" y="312" on="1"/>
        <pt x="518" y="312" on="1"/>
        <pt x="518" y="77" on="1"/>
        <pt x="862" y="77" on="1"/>
        <pt x="862" y="0" on="1"/>
      </contour>
    </TTGlyph>
    <TTGlyph name="Oacute" xMin="51" yMin="-13" xMax="709" yMax="938">
      <component glyphName="O" x="0" y="0" flags="0x204"/>
      <component glyphName="acute" x="171" y="167" flags="0x4"/>
    </TTGlyph>
    <TTGlyph name="Ocircumflex" xMin="51" yMin="-13" xMax="709" yMax="940">
      <component glyphName="O" x="0" y="0" flags="0x204"/>
      <component glyphName="circumflex" x="139" y="170" flags="0x4"/>
    </TTGlyph>
    <TTGlyph name="Odieresis" xMin="51" yMin="-13" xMax="709" yMax="878">
      <component glyphName="O" x="0" y="0" flags="0x204"/>
      <component glyphName="dieresis" x="147" y="177" flags="0x4"/>
    </TTGlyph>
    <TTGlyph name="Ograve" xMin="51" yMin="-13" xMax="709" yMax="938">
      <component glyphName="O" x="0" y="0" flags="0x204"/>
      <component glyphName="grave" x="166" y="167" flags="0x4"/>
    </TTGlyph>
    <TTGlyph name="Oslash" xMin="51" yMin="-51" xMax="709" yMax="712">
      <contour>
        <pt x="132" y="90" on="1"/>
        <pt x="95" y="132" on="0"/>
        <pt x="51" y="255" on="0"/>
        <pt x="51" y="341" on="1"/>
        <pt x="51" y="438" on="0"/>
        <pt x="112" y="572" on="0"/>
        <pt x="207" y="654" on="0"/>
        <pt x="324" y="691" on="0"/>
        <pt x="380" y="691" on="1"/>
        <pt x="432" y="691" on="0"/>
        <pt x="540" y="665" on="0"/>
        <pt x="586" y="631" on="1"/>
        <pt x="654" y="712" on="1"/>
        <pt x="708" y="667" on="1"/>
        <pt x="637" y="583" on="1"/>
        <pt x="670" y="542" on="0"/>
        <pt x="709" y="424" on="0"/>
        <pt x="709" y="340" on="1"/>
        <pt x="709" y="242" on="0"/>
        <pt x="648" y="108" on="0"/>
        <pt x="553" y="24" on="0"/>
        <pt x="436" y="-13" on="0"/>
        <pt x="380" y="-13" on="1"/>
        <pt x="331" y="-13" on="0"/>
        <pt x="230" y="13" on="0"/>
        <pt x="185" y="44" on="1"/>
        <pt x="106" y="-51" on="1"/>
        <pt x="52" y="-6" on="1"/>
      </contour>
      <contour>
        <pt x="146" y="346" on="1"/>
        <pt x="146" y="232" on="0"/>
        <pt x="192" y="161" on="1"/>
        <pt x="529" y="563" on="1"/>
        <pt x="470" y="611" on="0"/>
        <pt x="384" y="611" on="1"/>
        <pt x="331" y="611" on="0"/>
        <pt x="244" y="578" on="0"/>
        <pt x="181" y="512" on="0"/>
        <pt x="146" y="413" on="0"/>
      </contour>
      <contour>
        <pt x="614" y="336" on="1"/>
        <pt x="614" y="389" on="0"/>
        <pt x="594" y="475" on="0"/>
        <pt x="575" y="508" on="1"/>
        <pt x="240" y="109" on="1"/>
        <pt x="294" y="67" on="0"/>
        <pt x="376" y="67" on="1"/>
        <pt x="428" y="67" on="0"/>
        <pt x="516" y="100" on="0"/>
        <pt x="579" y="168" on="0"/>
        <pt x="614" y="268" on="0"/>
      </contour>
    </TTGlyph>
    <TTGlyph name="Otilde" xMin="51" yMin="-13" xMax="709" yMax="870">
      <component glyphName="O" x="0" y="0" flags="0x204"/>
      <component glyphName="tilde" x="103" y="165" flags="0x4"/>
    </TTGlyph>
    <TTGlyph name="P" xMin="88" yMin="0" xMax="500" yMax="682">
      <contour>
        <pt x="88" y="682" on="1"/>
        <pt x="245" y="682" on="1"/>
        <pt x="375" y="682" on="0"/>
        <pt x="500" y="590" on="0"/>
        <pt x="500" y="481" on="1"/>
        <pt x="500" y="421" on="0"/>
        <pt x="454" y="341" on="0"/>
        <pt x="385" y="292" on="0"/>
        <pt x="305" y="271" on="0"/>
        <pt x="271" y="271" on="1"/>
        <pt x="172" y="271" on="1"/>
        <pt x="172" y="0" on="1"/>
        <pt x="88" y="0" on="1"/>
      </contour>
      <contour>
        <pt x="172" y="346" on="1"/>
        <pt x="264" y="346" on="1"/>
        <pt x="298" y="346" on="0"/>
        <pt x="353" y="359" on="0"/>
        <pt x="393" y="390" on="0"/>
        <pt x="415" y="443" on="0"/>
        <pt x="415" y="483" on="1"/>
        <pt x="415" y="523" on="0"/>
        <pt x="392" y="572" on="0"/>
        <pt x="347" y="598" on="0"/>
        <pt x="279" y="607" on="0"/>
        <pt x="234" y="607" on="1"/>
        <pt x="172" y="607" on="1"/>
      </contour>
    </TTGlyph>
    <TTGlyph name="Q" xMin="51" yMin="-149" xMax="811" yMax="691">
      <contour>
        <pt x="614" y="336" on="1"/>
        <pt x="614" y="471" on="0"/>
        <pt x="489" y="611" on="0"/>
        <pt x="384" y="611" on="1"/>
        <pt x="331" y="611" on="0"/>
        <pt x="244" y="578" on="0"/>
        <pt x="181" y="512" on="0"/>
        <pt x="146" y="413" on="0"/>
        <pt x="146" y="346" on="1"/>
        <pt x="146" y="211" on="0"/>
        <pt x="271" y="67" on="0"/>
        <pt x="376" y="67" on="1"/>
        <pt x="428" y="67" on="0"/>
        <pt x="516" y="100" on="0"/>
        <pt x="579" y="168" on="0"/>
        <pt x="614" y="268" on="0"/>
      </contour>
      <contour>
        <pt x="424" y="-11" on="1"/>
        <pt x="411" y="-13" on="0"/>
        <pt x="395" y="-13" on="0"/>
        <pt x="383" y="-13" on="1"/>
        <pt x="330" y="-13" on="0"/>
        <pt x="213" y="19" on="0"/>
        <pt x="115" y="99" on="0"/>
        <pt x="51" y="236" on="0"/>
        <pt x="51" y="341" on="1"/>
        <pt x="51" y="438" on="0"/>
        <pt x="111" y="572" on="0"/>
        <pt x="207" y="654" on="0"/>
        <pt x="325" y="691" on="0"/>
        <pt x="383" y="691" on="1"/>
        <pt x="440" y="691" on="0"/>
        <pt x="556" y="660" on="0"/>
        <pt x="650" y="580" on="0"/>
        <pt x="709" y="445" on="0"/>
        <pt x="709" y="340" on="1"/>
        <pt x="709" y="272" on="0"/>
        <pt x="677" y="167" on="0"/>
        <pt x="625" y="88" on="0"/>
        <pt x="557" y="35" on="0"/>
        <pt x="521" y="19" on="1"/>
        <pt x="537" y="10" on="0"/>
        <pt x="583" y="-20" on="0"/>
        <pt x="633" y="-49" on="0"/>
        <pt x="681" y="-69" on="0"/>
        <pt x="700" y="-69" on="1"/>
        <pt x="718" y="-69" on="0"/>
        <pt x="757" y="-57" on="0"/>
        <pt x="774" y="-46" on="1"/>
        <pt x="811" y="-111" on="1"/>
        <pt x="788" y="-125" on="0"/>
        <pt x="729" y="-149" on="0"/>
        <pt x="696" y="-149" on="1"/>
        <pt x="673" y="-149" on="0"/>
        <pt x="613" y="-126" on="0"/>
        <pt x="543" y="-88" on="0"/>
        <pt x="465" y="-38" on="0"/>
      </contour>
    </TTGlyph>
    <TTGlyph name="R" xMin="88" yMin="0" xMax="583" yMax="682">
      <contour>
        <pt x="88" y="682" on="1"/>
        <pt x="256" y="682" on="1"/>
        <pt x="311" y="682" on="0"/>
        <pt x="402" y="663" on="0"/>
        <pt x="466" y="618" on="0"/>
        <pt x="500" y="544" on="0"/>
        <pt x="500" y="488" on="1"/>
        <pt x="499" y="426" on="0"/>
        <pt x="459" y="349" on="0"/>
        <pt x="401" y="302" on="0"/>
        <pt x="363" y="291" on="1"/>
        <pt x="363" y="289" on="1"/>
        <pt x="367" y="285" on="0"/>
        <pt x="384" y="264" on="0"/>
        <pt x="390" y="256" on="1"/>
        <pt x="583" y="0" on="1"/>
        <pt x="484" y="0" on="1"/>
        <pt x="286" y="271" on="1"/>
        <pt x="172" y="271" on="1"/>
        <pt x="172" y="0" on="1"/>
        <pt x="88" y="0" on="1"/>
      </contour>
      <contour>
        <pt x="415" y="474" on="1"/>
        <pt x="415" y="516" on="0"/>
        <pt x="394" y="569" on="0"/>
        <pt x="353" y="597" on="0"/>
        <pt x="293" y="607" on="0"/>
        <pt x="255" y="607" on="1"/>
        <pt x="172" y="607" on="1"/>
        <pt x="172" y="346" on="1"/>
        <pt x="271" y="346" on="1"/>
        <pt x="310" y="346" on="0"/>
        <pt x="364" y="366" on="0"/>
        <pt x="398" y="401" on="0"/>
        <pt x="414" y="447" on="0"/>
      </contour>
    </TTGlyph>
    <TTGlyph name="S" xMin="45" yMin="-13" xMax="490" yMax="691">
      <contour>
        <pt x="437" y="588" on="1"/>
        <pt x="413" y="594" on="0"/>
        <pt x="387" y="599" on="1"/>
        <pt x="364" y="604" on="0"/>
        <pt x="305" y="611" on="0"/>
        <pt x="273" y="611" on="1"/>
        <pt x="199" y="611" on="0"/>
        <pt x="135" y="566" on="0"/>
        <pt x="135" y="519" on="1"/>
        <pt x="136" y="482" on="0"/>
        <pt x="188" y="431" on="0"/>
        <pt x="266" y="388" on="0"/>
        <pt x="359" y="347" on="0"/>
        <pt x="437" y="294" on="0"/>
        <pt x="490" y="223" on="0"/>
        <pt x="490" y="172" on="1"/>
        <pt x="490" y="113" on="0"/>
        <pt x="439" y="41" on="0"/>
        <pt x="361" y="1" on="0"/>
        <pt x="268" y="-13" on="0"/>
        <pt x="226" y="-13" on="1"/>
        <pt x="186" y="-13" on="0"/>
        <pt x="120" y="-3" on="0"/>
        <pt x="96" y="3" on="1"/>
        <pt x="68" y="10" on="0"/>
        <pt x="45" y="19" on="1"/>
        <pt x="65" y="100" on="1"/>
        <pt x="88" y="90" on="0"/>
        <pt x="114" y="83" on="1"/>
        <pt x="137" y="77" on="0"/>
        <pt x="194" y="67" on="0"/>
        <pt x="226" y="67" on="1"/>
        <pt x="265" y="67" on="0"/>
        <pt x="330" y="77" on="0"/>
        <pt x="378" y="99" on="0"/>
        <pt x="405" y="135" on="0"/>
        <pt x="405" y="161" on="1"/>
        <pt x="404" y="200" on="0"/>
        <pt x="355" y="249" on="0"/>
        <pt x="274" y="294" on="0"/>
        <pt x="181" y="336" on="0"/>
        <pt x="103" y="390" on="0"/>
        <pt x="50" y="464" on="0"/>
        <pt x="50" y="519" on="1"/>
        <pt x="50" y="551" on="0"/>
        <pt x="72" y="613" on="0"/>
        <pt x="125" y="661" on="0"/>
        <pt x="210" y="691" on="0"/>
        <pt x="273" y="691" on="1"/>
        <pt x="309" y="691" on="0"/>
        <pt x="374" y="684" on="0"/>
        <pt x="398" y="680" on="1"/>
        <pt x="426" y="675" on="0"/>
        <pt x="451" y="669" on="1"/>
      </contour>
    </TTGlyph>
    <TTGlyph name="Scaron" xMin="45" yMin="-13" xMax="490" yMax="940">
      <component glyphName="S" x="0" y="0" flags="0x204"/>
      <component glyphName="caron" x="-3" y="177" flags="0x4"/>
    </TTGlyph>
    <TTGlyph name="T" xMin="17" yMin="0" xMax="529" yMax="682">
      <contour>
        <pt x="231" y="604" on="1"/>
        <pt x="17" y="604" on="1"/>
        <pt x="17" y="682" on="1"/>
        <pt x="529" y="682" on="1"/>
        <pt x="529" y="604" on="1"/>
        <pt x="315" y="604" on="1"/>
        <pt x="315" y="0" on="1"/>
        <pt x="231" y="0" on="1"/>
      </contour>
    </TTGlyph>
    <TTGlyph name="Thorn" xMin="88" yMin="0" xMax="510" yMax="682">
      <contour>
        <pt x="172" y="563" on="1"/>
        <pt x="255" y="563" on="1"/>
        <pt x="385" y="563" on="0"/>
        <pt x="510" y="471" on="0"/>
        <pt x="510" y="362" on="1"/>
        <pt x="510" y="302" on="0"/>
        <pt x="464" y="222" on="0"/>
        <pt x="395" y="173" on="0"/>
        <pt x="315" y="152" on="0"/>
        <pt x="281" y="152" on="1"/>
        <pt x="172" y="152" on="1"/>
        <pt x="172" y="0" on="1"/>
        <pt x="88" y="0" on="1"/>
        <pt x="88" y="682" on="1"/>
        <pt x="172" y="682" on="1"/>
      </contour>
      <contour>
        <pt x="172" y="488" on="1"/>
        <pt x="172" y="227" on="1"/>
        <pt x="274" y="227" on="1"/>
        <pt x="308" y="227" on="0"/>
        <pt x="363" y="240" on="0"/>
        <pt x="403" y="271" on="0"/>
        <pt x="425" y="324" on="0"/>
        <pt x="425" y="364" on="1"/>
        <pt x="425" y="404" on="0"/>
        <pt x="402" y="453" on="0"/>
        <pt x="357" y="479" on="0"/>
        <pt x="289" y="488" on="0"/>
        <pt x="244" y="488" on="1"/>
      </contour>
    </TTGlyph>
    <TTGlyph name="U" xMin="83" yMin="-12" xMax="633" yMax="682">
      <contour>
        <pt x="167" y="682" on="1"/>
        <pt x="167" y="256" on="1"/>
        <pt x="167" y="199" on="0"/>
        <pt x="200" y="126" on="0"/>
        <pt x="254" y="84" on="0"/>
        <pt x="323" y="68" on="0"/>
        <pt x="359" y="68" on="1"/>
        <pt x="395" y="68" on="0"/>
        <pt x="463" y="84" on="0"/>
        <pt x="517" y="126" on="0"/>
        <pt x="549" y="199" on="0"/>
        <pt x="549" y="256" on="1"/>
        <pt x="549" y="682" on="1"/>
        <pt x="633" y="682" on="1"/>
        <pt x="633" y="235" on="1"/>
        <pt x="633" y="183" on="0"/>
        <pt x="594" y="93" on="0"/>
        <pt x="522" y="26" on="0"/>
        <pt x="420" y="-12" on="0"/>
        <pt x="358" y="-12" on="1"/>
        <pt x="225" y="-12" on="0"/>
        <pt x="83" y="117" on="0"/>
        <pt x="83" y="235" on="1"/>
        <pt x="83" y="682" on="1"/>
      </contour>
    </TTGlyph>
    <TTGlyph name="Uacute" xMin="83" yMin="-12" xMax="633" yMax="938">
      <component glyphName="U" x="0" y="0" flags="0x204"/>
      <component glyphName="acute" x="208" y="167" flags="0x4"/>
    </TTGlyph>
    <TTGlyph name="Ucircumflex" xMin="83" yMin="-12" xMax="633" yMax="941">
      <component glyphName="U" x="0" y="0" flags="0x204"/>
      <component glyphName="circumflex" x="113" y="171" flags="0x4"/>
    </TTGlyph>
    <TTGlyph name="Udieresis" xMin="83" yMin="-12" xMax="633" yMax="878">
      <component glyphName="U" x="0" y="0" flags="0x204"/>
      <component glyphName="dieresis" x="112" y="177" flags="0x4"/>
    </TTGlyph>
    <TTGlyph name="Ugrave" xMin="83" yMin="-12" xMax="633" yMax="938">
      <component glyphName="U" x="0" y="0" flags="0x204"/>
      <component glyphName="grave" x="135" y="167" flags="0x4"/>
    </TTGlyph>
    <TTGlyph name="V" xMin="18" yMin="0" xMax="578" yMax="682">
      <contour>
        <pt x="18" y="682" on="1"/>
        <pt x="103" y="682" on="1"/>
        <pt x="299" y="80" on="1"/>
        <pt x="300" y="80" on="1"/>
        <pt x="493" y="682" on="1"/>
        <pt x="578" y="682" on="1"/>
        <pt x="351" y="0" on="1"/>
        <pt x="245" y="0" on="1"/>
      </contour>
    </TTGlyph>
    <TTGlyph name="W" xMin="28" yMin="0" xMax="917" yMax="682">
      <contour>
        <pt x="28" y="682" on="1"/>
        <pt x="113" y="682" on="1"/>
        <pt x="245" y="80" on="1"/>
        <pt x="246" y="80" on="1"/>
        <pt x="421" y="682" on="1"/>
        <pt x="527" y="682" on="1"/>
        <pt x="700" y="80" on="1"/>
        <pt x="701" y="80" on="1"/>
        <pt x="832" y="682" on="1"/>
        <pt x="917" y="682" on="1"/>
        <pt x="760" y="0" on="1"/>
        <pt x="654" y="0" on="1"/>
        <pt x="474" y="601" on="1"/>
        <pt x="473" y="601" on="1"/>
        <pt x="292" y="0" on="1"/>
        <pt x="186" y="0" on="1"/>
      </contour>
    </TTGlyph>
    <TTGlyph name="X" xMin="20" yMin="0" xMax="532" yMax="682">
      <contour>
        <pt x="217" y="347" on="1"/>
        <pt x="20" y="682" on="1"/>
        <pt x="115" y="682" on="1"/>
        <pt x="276" y="405" on="1"/>
        <pt x="436" y="682" on="1"/>
        <pt x="531" y="682" on="1"/>
        <pt x="329" y="339" on="1"/>
        <pt x="532" y="0" on="1"/>
        <pt x="435" y="0" on="1"/>
        <pt x="271" y="285" on="1"/>
        <pt x="115" y="0" on="1"/>
        <pt x="20" y="0" on="1"/>
      </contour>
    </TTGlyph>
    <TTGlyph name="Y" xMin="12" yMin="0" xMax="533" yMax="682">
      <contour>
        <pt x="230" y="248" on="1"/>
        <pt x="12" y="682" on="1"/>
        <pt x="105" y="682" on="1"/>
        <pt x="272" y="351" on="1"/>
        <pt x="440" y="682" on="1"/>
        <pt x="533" y="682" on="1"/>
        <pt x="315" y="248" on="1"/>
        <pt x="315" y="0" on="1"/>
        <pt x="230" y="0" on="1"/>
      </contour>
    </TTGlyph>
    <TTGlyph name="Yacute" xMin="12" yMin="0" xMax="533" yMax="938">
      <component glyphName="Y" x="0" y="0" flags="0x204"/>
      <component glyphName="acute" x="75" y="167" flags="0x4"/>
    </TTGlyph>
    <TTGlyph name="Ydieresis" xMin="12" yMin="0" xMax="533" yMax="867">
      <component glyphName="Y" x="0" y="0" flags="0x204"/>
      <component glyphName="dieresis" x="32" y="166" flags="0x4"/>
    </TTGlyph>
    <TTGlyph name="Z" xMin="36" yMin="0" xMax="556" yMax="682">
      <contour>
        <pt x="36" y="36" on="1"/>
        <pt x="422" y="602" on="1"/>
        <pt x="36" y="602" on="1"/>
        <pt x="36" y="682" on="1"/>
        <pt x="556" y="682" on="1"/>
        <pt x="556" y="648" on="1"/>
        <pt x="167" y="80" on="1"/>
        <pt x="547" y="80" on="1"/>
        <pt x="547" y="0" on="1"/>
        <pt x="36" y="0" on="1"/>
      </contour>
    </TTGlyph>
    <TTGlyph name="Zcaron" xMin="36" yMin="0" xMax="556" yMax="940">
      <component glyphName="Z" x="0" y="0" flags="0x204"/>
      <component glyphName="caron" x="21" y="177" flags="0x4"/>
    </TTGlyph>
    <TTGlyph name="a" xMin="30" yMin="-13" xMax="438" yMax="513">
      <contour>
        <pt x="352" y="231" on="1"/>
        <pt x="332" y="230" on="0"/>
        <pt x="296" y="228" on="0"/>
        <pt x="261" y="225" on="0"/>
        <pt x="247" y="223" on="1"/>
        <pt x="175" y="214" on="0"/>
        <pt x="115" y="169" on="0"/>
        <pt x="115" y="127" on="1"/>
        <pt x="115" y="92" on="0"/>
        <pt x="158" y="57" on="0"/>
        <pt x="193" y="57" on="1"/>
        <pt x="241" y="57" on="0"/>
        <pt x="316" y="90" on="0"/>
        <pt x="352" y="117" on="1"/>
      </contour>
      <contour>
        <pt x="351" y="47" on="1"/>
        <pt x="304" y="20" on="0"/>
        <pt x="223" y="-13" on="0"/>
        <pt x="176" y="-13" on="1"/>
        <pt x="109" y="-13" on="0"/>
        <pt x="30" y="52" on="0"/>
        <pt x="30" y="127" on="1"/>
        <pt x="30" y="166" on="0"/>
        <pt x="70" y="224" on="0"/>
        <pt x="135" y="263" on="0"/>
        <pt x="217" y="285" on="0"/>
        <pt x="260" y="288" on="1"/>
        <pt x="278" y="290" on="0"/>
        <pt x="336" y="293" on="0"/>
        <pt x="352" y="294" on="1"/>
        <pt x="352" y="329" on="0"/>
        <pt x="348" y="384" on="0"/>
        <pt x="328" y="423" on="0"/>
        <pt x="289" y="443" on="0"/>
        <pt x="253" y="443" on="1"/>
        <pt x="224" y="443" on="0"/>
        <pt x="170" y="436" on="0"/>
        <pt x="149" y="432" on="1"/>
        <pt x="124" y="427" on="0"/>
        <pt x="103" y="421" on="1"/>
        <pt x="87" y="490" on="1"/>
        <pt x="112" y="496" on="0"/>
        <pt x="141" y="501" on="1"/>
        <pt x="166" y="506" on="0"/>
        <pt x="232" y="513" on="0"/>
        <pt x="270" y="513" on="1"/>
        <pt x="321" y="513" on="0"/>
        <pt x="384" y="483" on="0"/>
        <pt x="419" y="432" on="0"/>
        <pt x="432" y="367" on="0"/>
        <pt x="432" y="331" on="1"/>
        <pt x="432" y="91" on="1"/>
        <pt x="432" y="77" on="0"/>
        <pt x="433" y="46" on="0"/>
        <pt x="436" y="16" on="0"/>
        <pt x="438" y="0" on="1"/>
        <pt x="361" y="-8" on="1"/>
      </contour>
    </TTGlyph>
    <TTGlyph name="aacute" xMin="30" yMin="-13" xMax="438" yMax="771">
      <component glyphName="a" x="0" y="0" flags="0x204"/>
      <component glyphName="acute" x="47" y="0" flags="0x4"/>
    </TTGlyph>
    <TTGlyph name="acircumflex" xMin="30" yMin="-13" xMax="438" yMax="770">
      <component glyphName="a" x="0" y="0" flags="0x204"/>
      <component glyphName="circumflex" x="0" y="0" flags="0x4"/>
    </TTGlyph>
    <TTGlyph name="acute" xMin="100" yMin="601" xMax="324" yMax="771">
      <contour>
        <pt x="272" y="771" on="1"/>
        <pt x="324" y="710" on="1"/>
        <pt x="134" y="601" on="1"/>
        <pt x="100" y="646" on="1"/>
      </contour>
    </TTGlyph>
    <TTGlyph name="adieresis" xMin="30" yMin="-13" xMax="438" yMax="701">
      <component glyphName="a" x="0" y="0" flags="0x204"/>
      <component glyphName="dieresis" x="15" y="0" flags="0x4"/>
    </TTGlyph>
    <TTGlyph name="ae" xMin="30" yMin="-13" xMax="769" yMax="513">
      <contour>
        <pt x="176" y="-13" on="1"/>
        <pt x="101" y="-13" on="0"/>
        <pt x="30" y="58" on="0"/>
        <pt x="30" y="127" on="1"/>
        <pt x="30" y="167" on="0"/>
        <pt x="66" y="225" on="0"/>
        <pt x="127" y="264" on="0"/>
        <pt x="206" y="285" on="0"/>
        <pt x="249" y="288" on="1"/>
        <pt x="264" y="289" on="0"/>
        <pt x="301" y="292" on="0"/>
        <pt x="347" y="296" on="1"/>
        <pt x="351" y="323" on="1"/>
        <pt x="360" y="382" on="0"/>
        <pt x="316" y="443" on="0"/>
        <pt x="253" y="443" on="1"/>
        <pt x="184" y="443" on="0"/>
        <pt x="104" y="424" on="1"/>
        <pt x="87" y="495" on="1"/>
        <pt x="179" y="513" on="0"/>
        <pt x="270" y="513" on="1"/>
        <pt x="327" y="512" on="0"/>
        <pt x="393" y="475" on="0"/>
        <pt x="409" y="445" on="1"/>
        <pt x="472" y="513" on="0"/>
        <pt x="583" y="513" on="1"/>
        <pt x="632" y="513" on="0"/>
        <pt x="702" y="475" on="0"/>
        <pt x="747" y="410" on="0"/>
        <pt x="769" y="323" on="0"/>
        <pt x="769" y="275" on="1"/>
        <pt x="754" y="231" on="1"/>
        <pt x="430" y="231" on="1"/>
        <pt x="430" y="198" on="0"/>
        <pt x="449" y="135" on="0"/>
        <pt x="489" y="86" on="0"/>
        <pt x="552" y="57" on="0"/>
        <pt x="596" y="57" on="1"/>
        <pt x="671" y="57" on="0"/>
        <pt x="729" y="79" on="1"/>
        <pt x="744" y="14" on="1"/>
        <pt x="664" y="-13" on="0"/>
        <pt x="581" y="-13" on="1"/>
        <pt x="527" y="-13" on="0"/>
        <pt x="437" y="21" on="0"/>
        <pt x="397" y="69" on="1"/>
        <pt x="370" y="46" on="0"/>
        <pt x="336" y="28" on="1"/>
        <pt x="307" y="12" on="0"/>
        <pt x="226" y="-13" on="0"/>
      </contour>
      <contour>
        <pt x="364" y="122" on="1"/>
        <pt x="358" y="139" on="0"/>
        <pt x="350" y="176" on="0"/>
        <pt x="348" y="193" on="1"/>
        <pt x="345" y="212" on="0"/>
        <pt x="344" y="231" on="1"/>
        <pt x="290" y="228" on="0"/>
        <pt x="247" y="223" on="1"/>
        <pt x="175" y="214" on="0"/>
        <pt x="114" y="169" on="0"/>
        <pt x="114" y="127" on="1"/>
        <pt x="114" y="92" on="0"/>
        <pt x="158" y="57" on="0"/>
        <pt x="193" y="57" on="1"/>
        <pt x="241" y="57" on="0"/>
        <pt x="328" y="95" on="0"/>
      </contour>
      <contour>
        <pt x="686" y="295" on="1"/>
        <pt x="686" y="302" on="0"/>
        <pt x="680" y="350" on="0"/>
        <pt x="658" y="402" on="0"/>
        <pt x="613" y="443" on="0"/>
        <pt x="574" y="443" on="1"/>
        <pt x="532" y="443" on="0"/>
        <pt x="478" y="409" on="0"/>
        <pt x="447" y="360" on="0"/>
        <pt x="434" y="310" on="0"/>
        <pt x="434" y="295" on="1"/>
      </contour>
    </TTGlyph>
    <TTGlyph name="agrave" xMin="30" yMin="-13" xMax="438" yMax="771">
      <component glyphName="a" x="0" y="0" flags="0x204"/>
      <component glyphName="grave" x="29" y="0" flags="0x4"/>
    </TTGlyph>
    <TTGlyph name="ampersand" xMin="54" yMin="-21" xMax="696" yMax="752">
      <contour>
        <pt x="652" y="-21" on="1"/>
        <pt x="617" y="6" on="0"/>
        <pt x="546" y="66" on="0"/>
        <pt x="510" y="98" on="1"/>
        <pt x="463" y="49" on="0"/>
        <pt x="338" y="-13" on="0"/>
        <pt x="257" y="-13" on="1"/>
        <pt x="213" y="-13" on="0"/>
        <pt x="139" y="9" on="0"/>
        <pt x="85" y="52" on="0"/>
        <pt x="54" y="118" on="0"/>
        <pt x="54" y="162" on="1"/>
        <pt x="54" y="206" on="0"/>
        <pt x="89" y="275" on="0"/>
        <pt x="141" y="329" on="0"/>
        <pt x="199" y="370" on="0"/>
        <pt x="223" y="385" on="1"/>
        <pt x="205" y="407" on="0"/>
        <pt x="165" y="453" on="0"/>
        <pt x="132" y="504" on="0"/>
        <pt x="111" y="562" on="0"/>
        <pt x="111" y="596" on="1"/>
        <pt x="111" y="624" on="0"/>
        <pt x="132" y="680" on="0"/>
        <pt x="177" y="724" on="0"/>
        <pt x="250" y="752" on="0"/>
        <pt x="303" y="752" on="1"/>
        <pt x="357" y="752" on="0"/>
        <pt x="428" y="727" on="0"/>
        <pt x="470" y="685" on="0"/>
        <pt x="487" y="628" on="0"/>
        <pt x="487" y="596" on="1"/>
        <pt x="487" y="560" on="0"/>
        <pt x="457" y="495" on="0"/>
        <pt x="410" y="439" on="0"/>
        <pt x="354" y="393" on="0"/>
        <pt x="328" y="376" on="1"/>
        <pt x="376" y="325" on="0"/>
        <pt x="461" y="240" on="0"/>
        <pt x="501" y="203" on="1"/>
        <pt x="528" y="243" on="0"/>
        <pt x="568" y="331" on="0"/>
        <pt x="582" y="373" on="1"/>
        <pt x="648" y="351" on="1"/>
        <pt x="634" y="304" on="0"/>
        <pt x="589" y="202" on="0"/>
        <pt x="555" y="154" on="1"/>
        <pt x="592" y="121" on="0"/>
        <pt x="661" y="60" on="0"/>
        <pt x="696" y="28" on="1"/>
      </contour>
      <contour>
        <pt x="257" y="57" on="1"/>
        <pt x="317" y="57" on="0"/>
        <pt x="416" y="106" on="0"/>
        <pt x="455" y="147" on="1"/>
        <pt x="405" y="192" on="0"/>
        <pt x="310" y="286" on="0"/>
        <pt x="268" y="334" on="1"/>
        <pt x="243" y="317" on="0"/>
        <pt x="195" y="281" on="0"/>
        <pt x="157" y="239" on="0"/>
        <pt x="134" y="189" on="0"/>
        <pt x="134" y="159" on="1"/>
        <pt x="134" y="141" on="0"/>
        <pt x="149" y="104" on="0"/>
        <pt x="180" y="75" on="0"/>
        <pt x="226" y="57" on="0"/>
      </contour>
      <contour>
        <pt x="191" y="596" on="1"/>
        <pt x="191" y="572" on="0"/>
        <pt x="203" y="532" on="0"/>
        <pt x="226" y="492" on="0"/>
        <pt x="262" y="449" on="0"/>
        <pt x="286" y="421" on="1"/>
        <pt x="310" y="437" on="0"/>
        <pt x="353" y="476" on="0"/>
        <pt x="387" y="520" on="0"/>
        <pt x="407" y="568" on="0"/>
        <pt x="407" y="594" on="1"/>
        <pt x="407" y="636" on="0"/>
        <pt x="364" y="682" on="0"/>
        <pt x="303" y="682" on="1"/>
        <pt x="247" y="682" on="0"/>
        <pt x="191" y="636" on="0"/>
      </contour>
    </TTGlyph>
    <TTGlyph name="approxequal" xMin="60" yMin="150" xMax="533" yMax="415">
      <contour>
        <pt x="517" y="345" on="1"/>
        <pt x="494" y="326" on="0"/>
        <pt x="439" y="298" on="0"/>
        <pt x="400" y="298" on="1"/>
        <pt x="369" y="298" on="0"/>
        <pt x="319" y="313" on="0"/>
        <pt x="271" y="330" on="0"/>
        <pt x="221" y="345" on="0"/>
        <pt x="191" y="345" on="1"/>
        <pt x="165" y="345" on="0"/>
        <pt x="123" y="323" on="0"/>
        <pt x="91" y="306" on="1"/>
        <pt x="60" y="366" on="1"/>
        <pt x="83" y="382" on="0"/>
        <pt x="153" y="415" on="0"/>
        <pt x="191" y="415" on="1"/>
        <pt x="221" y="415" on="0"/>
        <pt x="271" y="400" on="0"/>
        <pt x="319" y="383" on="0"/>
        <pt x="369" y="368" on="0"/>
        <pt x="400" y="368" on="1"/>
        <pt x="423" y="368" on="0"/>
        <pt x="468" y="394" on="0"/>
        <pt x="483" y="405" on="1"/>
      </contour>
      <contour>
        <pt x="533" y="198" on="1"/>
        <pt x="510" y="179" on="0"/>
        <pt x="458" y="150" on="0"/>
        <pt x="419" y="150" on="1"/>
        <pt x="388" y="150" on="0"/>
        <pt x="338" y="165" on="0"/>
        <pt x="290" y="182" on="0"/>
        <pt x="240" y="197" on="0"/>
        <pt x="210" y="197" on="1"/>
        <pt x="184" y="197" on="0"/>
        <pt x="143" y="176" on="0"/>
        <pt x="110" y="158" on="1"/>
        <pt x="79" y="218" on="1"/>
        <pt x="102" y="234" on="0"/>
        <pt x="172" y="267" on="0"/>
        <pt x="210" y="267" on="1"/>
        <pt x="240" y="267" on="0"/>
        <pt x="290" y="252" on="0"/>
        <pt x="338" y="235" on="0"/>
        <pt x="388" y="220" on="0"/>
        <pt x="419" y="220" on="1"/>
        <pt x="442" y="220" on="0"/>
        <pt x="487" y="246" on="0"/>
        <pt x="502" y="257" on="1"/>
      </contour>
    </TTGlyph>
    <TTGlyph name="aring" xMin="30" yMin="-13" xMax="438" yMax="799">
      <component glyphName="a" x="0" y="0" flags="0x204"/>
      <component glyphName="ring" x="53" y="15" flags="0x4"/>
    </TTGlyph>
    <TTGlyph name="asciicircum" xMin="100" yMin="432" xMax="566" yMax="745">
      <contour>
        <pt x="335" y="745" on="1"/>
        <pt x="566" y="432" on="1"/>
        <pt x="481" y="432" on="1"/>
        <pt x="335" y="637" on="1"/>
        <pt x="189" y="432" on="1"/>
        <pt x="100" y="432" on="1"/>
      </contour>
    </TTGlyph>
    <TTGlyph name="asciitilde" xMin="50" yMin="228" xMax="509" yMax="355">
      <contour>
        <pt x="509" y="282" on="1"/>
        <pt x="480" y="257" on="0"/>
        <pt x="426" y="228" on="0"/>
        <pt x="391" y="228" on="1"/>
        <pt x="360" y="228" on="0"/>
        <pt x="310" y="245" on="0"/>
        <pt x="262" y="267" on="0"/>
        <pt x="212" y="285" on="0"/>
        <pt x="182" y="285" on="1"/>
        <pt x="159" y="284" on="0"/>
        <pt x="118" y="264" on="0"/>
        <pt x="84" y="242" on="1"/>
        <pt x="50" y="299" on="1"/>
        <pt x="76" y="318" on="0"/>
        <pt x="144" y="354" on="0"/>
        <pt x="182" y="355" on="1"/>
        <pt x="212" y="355" on="0"/>
        <pt x="262" y="337" on="0"/>
        <pt x="310" y="315" on="0"/>
        <pt x="360" y="298" on="0"/>
        <pt x="391" y="298" on="1"/>
        <pt x="413" y="298" on="0"/>
        <pt x="459" y="326" on="0"/>
        <pt x="473" y="338" on="1"/>
      </contour>
    </TTGlyph>
    <TTGlyph name="asterisk" xMin="48" yMin="265" xMax="400" yMax="600">
      <contour>
        <pt x="285" y="410" on="1"/>
        <pt x="359" y="315" on="1"/>
        <pt x="295" y="267" on="1"/>
        <pt x="223" y="371" on="1"/>
        <pt x="153" y="265" on="1"/>
        <pt x="87" y="311" on="1"/>
        <pt x="163" y="411" on="1"/>
        <pt x="48" y="451" on="1"/>
        <pt x="74" y="526" on="1"/>
        <pt x="188" y="479" on="1"/>
        <pt x="185" y="600" on="1"/>
        <pt x="265" y="600" on="1"/>
        <pt x="261" y="479" on="1"/>
        <pt x="373" y="521" on="1"/>
        <pt x="400" y="446" on="1"/>
      </contour>
    </TTGlyph>
    <TTGlyph name="at" xMin="55" yMin="-68" xMax="809" yMax="691">
      <contour>
        <pt x="515" y="438" on="1"/>
        <pt x="507" y="440" on="0"/>
        <pt x="487" y="443" on="0"/>
        <pt x="464" y="445" on="0"/>
        <pt x="452" y="445" on="1"/>
        <pt x="427" y="445" on="0"/>
        <pt x="379" y="423" on="0"/>
        <pt x="340" y="378" on="0"/>
        <pt x="316" y="308" on="0"/>
        <pt x="316" y="261" on="1"/>
        <pt x="316" y="250" on="0"/>
        <pt x="319" y="226" on="0"/>
        <pt x="325" y="205" on="0"/>
        <pt x="335" y="192" on="0"/>
        <pt x="342" y="192" on="1"/>
        <pt x="347" y="192" on="0"/>
        <pt x="374" y="211" on="0"/>
        <pt x="408" y="242" on="0"/>
        <pt x="446" y="283" on="0"/>
        <pt x="478" y="325" on="0"/>
        <pt x="502" y="367" on="0"/>
        <pt x="505" y="384" on="1"/>
      </contour>
      <contour>
        <pt x="567" y="297" on="1"/>
        <pt x="564" y="280" on="0"/>
        <pt x="566" y="244" on="0"/>
        <pt x="572" y="214" on="0"/>
        <pt x="579" y="195" on="0"/>
        <pt x="582" y="195" on="1"/>
        <pt x="611" y="195" on="0"/>
        <pt x="667" y="216" on="0"/>
        <pt x="712" y="260" on="0"/>
        <pt x="739" y="327" on="0"/>
        <pt x="739" y="373" on="1"/>
        <pt x="739" y="440" on="0"/>
        <pt x="701" y="534" on="0"/>
        <pt x="628" y="594" on="0"/>
        <pt x="523" y="621" on="0"/>
        <pt x="456" y="621" on="1"/>
        <pt x="393" y="621" on="0"/>
        <pt x="273" y="576" on="0"/>
        <pt x="181" y="490" on="0"/>
        <pt x="125" y="363" on="0"/>
        <pt x="125" y="281" on="1"/>
        <pt x="125" y="132" on="0"/>
        <pt x="270" y="0" on="0"/>
        <pt x="416" y="0" on="1"/>
        <pt x="451" y="0" on="0"/>
        <pt x="506" y="9" on="0"/>
        <pt x="526" y="14" on="1"/>
        <pt x="549" y="20" on="0"/>
        <pt x="566" y="28" on="1"/>
        <pt x="586" y="-38" on="1"/>
        <pt x="561" y="-47" on="0"/>
        <pt x="531" y="-53" on="1"/>
        <pt x="505" y="-59" on="0"/>
        <pt x="434" y="-68" on="0"/>
        <pt x="392" y="-68" on="1"/>
        <pt x="313" y="-68" on="0"/>
        <pt x="188" y="-26" on="0"/>
        <pt x="101" y="59" on="0"/>
        <pt x="55" y="191" on="0"/>
        <pt x="55" y="281" on="1"/>
        <pt x="55" y="378" on="0"/>
        <pt x="122" y="531" on="0"/>
        <pt x="233" y="636" on="0"/>
        <pt x="378" y="691" on="0"/>
        <pt x="456" y="691" on="1"/>
        <pt x="534" y="691" on="0"/>
        <pt x="664" y="657" on="0"/>
        <pt x="757" y="582" on="0"/>
        <pt x="809" y="460" on="0"/>
        <pt x="809" y="373" on="1"/>
        <pt x="809" y="325" on="0"/>
        <pt x="780" y="234" on="0"/>
        <pt x="716" y="163" on="0"/>
        <pt x="615" y="120" on="0"/>
        <pt x="543" y="120" on="1"/>
        <pt x="539" y="120" on="0"/>
        <pt x="525" y="137" on="0"/>
        <pt x="513" y="173" on="0"/>
        <pt x="504" y="228" on="0"/>
        <pt x="505" y="266" on="1"/>
        <pt x="503" y="266" on="1"/>
        <pt x="451" y="199" on="0"/>
        <pt x="363" y="125" on="0"/>
        <pt x="324" y="125" on="1"/>
        <pt x="279" y="125" on="0"/>
        <pt x="237" y="191" on="0"/>
        <pt x="237" y="245" on="1"/>
        <pt x="237" y="304" on="0"/>
        <pt x="272" y="403" on="0"/>
        <pt x="335" y="474" on="0"/>
        <pt x="422" y="513" on="0"/>
        <pt x="474" y="513" on="1"/>
        <pt x="488" y="513" on="0"/>
        <pt x="529" y="508" on="0"/>
        <pt x="597" y="497" on="1"/>
      </contour>
    </TTGlyph>
    <TTGlyph name="atilde" xMin="30" yMin="-13" xMax="438" yMax="705">
      <component glyphName="a" x="0" y="0" flags="0x204"/>
      <component glyphName="tilde" x="-22" y="0" flags="0x4"/>
    </TTGlyph>
    <TTGlyph name="b" xMin="71" yMin="-13" xMax="493" yMax="758">
      <contour>
        <pt x="71" y="749" on="1"/>
        <pt x="151" y="758" on="1"/>
        <pt x="151" y="460" on="1"/>
        <pt x="173" y="475" on="0"/>
        <pt x="197" y="486" on="1"/>
        <pt x="217" y="496" on="0"/>
        <pt x="267" y="513" on="0"/>
        <pt x="292" y="513" on="1"/>
        <pt x="333" y="513" on="0"/>
        <pt x="406" y="481" on="0"/>
        <pt x="461" y="417" on="0"/>
        <pt x="493" y="319" on="0"/>
        <pt x="493" y="252" on="1"/>
        <pt x="493" y="178" on="0"/>
        <pt x="452" y="77" on="0"/>
        <pt x="383" y="15" on="0"/>
        <pt x="295" y="-13" on="0"/>
        <pt x="249" y="-13" on="1"/>
        <pt x="203" y="-13" on="0"/>
        <pt x="136" y="0" on="0"/>
        <pt x="114" y="8" on="1"/>
        <pt x="88" y="18" on="0"/>
        <pt x="71" y="30" on="1"/>
      </contour>
      <contour>
        <pt x="151" y="74" on="1"/>
        <pt x="164" y="69" on="0"/>
        <pt x="194" y="62" on="0"/>
        <pt x="229" y="57" on="0"/>
        <pt x="249" y="57" on="1"/>
        <pt x="295" y="57" on="0"/>
        <pt x="357" y="83" on="0"/>
        <pt x="393" y="133" on="0"/>
        <pt x="408" y="204" on="0"/>
        <pt x="408" y="248" on="1"/>
        <pt x="408" y="283" on="0"/>
        <pt x="393" y="353" on="0"/>
        <pt x="361" y="408" on="0"/>
        <pt x="314" y="443" on="0"/>
        <pt x="283" y="443" on="1"/>
        <pt x="262" y="443" on="0"/>
        <pt x="216" y="426" on="0"/>
        <pt x="196" y="415" on="1"/>
        <pt x="173" y="403" on="0"/>
        <pt x="151" y="388" on="1"/>
      </contour>
    </TTGlyph>
    <TTGlyph name="backslash" xMin="29" yMin="-208" xMax="479" yMax="849">
      <contour>
        <pt x="29" y="823" on="1"/>
        <pt x="104" y="849" on="1"/>
        <pt x="479" y="-182" on="1"/>
        <pt x="404" y="-208" on="1"/>
      </contour>
    </TTGlyph>
    <TTGlyph name="bar" xMin="75" yMin="-228" xMax="155" yMax="758">
      <contour>
        <pt x="75" y="758" on="1"/>
        <pt x="155" y="758" on="1"/>
        <pt x="155" y="-228" on="1"/>
        <pt x="75" y="-228" on="1"/>
      </contour>
    </TTGlyph>
    <TTGlyph name="braceleft" xMin="26" yMin="-217" xMax="301" yMax="802">
      <contour>
        <pt x="119" y="130" on="1"/>
        <pt x="119" y="161" on="0"/>
        <pt x="101" y="202" on="0"/>
        <pt x="74" y="228" on="0"/>
        <pt x="41" y="244" on="0"/>
        <pt x="26" y="250" on="1"/>
        <pt x="26" y="325" on="1"/>
        <pt x="45" y="332" on="0"/>
        <pt x="79" y="349" on="0"/>
        <pt x="105" y="376" on="0"/>
        <pt x="119" y="419" on="0"/>
        <pt x="119" y="455" on="1"/>
        <pt x="119" y="483" on="0"/>
        <pt x="117" y="528" on="0"/>
        <pt x="114" y="573" on="0"/>
        <pt x="112" y="624" on="0"/>
        <pt x="112" y="657" on="1"/>
        <pt x="112" y="691" on="0"/>
        <pt x="148" y="741" on="0"/>
        <pt x="201" y="775" on="0"/>
        <pt x="262" y="796" on="0"/>
        <pt x="287" y="802" on="1"/>
        <pt x="301" y="732" on="1"/>
        <pt x="270" y="725" on="0"/>
        <pt x="247" y="713" on="1"/>
        <pt x="225" y="702" on="0"/>
        <pt x="191" y="666" on="0"/>
        <pt x="191" y="640" on="1"/>
        <pt x="191" y="599" on="0"/>
        <pt x="198" y="512" on="0"/>
        <pt x="198" y="449" on="1"/>
        <pt x="199" y="389" on="0"/>
        <pt x="163" y="302" on="0"/>
        <pt x="115" y="287" on="1"/>
        <pt x="163" y="273" on="0"/>
        <pt x="198" y="196" on="0"/>
        <pt x="198" y="136" on="1"/>
        <pt x="198" y="73" on="0"/>
        <pt x="191" y="-14" on="0"/>
        <pt x="191" y="-55" on="1"/>
        <pt x="192" y="-82" on="0"/>
        <pt x="225" y="-117" on="0"/>
        <pt x="246" y="-128" on="1"/>
        <pt x="270" y="-140" on="0"/>
        <pt x="301" y="-147" on="1"/>
        <pt x="287" y="-217" on="1"/>
        <pt x="262" y="-211" on="0"/>
        <pt x="201" y="-190" on="0"/>
        <pt x="147" y="-155" on="0"/>
        <pt x="112" y="-106" on="0"/>
        <pt x="112" y="-72" on="1"/>
        <pt x="112" y="-39" on="0"/>
        <pt x="114" y="12" on="0"/>
        <pt x="117" y="57" on="0"/>
        <pt x="119" y="102" on="0"/>
      </contour>
    </TTGlyph>
    <TTGlyph name="braceright" xMin="24" yMin="-217" xMax="299" yMax="802">
      <contour>
        <pt x="206" y="130" on="1"/>
        <pt x="206" y="102" on="0"/>
        <pt x="208" y="57" on="0"/>
        <pt x="211" y="12" on="0"/>
        <pt x="213" y="-39" on="0"/>
        <pt x="213" y="-72" on="1"/>
        <pt x="213" y="-106" on="0"/>
        <pt x="177" y="-156" on="0"/>
        <pt x="124" y="-190" on="0"/>
        <pt x="63" y="-212" on="0"/>
        <pt x="38" y="-217" on="1"/>
        <pt x="24" y="-147" on="1"/>
        <pt x="54" y="-140" on="0"/>
        <pt x="79" y="-128" on="1"/>
        <pt x="99" y="-117" on="0"/>
        <pt x="134" y="-82" on="0"/>
        <pt x="134" y="-55" on="1"/>
        <pt x="134" y="-14" on="0"/>
        <pt x="127" y="73" on="0"/>
        <pt x="127" y="136" on="1"/>
        <pt x="127" y="196" on="0"/>
        <pt x="162" y="273" on="0"/>
        <pt x="210" y="287" on="1"/>
        <pt x="164" y="300" on="0"/>
        <pt x="126" y="389" on="0"/>
        <pt x="127" y="449" on="1"/>
        <pt x="127" y="512" on="0"/>
        <pt x="134" y="599" on="0"/>
        <pt x="134" y="640" on="1"/>
        <pt x="134" y="666" on="0"/>
        <pt x="101" y="702" on="0"/>
        <pt x="79" y="713" on="1"/>
        <pt x="54" y="725" on="0"/>
        <pt x="24" y="732" on="1"/>
        <pt x="38" y="802" on="1"/>
        <pt x="63" y="796" on="0"/>
        <pt x="124" y="775" on="0"/>
        <pt x="177" y="741" on="0"/>
        <pt x="213" y="691" on="0"/>
        <pt x="213" y="657" on="1"/>
        <pt x="213" y="624" on="0"/>
        <pt x="211" y="573" on="0"/>
        <pt x="208" y="528" on="0"/>
        <pt x="206" y="483" on="0"/>
        <pt x="206" y="455" on="1"/>
        <pt x="206" y="419" on="0"/>
        <pt x="220" y="376" on="0"/>
        <pt x="246" y="349" on="0"/>
        <pt x="279" y="333" on="0"/>
        <pt x="299" y="325" on="1"/>
        <pt x="299" y="250" on="1"/>
        <pt x="284" y="244" on="0"/>
        <pt x="250" y="227" on="0"/>
        <pt x="224" y="202" on="0"/>
        <pt x="206" y="161" on="0"/>
      </contour>
    </TTGlyph>
    <TTGlyph name="bracketleft" xMin="74" yMin="-252" xMax="282" yMax="790">
      <contour>
        <pt x="74" y="790" on="1"/>
        <pt x="282" y="790" on="1"/>
        <pt x="282" y="710" on="1"/>
        <pt x="159" y="710" on="1"/>
        <pt x="159" y="-172" on="1"/>
        <pt x="282" y="-172" on="1"/>
        <pt x="282" y="-252" on="1"/>
        <pt x="74" y="-252" on="1"/>
      </contour>
    </TTGlyph>
    <TTGlyph name="bracketright" xMin="29" yMin="-252" xMax="237" yMax="790">
      <contour>
        <pt x="237" y="-252" on="1"/>
        <pt x="29" y="-252" on="1"/>
        <pt x="29" y="-172" on="1"/>
        <pt x="152" y="-172" on="1"/>
        <pt x="152" y="710" on="1"/>
        <pt x="29" y="710" on="1"/>
        <pt x="29" y="790" on="1"/>
        <pt x="237" y="790" on="1"/>
      </contour>
    </TTGlyph>
    <TTGlyph name="breve" xMin="100" yMin="593" xMax="364" yMax="701">
      <contour>
        <pt x="157" y="701" on="1"/>
        <pt x="165" y="678" on="0"/>
        <pt x="205" y="648" on="0"/>
        <pt x="231" y="648" on="1"/>
        <pt x="256" y="648" on="0"/>
        <pt x="297" y="678" on="0"/>
        <pt x="306" y="701" on="1"/>
        <pt x="364" y="701" on="1"/>
        <pt x="359" y="678" on="0"/>
        <pt x="333" y="639" on="0"/>
        <pt x="298" y="610" on="0"/>
        <pt x="254" y="593" on="0"/>
        <pt x="231" y="593" on="1"/>
        <pt x="207" y="593" on="0"/>
        <pt x="164" y="610" on="0"/>
        <pt x="129" y="639" on="0"/>
        <pt x="105" y="678" on="0"/>
        <pt x="100" y="701" on="1"/>
      </contour>
    </TTGlyph>
    <TTGlyph name="brokenbar" xMin="82" yMin="0" xMax="152" yMax="682">
      <contour>
        <pt x="82" y="306" on="1"/>
        <pt x="152" y="306" on="1"/>
        <pt x="152" y="0" on="1"/>
        <pt x="82" y="0" on="1"/>
      </contour>
      <contour>
        <pt x="82" y="682" on="1"/>
        <pt x="152" y="682" on="1"/>
        <pt x="152" y="376" on="1"/>
        <pt x="82" y="376" on="1"/>
      </contour>
    </TTGlyph>
    <TTGlyph name="bullet" xMin="46" yMin="139" xMax="296" yMax="386">
      <contour>
        <pt x="46" y="267" on="1"/>
        <pt x="46" y="291" on="0"/>
        <pt x="66" y="335" on="0"/>
        <pt x="99" y="367" on="0"/>
        <pt x="144" y="386" on="0"/>
        <pt x="170" y="386" on="1"/>
        <pt x="195" y="386" on="0"/>
        <pt x="241" y="367" on="0"/>
        <pt x="275" y="335" on="0"/>
        <pt x="296" y="291" on="0"/>
        <pt x="296" y="267" on="1"/>
        <pt x="296" y="241" on="0"/>
        <pt x="275" y="194" on="0"/>
        <pt x="241" y="159" on="0"/>
        <pt x="195" y="139" on="0"/>
        <pt x="170" y="139" on="1"/>
        <pt x="144" y="139" on="0"/>
        <pt x="99" y="159" on="0"/>
        <pt x="66" y="194" on="0"/>
        <pt x="46" y="241" on="0"/>
      </contour>
    </TTGlyph>
    <TTGlyph name="c" xMin="45" yMin="-13" xMax="410" yMax="513">
      <contour>
        <pt x="384" y="430" on="1"/>
        <pt x="367" y="434" on="0"/>
        <pt x="307" y="443" on="0"/>
        <pt x="276" y="443" on="1"/>
        <pt x="231" y="443" on="0"/>
        <pt x="174" y="407" on="0"/>
        <pt x="142" y="350" on="0"/>
        <pt x="130" y="281" on="0"/>
        <pt x="130" y="248" on="1"/>
        <pt x="130" y="197" on="0"/>
        <pt x="156" y="124" on="0"/>
        <pt x="199" y="78" on="0"/>
        <pt x="255" y="57" on="0"/>
        <pt x="286" y="57" on="1"/>
        <pt x="307" y="57" on="0"/>
        <pt x="346" y="62" on="0"/>
        <pt x="379" y="69" on="0"/>
        <pt x="394" y="74" on="1"/>
        <pt x="410" y="7" on="1"/>
        <pt x="389" y="1" on="0"/>
        <pt x="353" y="-7" on="0"/>
        <pt x="304" y="-13" on="0"/>
        <pt x="276" y="-13" on="1"/>
        <pt x="221" y="-13" on="0"/>
        <pt x="135" y="15" on="0"/>
        <pt x="76" y="77" on="0"/>
        <pt x="45" y="177" on="0"/>
        <pt x="45" y="249" on="1"/>
        <pt x="45" y="319" on="0"/>
        <pt x="84" y="420" on="0"/>
        <pt x="148" y="483" on="0"/>
        <pt x="231" y="513" on="0"/>
        <pt x="276" y="513" on="1"/>
        <pt x="300" y="513" on="0"/>
        <pt x="345" y="508" on="0"/>
        <pt x="362" y="505" on="1"/>
        <pt x="382" y="501" on="0"/>
        <pt x="400" y="497" on="1"/>
      </contour>
    </TTGlyph>
    <TTGlyph name="caron" xMin="100" yMin="593" xMax="410" yMax="763">
      <contour>
        <pt x="100" y="730" on="1"/>
        <pt x="140" y="763" on="1"/>
        <pt x="255" y="666" on="1"/>
        <pt x="370" y="763" on="1"/>
        <pt x="410" y="730" on="1"/>
        <pt x="275" y="593" on="1"/>
        <pt x="235" y="593" on="1"/>
      </contour>
    </TTGlyph>
    <TTGlyph name="ccedilla" xMin="45" yMin="-244" xMax="410" yMax="513">
      <component glyphName="c" x="0" y="0" flags="0x204"/>
      <component glyphName="cedilla" x="66" y="0" flags="0x4"/>
    </TTGlyph>
    <TTGlyph name="cedilla" xMin="100" yMin="-244" xMax="231" yMax="-59">
      <contour>
        <pt x="152" y="-59" on="1"/>
        <pt x="231" y="-59" on="1"/>
        <pt x="231" y="-83" on="1"/>
        <pt x="231" y="-101" on="0"/>
        <pt x="226" y="-135" on="0"/>
        <pt x="211" y="-173" on="0"/>
        <pt x="182" y="-217" on="0"/>
        <pt x="157" y="-244" on="1"/>
        <pt x="100" y="-197" on="1"/>
        <pt x="119" y="-176" on="0"/>
        <pt x="141" y="-142" on="0"/>
        <pt x="150" y="-115" on="0"/>
        <pt x="152" y="-92" on="0"/>
        <pt x="152" y="-83" on="1"/>
      </contour>
    </TTGlyph>
    <TTGlyph name="cent" xMin="50" yMin="-20" xMax="413" yMax="682">
      <contour>
        <pt x="225" y="102" on="1"/>
        <pt x="181" y="105" on="0"/>
        <pt x="116" y="130" on="0"/>
        <pt x="72" y="184" on="0"/>
        <pt x="50" y="270" on="0"/>
        <pt x="50" y="333" on="1"/>
        <pt x="50" y="385" on="0"/>
        <pt x="79" y="467" on="0"/>
        <pt x="127" y="526" on="0"/>
        <pt x="190" y="560" on="0"/>
        <pt x="225" y="565" on="1"/>
        <pt x="225" y="682" on="1"/>
        <pt x="305" y="682" on="1"/>
        <pt x="305" y="564" on="1"/>
        <pt x="326" y="561" on="0"/>
        <pt x="367" y="554" on="0"/>
        <pt x="406" y="544" on="1"/>
        <pt x="390" y="477" on="1"/>
        <pt x="341" y="490" on="0"/>
        <pt x="278" y="498" on="0"/>
        <pt x="251" y="498" on="1"/>
        <pt x="210" y="498" on="0"/>
        <pt x="163" y="465" on="0"/>
        <pt x="141" y="416" on="0"/>
        <pt x="135" y="357" on="0"/>
        <pt x="135" y="332" on="1"/>
        <pt x="135" y="288" on="0"/>
        <pt x="148" y="227" on="0"/>
        <pt x="179" y="188" on="0"/>
        <pt x="230" y="171" on="0"/>
        <pt x="268" y="171" on="1"/>
        <pt x="293" y="171" on="0"/>
        <pt x="357" y="181" on="0"/>
        <pt x="397" y="195" on="1"/>
        <pt x="413" y="128" on="1"/>
        <pt x="391" y="119" on="0"/>
        <pt x="334" y="107" on="0"/>
        <pt x="305" y="104" on="1"/>
        <pt x="305" y="-20" on="1"/>
        <pt x="225" y="-20" on="1"/>
      </contour>
    </TTGlyph>
    <TTGlyph name="circumflex" xMin="100" yMin="600" xMax="410" yMax="770">
      <contour>
        <pt x="235" y="770" on="1"/>
        <pt x="275" y="770" on="1"/>
        <pt x="410" y="633" on="1"/>
        <pt x="370" y="600" on="1"/>
        <pt x="255" y="697" on="1"/>
        <pt x="140" y="600" on="1"/>
        <pt x="100" y="633" on="1"/>
      </contour>
    </TTGlyph>
    <TTGlyph name="colon" xMin="62" yMin="0" xMax="183" yMax="453">
      <contour>
        <pt x="62" y="59" on="1"/>
        <pt x="62" y="83" on="0"/>
        <pt x="96" y="118" on="0"/>
        <pt x="121" y="118" on="1"/>
        <pt x="147" y="118" on="0"/>
        <pt x="183" y="83" on="0"/>
        <pt x="183" y="59" on="1"/>
        <pt x="183" y="34" on="0"/>
        <pt x="147" y="0" on="0"/>
        <pt x="121" y="0" on="1"/>
        <pt x="96" y="0" on="0"/>
        <pt x="62" y="34" on="0"/>
      </contour>
      <contour>
        <pt x="62" y="394" on="1"/>
        <pt x="62" y="418" on="0"/>
        <pt x="96" y="453" on="0"/>
        <pt x="121" y="453" on="1"/>
        <pt x="147" y="453" on="0"/>
        <pt x="183" y="418" on="0"/>
        <pt x="183" y="394" on="1"/>
        <pt x="183" y="369" on="0"/>
        <pt x="147" y="335" on="0"/>
        <pt x="121" y="335" on="1"/>
        <pt x="96" y="335" on="0"/>
        <pt x="62" y="369" on="0"/>
      </contour>
    </TTGlyph>
    <TTGlyph name="comma" xMin="37" yMin="-128" xMax="156" yMax="130">
      <contour>
        <pt x="71" y="130" on="1"/>
        <pt x="156" y="130" on="1"/>
        <pt x="100" y="-128" on="1"/>
        <pt x="37" y="-116" on="1"/>
      </contour>
    </TTGlyph>
    <TTGlyph name="copyright" xMin="50" yMin="1" xMax="731" yMax="682">
      <contour>
        <pt x="50" y="341" on="1"/>
        <pt x="50" y="411" on="0"/>
        <pt x="103" y="536" on="0"/>
        <pt x="196" y="628" on="0"/>
        <pt x="319" y="682" on="0"/>
        <pt x="390" y="682" on="1"/>
        <pt x="460" y="682" on="0"/>
        <pt x="585" y="628" on="0"/>
        <pt x="677" y="536" on="0"/>
        <pt x="731" y="411" on="0"/>
        <pt x="731" y="341" on="1"/>
        <pt x="731" y="270" on="0"/>
        <pt x="677" y="147" on="0"/>
        <pt x="585" y="54" on="0"/>
        <pt x="460" y="1" on="0"/>
        <pt x="390" y="1" on="1"/>
        <pt x="319" y="1" on="0"/>
        <pt x="196" y="54" on="0"/>
        <pt x="103" y="147" on="0"/>
        <pt x="50" y="270" on="0"/>
      </contour>
      <contour>
        <pt x="107" y="341" on="1"/>
        <pt x="107" y="283" on="0"/>
        <pt x="152" y="180" on="0"/>
        <pt x="229" y="103" on="0"/>
        <pt x="332" y="58" on="0"/>
        <pt x="390" y="58" on="1"/>
        <pt x="449" y="58" on="0"/>
        <pt x="552" y="103" on="0"/>
        <pt x="629" y="180" on="0"/>
        <pt x="673" y="283" on="0"/>
        <pt x="673" y="341" on="1"/>
        <pt x="673" y="400" on="0"/>
        <pt x="629" y="503" on="0"/>
        <pt x="552" y="580" on="0"/>
        <pt x="449" y="624" on="0"/>
        <pt x="390" y="624" on="1"/>
        <pt x="332" y="624" on="0"/>
        <pt x="229" y="580" on="0"/>
        <pt x="152" y="503" on="0"/>
        <pt x="107" y="400" on="0"/>
      </contour>
      <contour>
        <pt x="475" y="472" on="1"/>
        <pt x="441" y="479" on="0"/>
        <pt x="407" y="482" on="0"/>
        <pt x="392" y="482" on="1"/>
        <pt x="361" y="482" on="0"/>
        <pt x="321" y="455" on="0"/>
        <pt x="299" y="413" on="0"/>
        <pt x="290" y="364" on="0"/>
        <pt x="290" y="342" on="1"/>
        <pt x="290" y="306" on="0"/>
        <pt x="309" y="255" on="0"/>
        <pt x="340" y="221" on="0"/>
        <pt x="380" y="205" on="0"/>
        <pt x="400" y="205" on="1"/>
        <pt x="416" y="205" on="0"/>
        <pt x="456" y="211" on="0"/>
        <pt x="482" y="219" on="1"/>
        <pt x="494" y="160" on="1"/>
        <pt x="462" y="149" on="0"/>
        <pt x="413" y="142" on="0"/>
        <pt x="392" y="142" on="1"/>
        <pt x="354" y="142" on="0"/>
        <pt x="289" y="162" on="0"/>
        <pt x="242" y="208" on="0"/>
        <pt x="215" y="286" on="0"/>
        <pt x="215" y="343" on="1"/>
        <pt x="215" y="399" on="0"/>
        <pt x="246" y="476" on="0"/>
        <pt x="296" y="523" on="0"/>
        <pt x="359" y="544" on="0"/>
        <pt x="392" y="544" on="1"/>
        <pt x="410" y="544" on="0"/>
        <pt x="454" y="539" on="0"/>
        <pt x="489" y="531" on="1"/>
      </contour>
    </TTGlyph>
    <TTGlyph name="currency" xMin="50" yMin="-14" xMax="504" yMax="514">
      <contour>
        <pt x="396" y="67" on="1"/>
        <pt x="371" y="47" on="0"/>
        <pt x="310" y="26" on="0"/>
        <pt x="278" y="26" on="1"/>
        <pt x="209" y="26" on="0"/>
        <pt x="158" y="68" on="1"/>
        <pt x="89" y="-14" on="1"/>
        <pt x="50" y="19" on="1"/>
        <pt x="122" y="105" on="1"/>
        <pt x="100" y="134" on="0"/>
        <pt x="76" y="209" on="0"/>
        <pt x="76" y="250" on="1"/>
        <pt x="76" y="292" on="0"/>
        <pt x="100" y="366" on="0"/>
        <pt x="122" y="395" on="1"/>
        <pt x="50" y="481" on="1"/>
        <pt x="89" y="514" on="1"/>
        <pt x="158" y="432" on="1"/>
        <pt x="210" y="475" on="0"/>
        <pt x="278" y="475" on="1"/>
        <pt x="344" y="475" on="0"/>
        <pt x="397" y="433" on="1"/>
        <pt x="465" y="514" on="1"/>
        <pt x="504" y="481" on="1"/>
        <pt x="432" y="396" on="1"/>
        <pt x="455" y="366" on="0"/>
        <pt x="480" y="292" on="0"/>
        <pt x="480" y="250" on="1"/>
        <pt x="480" y="208" on="0"/>
        <pt x="454" y="134" on="0"/>
        <pt x="431" y="104" on="1"/>
        <pt x="504" y="19" on="1"/>
        <pt x="465" y="-14" on="1"/>
      </contour>
      <contour>
        <pt x="140" y="250" on="1"/>
        <pt x="140" y="215" on="0"/>
        <pt x="162" y="156" on="0"/>
        <pt x="200" y="113" on="0"/>
        <pt x="250" y="89" on="0"/>
        <pt x="278" y="89" on="1"/>
        <pt x="306" y="89" on="0"/>
        <pt x="357" y="113" on="0"/>
        <pt x="394" y="156" on="0"/>
        <pt x="416" y="215" on="0"/>
        <pt x="416" y="250" on="1"/>
        <pt x="416" y="286" on="0"/>
        <pt x="394" y="345" on="0"/>
        <pt x="357" y="388" on="0"/>
        <pt x="306" y="412" on="0"/>
        <pt x="278" y="412" on="1"/>
        <pt x="250" y="412" on="0"/>
        <pt x="200" y="388" on="0"/>
        <pt x="162" y="345" on="0"/>
        <pt x="140" y="286" on="0"/>
      </contour>
    </TTGlyph>
    <TTGlyph name="d" xMin="45" yMin="-13" xMax="472" yMax="758">
      <contour>
        <pt x="386" y="428" on="1"/>
        <pt x="350" y="438" on="0"/>
        <pt x="310" y="443" on="0"/>
        <pt x="289" y="443" on="1"/>
        <pt x="247" y="443" on="0"/>
        <pt x="187" y="413" on="0"/>
        <pt x="148" y="360" on="0"/>
        <pt x="130" y="291" on="0"/>
        <pt x="130" y="252" on="1"/>
        <pt x="130" y="217" on="0"/>
        <pt x="145" y="147" on="0"/>
        <pt x="177" y="91" on="0"/>
        <pt x="223" y="57" on="0"/>
        <pt x="255" y="57" on="1"/>
        <pt x="277" y="57" on="0"/>
        <pt x="324" y="73" on="0"/>
        <pt x="364" y="94" on="0"/>
        <pt x="386" y="110" on="1"/>
      </contour>
      <contour>
        <pt x="387" y="40" on="1"/>
        <pt x="364" y="24" on="0"/>
        <pt x="321" y="3" on="0"/>
        <pt x="270" y="-13" on="0"/>
        <pt x="246" y="-13" on="1"/>
        <pt x="152" y="-13" on="0"/>
        <pt x="45" y="120" on="0"/>
        <pt x="45" y="248" on="1"/>
        <pt x="45" y="324" on="0"/>
        <pt x="94" y="426" on="0"/>
        <pt x="168" y="487" on="0"/>
        <pt x="253" y="513" on="0"/>
        <pt x="289" y="513" on="1"/>
        <pt x="307" y="513" on="0"/>
        <pt x="347" y="508" on="0"/>
        <pt x="386" y="498" on="1"/>
        <pt x="386" y="749" on="1"/>
        <pt x="466" y="758" on="1"/>
        <pt x="466" y="91" on="1"/>
        <pt x="466" y="77" on="0"/>
        <pt x="467" y="46" on="0"/>
        <pt x="470" y="16" on="0"/>
        <pt x="472" y="0" on="1"/>
        <pt x="395" y="-8" on="1"/>
      </contour>
    </TTGlyph>
    <TTGlyph name="dagger" xMin="40" yMin="0" xMax="390" yMax="758">
      <contour>
        <pt x="170" y="513" on="1"/>
        <pt x="40" y="513" on="1"/>
        <pt x="40" y="583" on="1"/>
        <pt x="170" y="583" on="1"/>
        <pt x="170" y="749" on="1"/>
        <pt x="250" y="758" on="1"/>
        <pt x="250" y="583" on="1"/>
        <pt x="390" y="583" on="1"/>
        <pt x="390" y="513" on="1"/>
        <pt x="250" y="513" on="1"/>
        <pt x="250" y="0" on="1"/>
        <pt x="170" y="0" on="1"/>
      </contour>
    </TTGlyph>
    <TTGlyph name="daggerdbl" xMin="52" yMin="0" xMax="402" yMax="758">
      <contour>
        <pt x="52" y="583" on="1"/>
        <pt x="182" y="583" on="1"/>
        <pt x="182" y="749" on="1"/>
        <pt x="262" y="758" on="1"/>
        <pt x="262" y="583" on="1"/>
        <pt x="402" y="583" on="1"/>
        <pt x="402" y="513" on="1"/>
        <pt x="262" y="513" on="1"/>
        <pt x="262" y="394" on="1"/>
        <pt x="182" y="394" on="1"/>
        <pt x="182" y="513" on="1"/>
        <pt x="52" y="513" on="1"/>
      </contour>
      <contour>
        <pt x="52" y="271" on="1"/>
        <pt x="182" y="271" on="1"/>
        <pt x="182" y="346" on="1"/>
        <pt x="262" y="346" on="1"/>
        <pt x="262" y="271" on="1"/>
        <pt x="402" y="271" on="1"/>
        <pt x="402" y="201" on="1"/>
        <pt x="262" y="201" on="1"/>
        <pt x="262" y="0" on="1"/>
        <pt x="182" y="0" on="1"/>
        <pt x="182" y="201" on="1"/>
        <pt x="52" y="201" on="1"/>
      </contour>
    </TTGlyph>
    <TTGlyph name="degree" xMin="43" yMin="491" xMax="313" yMax="758">
      <contour>
        <pt x="43" y="627" on="1"/>
        <pt x="43" y="654" on="0"/>
        <pt x="64" y="702" on="0"/>
        <pt x="101" y="737" on="0"/>
        <pt x="150" y="758" on="0"/>
        <pt x="177" y="758" on="1"/>
        <pt x="204" y="758" on="0"/>
        <pt x="253" y="737" on="0"/>
        <pt x="291" y="702" on="0"/>
        <pt x="313" y="654" on="0"/>
        <pt x="313" y="627" on="1"/>
        <pt x="313" y="600" on="0"/>
        <pt x="291" y="550" on="0"/>
        <pt x="253" y="513" on="0"/>
        <pt x="204" y="491" on="0"/>
        <pt x="177" y="491" on="1"/>
        <pt x="150" y="491" on="0"/>
        <pt x="101" y="513" on="0"/>
        <pt x="64" y="550" on="0"/>
        <pt x="43" y="600" on="0"/>
      </contour>
      <contour>
        <pt x="107" y="627" on="1"/>
        <pt x="107" y="594" on="0"/>
        <pt x="145" y="551" on="0"/>
        <pt x="177" y="551" on="1"/>
        <pt x="209" y="551" on="0"/>
        <pt x="249" y="594" on="0"/>
        <pt x="249" y="627" on="1"/>
        <pt x="249" y="659" on="0"/>
        <pt x="209" y="699" on="0"/>
        <pt x="177" y="699" on="1"/>
        <pt x="145" y="699" on="0"/>
        <pt x="107" y="659" on="0"/>
      </contour>
    </TTGlyph>
    <TTGlyph name="dieresis" xMin="100" yMin="593" xMax="382" yMax="701">
      <contour>
        <pt x="100" y="647" on="1"/>
        <pt x="100" y="670" on="0"/>
        <pt x="131" y="701" on="0"/>
        <pt x="154" y="701" on="1"/>
        <pt x="178" y="701" on="0"/>
        <pt x="211" y="670" on="0"/>
        <pt x="211" y="647" on="1"/>
        <pt x="211" y="624" on="0"/>
        <pt x="178" y="593" on="0"/>
        <pt x="154" y="593" on="1"/>
        <pt x="131" y="593" on="0"/>
        <pt x="100" y="624" on="0"/>
      </contour>
      <contour>
        <pt x="271" y="647" on="1"/>
        <pt x="271" y="670" on="0"/>
        <pt x="302" y="701" on="0"/>
        <pt x="325" y="701" on="1"/>
        <pt x="349" y="701" on="0"/>
        <pt x="382" y="670" on="0"/>
        <pt x="382" y="647" on="1"/>
        <pt x="382" y="624" on="0"/>
        <pt x="349" y="593" on="0"/>
        <pt x="325" y="593" on="1"/>
        <pt x="302" y="593" on="0"/>
        <pt x="271" y="624" on="0"/>
      </contour>
    </TTGlyph>
    <TTGlyph name="divide" xMin="56" yMin="53" xMax="496" yMax="513">
      <contour>
        <pt x="56" y="323" on="1"/>
        <pt x="496" y="323" on="1"/>
        <pt x="496" y="243" on="1"/>
        <pt x="56" y="243" on="1"/>
      </contour>
      <contour>
        <pt x="276" y="395" on="1"/>
        <pt x="251" y="395" on="0"/>
        <pt x="217" y="428" on="0"/>
        <pt x="217" y="453" on="1"/>
        <pt x="217" y="479" on="0"/>
        <pt x="251" y="513" on="0"/>
        <pt x="276" y="513" on="1"/>
        <pt x="302" y="513" on="0"/>
        <pt x="335" y="479" on="0"/>
        <pt x="335" y="453" on="1"/>
        <pt x="335" y="428" on="0"/>
        <pt x="302" y="395" on="0"/>
      </contour>
      <contour>
        <pt x="276" y="53" on="1"/>
        <pt x="251" y="53" on="0"/>
        <pt x="217" y="86" on="0"/>
        <pt x="217" y="111" on="1"/>
        <pt x="217" y="137" on="0"/>
        <pt x="251" y="171" on="0"/>
        <pt x="276" y="171" on="1"/>
        <pt x="302" y="171" on="0"/>
        <pt x="335" y="137" on="0"/>
        <pt x="335" y="111" on="1"/>
        <pt x="335" y="86" on="0"/>
        <pt x="302" y="53" on="0"/>
      </contour>
    </TTGlyph>
    <TTGlyph name="dollar" xMin="50" yMin="-101" xMax="495" yMax="782">
      <contour>
        <pt x="234" y="-13" on="1"/>
        <pt x="137" y="-13" on="0"/>
        <pt x="50" y="19" on="1"/>
        <pt x="70" y="100" on="1"/>
        <pt x="154" y="67" on="0"/>
        <pt x="231" y="67" on="1"/>
        <pt x="270" y="67" on="0"/>
        <pt x="335" y="76" on="0"/>
        <pt x="383" y="97" on="0"/>
        <pt x="410" y="133" on="0"/>
        <pt x="410" y="161" on="1"/>
        <pt x="410" y="198" on="0"/>
        <pt x="357" y="250" on="0"/>
        <pt x="279" y="294" on="0"/>
        <pt x="186" y="337" on="0"/>
        <pt x="108" y="391" on="0"/>
        <pt x="55" y="465" on="0"/>
        <pt x="55" y="519" on="1"/>
        <pt x="55" y="585" on="0"/>
        <pt x="151" y="678" on="0"/>
        <pt x="234" y="689" on="1"/>
        <pt x="234" y="782" on="1"/>
        <pt x="304" y="782" on="1"/>
        <pt x="304" y="690" on="1"/>
        <pt x="379" y="687" on="0"/>
        <pt x="452" y="671" on="1"/>
        <pt x="442" y="588" on="1"/>
        <pt x="357" y="611" on="0"/>
        <pt x="278" y="611" on="1"/>
        <pt x="204" y="611" on="0"/>
        <pt x="140" y="567" on="0"/>
        <pt x="140" y="519" on="1"/>
        <pt x="140" y="484" on="0"/>
        <pt x="193" y="433" on="0"/>
        <pt x="271" y="389" on="0"/>
        <pt x="364" y="347" on="0"/>
        <pt x="442" y="293" on="0"/>
        <pt x="495" y="222" on="0"/>
        <pt x="495" y="172" on="1"/>
        <pt x="495" y="127" on="0"/>
        <pt x="462" y="65" on="0"/>
        <pt x="408" y="24" on="0"/>
        <pt x="340" y="-1" on="0"/>
        <pt x="304" y="-8" on="1"/>
        <pt x="304" y="-101" on="1"/>
        <pt x="234" y="-101" on="1"/>
      </contour>
    </TTGlyph>
    <TTGlyph name="dotaccent" xMin="100" yMin="593" xMax="211" yMax="701">
      <contour>
        <pt x="100" y="647" on="1"/>
        <pt x="100" y="670" on="0"/>
        <pt x="131" y="701" on="0"/>
        <pt x="154" y="701" on="1"/>
        <pt x="178" y="701" on="0"/>
        <pt x="211" y="670" on="0"/>
        <pt x="211" y="647" on="1"/>
        <pt x="211" y="624" on="0"/>
        <pt x="178" y="593" on="0"/>
        <pt x="154" y="593" on="1"/>
        <pt x="131" y="593" on="0"/>
        <pt x="100" y="624" on="0"/>
      </contour>
    </TTGlyph>
    <TTGlyph name="dotlessi" xMin="72" yMin="0" xMax="152" yMax="513">
      <contour>
        <pt x="72" y="504" on="1"/>
        <pt x="152" y="513" on="1"/>
        <pt x="152" y="0" on="1"/>
        <pt x="72" y="0" on="1"/>
      </contour>
    </TTGlyph>
    <TTGlyph name="e" xMin="44" yMin="-13" xMax="469" yMax="513">
      <contour>
        <pt x="444" y="12" on="1"/>
        <pt x="421" y="5" on="0"/>
        <pt x="372" y="-5" on="0"/>
        <pt x="313" y="-13" on="0"/>
        <pt x="281" y="-13" on="1"/>
        <pt x="231" y="-13" on="0"/>
        <pt x="145" y="15" on="0"/>
        <pt x="81" y="77" on="0"/>
        <pt x="44" y="176" on="0"/>
        <pt x="44" y="248" on="1"/>
        <pt x="44" y="313" on="0"/>
        <pt x="80" y="412" on="0"/>
        <pt x="143" y="479" on="0"/>
        <pt x="228" y="513" on="0"/>
        <pt x="278" y="513" on="1"/>
        <pt x="327" y="513" on="0"/>
        <pt x="399" y="475" on="0"/>
        <pt x="446" y="410" on="0"/>
        <pt x="469" y="323" on="0"/>
        <pt x="469" y="275" on="1"/>
        <pt x="454" y="231" on="1"/>
        <pt x="131" y="231" on="1"/>
        <pt x="131" y="200" on="0"/>
        <pt x="147" y="138" on="0"/>
        <pt x="186" y="88" on="0"/>
        <pt x="249" y="57" on="0"/>
        <pt x="296" y="57" on="1"/>
        <pt x="326" y="57" on="0"/>
        <pt x="376" y="64" on="0"/>
        <pt x="413" y="73" on="0"/>
        <pt x="429" y="79" on="1"/>
      </contour>
      <contour>
        <pt x="386" y="295" on="1"/>
        <pt x="386" y="302" on="0"/>
        <pt x="380" y="350" on="0"/>
        <pt x="358" y="402" on="0"/>
        <pt x="312" y="443" on="0"/>
        <pt x="274" y="443" on="1"/>
        <pt x="232" y="443" on="0"/>
        <pt x="178" y="408" on="0"/>
        <pt x="146" y="360" on="0"/>
        <pt x="134" y="310" on="0"/>
        <pt x="134" y="295" on="1"/>
      </contour>
    </TTGlyph>
    <TTGlyph name="eacute" xMin="44" yMin="-13" xMax="469" yMax="771">
      <component glyphName="e" x="0" y="0" flags="0x204"/>
      <component glyphName="acute" x="65" y="0" flags="0x4"/>
    </TTGlyph>
    <TTGlyph name="ecircumflex" xMin="44" yMin="-13" xMax="469" yMax="770">
      <component glyphName="e" x="0" y="0" flags="0x204"/>
      <component glyphName="circumflex" x="16" y="0" flags="0x4"/>
    </TTGlyph>
    <TTGlyph name="edieresis" xMin="44" yMin="-13" xMax="469" yMax="701">
      <component glyphName="e" x="0" y="0" flags="0x204"/>
      <component glyphName="dieresis" x="26" y="0" flags="0x4"/>
    </TTGlyph>
    <TTGlyph name="egrave" xMin="44" yMin="-13" xMax="469" yMax="771">
      <component glyphName="e" x="0" y="0" flags="0x204"/>
      <component glyphName="grave" x="41" y="0" flags="0x4"/>
    </TTGlyph>
    <TTGlyph name="eight" xMin="60" yMin="-13" xMax="496" yMax="691">
      <contour>
        <pt x="273" y="-13" on="1"/>
        <pt x="229" y="-13" on="0"/>
        <pt x="152" y="6" on="0"/>
        <pt x="94" y="50" on="0"/>
        <pt x="60" y="121" on="0"/>
        <pt x="60" y="173" on="1"/>
        <pt x="60" y="210" on="0"/>
        <pt x="86" y="269" on="0"/>
        <pt x="123" y="314" on="0"/>
        <pt x="167" y="347" on="0"/>
        <pt x="185" y="359" on="1"/>
        <pt x="137" y="385" on="0"/>
        <pt x="80" y="458" on="0"/>
        <pt x="80" y="510" on="1"/>
        <pt x="80" y="556" on="0"/>
        <pt x="116" y="625" on="0"/>
        <pt x="173" y="669" on="0"/>
        <pt x="243" y="691" on="0"/>
        <pt x="278" y="691" on="1"/>
        <pt x="322" y="691" on="0"/>
        <pt x="395" y="666" on="0"/>
        <pt x="447" y="619" on="0"/>
        <pt x="476" y="552" on="0"/>
        <pt x="476" y="510" on="1"/>
        <pt x="476" y="484" on="0"/>
        <pt x="459" y="437" on="0"/>
        <pt x="432" y="395" on="0"/>
        <pt x="397" y="359" on="0"/>
        <pt x="379" y="344" on="1"/>
        <pt x="401" y="332" on="0"/>
        <pt x="443" y="304" on="0"/>
        <pt x="476" y="265" on="0"/>
        <pt x="496" y="210" on="0"/>
        <pt x="496" y="173" on="1"/>
        <pt x="496" y="120" on="0"/>
        <pt x="459" y="49" on="0"/>
        <pt x="397" y="5" on="0"/>
        <pt x="316" y="-13" on="0"/>
      </contour>
      <contour>
        <pt x="314" y="376" on="1"/>
        <pt x="327" y="388" on="0"/>
        <pt x="355" y="414" on="0"/>
        <pt x="377" y="446" on="0"/>
        <pt x="391" y="485" on="0"/>
        <pt x="391" y="510" on="1"/>
        <pt x="391" y="531" on="0"/>
        <pt x="380" y="571" on="0"/>
        <pt x="354" y="602" on="0"/>
        <pt x="310" y="621" on="0"/>
        <pt x="278" y="621" on="1"/>
        <pt x="250" y="621" on="0"/>
        <pt x="208" y="601" on="0"/>
        <pt x="179" y="570" on="0"/>
        <pt x="165" y="530" on="0"/>
        <pt x="165" y="510" on="1"/>
        <pt x="165" y="483" on="0"/>
        <pt x="188" y="444" on="0"/>
        <pt x="229" y="413" on="0"/>
        <pt x="283" y="388" on="0"/>
      </contour>
      <contour>
        <pt x="145" y="173" on="1"/>
        <pt x="145" y="122" on="0"/>
        <pt x="208" y="57" on="0"/>
        <pt x="274" y="57" on="1"/>
        <pt x="340" y="57" on="0"/>
        <pt x="411" y="121" on="0"/>
        <pt x="411" y="173" on="1"/>
        <pt x="411" y="202" on="0"/>
        <pt x="388" y="244" on="0"/>
        <pt x="346" y="277" on="0"/>
        <pt x="285" y="307" on="0"/>
        <pt x="247" y="323" on="1"/>
        <pt x="228" y="311" on="0"/>
        <pt x="193" y="283" on="0"/>
        <pt x="163" y="247" on="0"/>
        <pt x="145" y="202" on="0"/>
      </contour>
    </TTGlyph>
    <TTGlyph name="ellipsis" xMin="51" yMin="0" xMax="624" yMax="108">
      <contour>
        <pt x="51" y="54" on="1"/>
        <pt x="51" y="77" on="0"/>
        <pt x="82" y="108" on="0"/>
        <pt x="105" y="108" on="1"/>
        <pt x="129" y="108" on="0"/>
        <pt x="162" y="77" on="0"/>
        <pt x="162" y="54" on="1"/>
        <pt x="162" y="31" on="0"/>
        <pt x="129" y="0" on="0"/>
        <pt x="105" y="0" on="1"/>
        <pt x="82" y="0" on="0"/>
        <pt x="51" y="31" on="0"/>
      </contour>
      <contour>
        <pt x="282" y="54" on="1"/>
        <pt x="282" y="77" on="0"/>
        <pt x="313" y="108" on="0"/>
        <pt x="336" y="108" on="1"/>
        <pt x="360" y="108" on="0"/>
        <pt x="393" y="77" on="0"/>
        <pt x="393" y="54" on="1"/>
        <pt x="393" y="31" on="0"/>
        <pt x="360" y="0" on="0"/>
        <pt x="336" y="0" on="1"/>
        <pt x="313" y="0" on="0"/>
        <pt x="282" y="31" on="0"/>
      </contour>
      <contour>
        <pt x="513" y="54" on="1"/>
        <pt x="513" y="77" on="0"/>
        <pt x="544" y="108" on="0"/>
        <pt x="567" y="108" on="1"/>
        <pt x="591" y="108" on="0"/>
        <pt x="624" y="77" on="0"/>
        <pt x="624" y="54" on="1"/>
        <pt x="624" y="31" on="0"/>
        <pt x="591" y="0" on="0"/>
        <pt x="567" y="0" on="1"/>
        <pt x="544" y="0" on="0"/>
        <pt x="513" y="31" on="0"/>
      </contour>
    </TTGlyph>
    <TTGlyph name="emdash" xMin="63" yMin="214" xMax="733" yMax="294">
      <contour>
        <pt x="63" y="294" on="1"/>
        <pt x="733" y="294" on="1"/>
        <pt x="733" y="214" on="1"/>
        <pt x="63" y="214" on="1"/>
      </contour>
    </TTGlyph>
    <TTGlyph name="endash" xMin="63" yMin="214" xMax="503" yMax="294">
      <contour>
        <pt x="63" y="294" on="1"/>
        <pt x="503" y="294" on="1"/>
        <pt x="503" y="214" on="1"/>
        <pt x="63" y="214" on="1"/>
      </contour>
    </TTGlyph>
    <TTGlyph name="equal" xMin="69" yMin="150" xMax="509" yMax="425">
      <contour>
        <pt x="69" y="220" on="1"/>
        <pt x="509" y="220" on="1"/>
        <pt x="509" y="150" on="1"/>
        <pt x="69" y="150" on="1"/>
      </contour>
      <contour>
        <pt x="69" y="425" on="1"/>
        <pt x="509" y="425" on="1"/>
        <pt x="509" y="355" on="1"/>
        <pt x="69" y="355" on="1"/>
      </contour>
    </TTGlyph>
    <TTGlyph name="eth" xMin="32" yMin="-13" xMax="462" yMax="691">
      <contour>
        <pt x="183" y="490" on="1"/>
        <pt x="264" y="552" on="1"/>
        <pt x="246" y="573" on="0"/>
        <pt x="206" y="615" on="0"/>
        <pt x="185" y="637" on="1"/>
        <pt x="243" y="691" on="1"/>
        <pt x="266" y="666" on="0"/>
        <pt x="307" y="621" on="0"/>
        <pt x="326" y="599" on="1"/>
        <pt x="415" y="666" on="1"/>
        <pt x="451" y="619" on="1"/>
        <pt x="364" y="552" on="1"/>
        <pt x="409" y="492" on="0"/>
        <pt x="462" y="359" on="0"/>
        <pt x="462" y="268" on="1"/>
        <pt x="462" y="198" on="0"/>
        <pt x="431" y="93" on="0"/>
        <pt x="374" y="22" on="0"/>
        <pt x="294" y="-13" on="0"/>
        <pt x="245" y="-13" on="1"/>
        <pt x="190" y="-13" on="0"/>
        <pt x="110" y="16" on="0"/>
        <pt x="57" y="69" on="0"/>
        <pt x="32" y="144" on="0"/>
        <pt x="32" y="189" on="1"/>
        <pt x="32" y="245" on="0"/>
        <pt x="76" y="323" on="0"/>
        <pt x="141" y="372" on="0"/>
        <pt x="217" y="394" on="0"/>
        <pt x="249" y="394" on="1"/>
        <pt x="271" y="394" on="0"/>
        <pt x="313" y="389" on="0"/>
        <pt x="330" y="387" on="1"/>
        <pt x="349" y="383" on="0"/>
        <pt x="367" y="380" on="1"/>
        <pt x="356" y="415" on="0"/>
        <pt x="323" y="476" on="0"/>
        <pt x="302" y="505" on="1"/>
        <pt x="221" y="442" on="1"/>
      </contour>
      <contour>
        <pt x="246" y="58" on="1"/>
        <pt x="311" y="58" on="0"/>
        <pt x="374" y="154" on="0"/>
        <pt x="377" y="259" on="1"/>
        <pt x="378" y="283" on="0"/>
        <pt x="374" y="313" on="1"/>
        <pt x="311" y="324" on="0"/>
        <pt x="261" y="324" on="1"/>
        <pt x="189" y="324" on="0"/>
        <pt x="117" y="252" on="0"/>
        <pt x="117" y="187" on="1"/>
        <pt x="117" y="149" on="0"/>
        <pt x="139" y="100" on="0"/>
        <pt x="175" y="70" on="0"/>
        <pt x="222" y="58" on="0"/>
      </contour>
    </TTGlyph>
    <TTGlyph name="exclam" xMin="64" yMin="0" xMax="185" yMax="739">
      <contour>
        <pt x="73" y="728" on="1"/>
        <pt x="175" y="739" on="1"/>
        <pt x="158" y="182" on="1"/>
        <pt x="93" y="182" on="1"/>
      </contour>
      <contour>
        <pt x="64" y="59" on="1"/>
        <pt x="64" y="83" on="0"/>
        <pt x="98" y="118" on="0"/>
        <pt x="123" y="118" on="1"/>
        <pt x="149" y="118" on="0"/>
        <pt x="185" y="83" on="0"/>
        <pt x="185" y="59" on="1"/>
        <pt x="185" y="34" on="0"/>
        <pt x="149" y="0" on="0"/>
        <pt x="123" y="0" on="1"/>
        <pt x="98" y="0" on="0"/>
        <pt x="64" y="34" on="0"/>
      </contour>
    </TTGlyph>
    <TTGlyph name="exclamdown" xMin="54" yMin="-242" xMax="175" yMax="493">
      <contour>
        <pt x="83" y="315" on="1"/>
        <pt x="148" y="315" on="1"/>
        <pt x="165" y="-242" on="1"/>
        <pt x="63" y="-231" on="1"/>
      </contour>
      <contour>
        <pt x="54" y="434" on="1"/>
        <pt x="54" y="459" on="0"/>
        <pt x="88" y="493" on="0"/>
        <pt x="113" y="493" on="1"/>
        <pt x="139" y="493" on="0"/>
        <pt x="175" y="459" on="0"/>
        <pt x="175" y="434" on="1"/>
        <pt x="175" y="410" on="0"/>
        <pt x="139" y="375" on="0"/>
        <pt x="113" y="375" on="1"/>
        <pt x="88" y="375" on="0"/>
        <pt x="54" y="410" on="0"/>
      </contour>
    </TTGlyph>
    <TTGlyph name="f" xMin="22" yMin="0" xMax="413" yMax="758">
      <contour>
        <pt x="115" y="438" on="1"/>
        <pt x="22" y="438" on="1"/>
        <pt x="22" y="503" on="1"/>
        <pt x="115" y="503" on="1"/>
        <pt x="115" y="573" on="0"/>
        <pt x="134" y="670" on="0"/>
        <pt x="176" y="731" on="0"/>
        <pt x="242" y="758" on="0"/>
        <pt x="289" y="758" on="1"/>
        <pt x="327" y="758" on="0"/>
        <pt x="393" y="733" on="0"/>
        <pt x="413" y="715" on="1"/>
        <pt x="378" y="655" on="1"/>
        <pt x="358" y="670" on="0"/>
        <pt x="315" y="688" on="0"/>
        <pt x="290" y="688" on="1"/>
        <pt x="257" y="688" on="0"/>
        <pt x="219" y="659" on="0"/>
        <pt x="200" y="609" on="0"/>
        <pt x="195" y="542" on="0"/>
        <pt x="195" y="503" on="1"/>
        <pt x="320" y="503" on="1"/>
        <pt x="320" y="438" on="1"/>
        <pt x="195" y="438" on="1"/>
        <pt x="195" y="0" on="1"/>
        <pt x="115" y="0" on="1"/>
      </contour>
    </TTGlyph>
    <TTGlyph name="fi" xMin="22" yMin="0" xMax="529" yMax="758">
      <contour>
        <pt x="115" y="438" on="1"/>
        <pt x="22" y="438" on="1"/>
        <pt x="22" y="503" on="1"/>
        <pt x="114" y="503" on="1"/>
        <pt x="114" y="573" on="0"/>
        <pt x="153" y="670" on="0"/>
        <pt x="217" y="731" on="0"/>
        <pt x="298" y="758" on="0"/>
        <pt x="339" y="758" on="1"/>
        <pt x="426" y="758" on="0"/>
        <pt x="529" y="693" on="1"/>
        <pt x="493" y="633" on="1"/>
        <pt x="412" y="688" on="0"/>
        <pt x="340" y="688" on="1"/>
        <pt x="299" y="688" on="0"/>
        <pt x="244" y="659" on="0"/>
        <pt x="209" y="609" on="0"/>
        <pt x="194" y="542" on="0"/>
        <pt x="194" y="503" on="1"/>
        <pt x="335" y="503" on="1"/>
        <pt x="373" y="503" on="0"/>
        <pt x="463" y="507" on="0"/>
        <pt x="528" y="513" on="1"/>
        <pt x="528" y="0" on="1"/>
        <pt x="448" y="0" on="1"/>
        <pt x="448" y="438" on="1"/>
        <pt x="195" y="438" on="1"/>
        <pt x="195" y="0" on="1"/>
        <pt x="115" y="0" on="1"/>
      </contour>
    </TTGlyph>
    <TTGlyph name="five" xMin="27" yMin="-195" xMax="451" yMax="503">
      <contour>
        <pt x="108" y="503" on="1"/>
        <pt x="425" y="503" on="1"/>
        <pt x="425" y="433" on="1"/>
        <pt x="182" y="433" on="1"/>
        <pt x="164" y="210" on="1"/>
        <pt x="175" y="213" on="0"/>
        <pt x="199" y="218" on="0"/>
        <pt x="229" y="221" on="0"/>
        <pt x="247" y="221" on="1"/>
        <pt x="341" y="221" on="0"/>
        <pt x="451" y="121" on="0"/>
        <pt x="451" y="21" on="1"/>
        <pt x="451" y="-44" on="0"/>
        <pt x="411" y="-128" on="0"/>
        <pt x="345" y="-176" on="0"/>
        <pt x="262" y="-195" on="0"/>
        <pt x="219" y="-195" on="1"/>
        <pt x="121" y="-193" on="0"/>
        <pt x="27" y="-140" on="1"/>
        <pt x="54" y="-73" on="1"/>
        <pt x="150" y="-125" on="0"/>
        <pt x="220" y="-125" on="1"/>
        <pt x="298" y="-125" on="0"/>
        <pt x="366" y="-50" on="0"/>
        <pt x="366" y="21" on="1"/>
        <pt x="366" y="50" on="0"/>
        <pt x="352" y="98" on="0"/>
        <pt x="322" y="132" on="0"/>
        <pt x="273" y="151" on="0"/>
        <pt x="238" y="151" on="1"/>
        <pt x="214" y="151" on="0"/>
        <pt x="170" y="144" on="0"/>
        <pt x="133" y="134" on="0"/>
        <pt x="116" y="127" on="1"/>
        <pt x="77" y="133" on="1"/>
      </contour>
    </TTGlyph>
    <TTGlyph name="fl" xMin="22" yMin="0" xMax="528" yMax="768">
      <contour>
        <pt x="115" y="438" on="1"/>
        <pt x="22" y="438" on="1"/>
        <pt x="22" y="503" on="1"/>
        <pt x="114" y="503" on="1"/>
        <pt x="114" y="642" on="0"/>
        <pt x="240" y="768" on="0"/>
        <pt x="349" y="768" on="1"/>
        <pt x="433" y="768" on="0"/>
        <pt x="528" y="738" on="1"/>
        <pt x="528" y="0" on="1"/>
        <pt x="448" y="0" on="1"/>
        <pt x="448" y="683" on="1"/>
        <pt x="402" y="698" on="0"/>
        <pt x="350" y="698" on="1"/>
        <pt x="299" y="698" on="0"/>
        <pt x="237" y="666" on="0"/>
        <pt x="205" y="612" on="0"/>
        <pt x="194" y="542" on="0"/>
        <pt x="194" y="503" on="1"/>
        <pt x="320" y="503" on="1"/>
        <pt x="320" y="438" on="1"/>
        <pt x="195" y="438" on="1"/>
        <pt x="195" y="0" on="1"/>
        <pt x="115" y="0" on="1"/>
      </contour>
    </TTGlyph>
    <TTGlyph name="four" xMin="16" yMin="-195" xMax="538" yMax="503">
      <contour>
        <pt x="118" y="66" on="1"/>
        <pt x="153" y="67" on="0"/>
        <pt x="189" y="68" on="1"/>
        <pt x="220" y="69" on="0"/>
        <pt x="292" y="70" on="0"/>
        <pt x="326" y="70" on="1"/>
        <pt x="388" y="70" on="1"/>
        <pt x="388" y="175" on="1"/>
        <pt x="388" y="229" on="0"/>
        <pt x="389" y="313" on="0"/>
        <pt x="390" y="342" on="1"/>
        <pt x="391" y="376" on="0"/>
        <pt x="393" y="402" on="1"/>
      </contour>
      <contour>
        <pt x="16" y="54" on="1"/>
        <pt x="388" y="503" on="1"/>
        <pt x="468" y="503" on="1"/>
        <pt x="468" y="70" on="1"/>
        <pt x="538" y="70" on="1"/>
        <pt x="538" y="0" on="1"/>
        <pt x="468" y="0" on="1"/>
        <pt x="468" y="-195" on="1"/>
        <pt x="388" y="-195" on="1"/>
        <pt x="388" y="0" on="1"/>
        <pt x="21" y="0" on="1"/>
      </contour>
    </TTGlyph>
    <TTGlyph name="fourinferior" xMin="29" yMin="0" xMax="328" yMax="367">
      <contour>
        <pt x="102" y="138" on="1"/>
        <pt x="163" y="140" on="0"/>
        <pt x="191" y="140" on="1"/>
        <pt x="224" y="140" on="1"/>
        <pt x="224" y="195" on="1"/>
        <pt x="224" y="251" on="0"/>
        <pt x="227" y="294" on="1"/>
      </contour>
      <contour>
        <pt x="29" y="131" on="1"/>
        <pt x="224" y="367" on="1"/>
        <pt x="291" y="367" on="1"/>
        <pt x="291" y="140" on="1"/>
        <pt x="328" y="140" on="1"/>
        <pt x="328" y="83" on="1"/>
        <pt x="291" y="83" on="1"/>
        <pt x="291" y="0" on="1"/>
        <pt x="224" y="0" on="1"/>
        <pt x="224" y="83" on="1"/>
        <pt x="29" y="83" on="1"/>
      </contour>
    </TTGlyph>
    <TTGlyph name="fraction" xMin="2" yMin="-75" xMax="354" yMax="757">
      <contour>
        <pt x="298" y="757" on="1"/>
        <pt x="354" y="737" on="1"/>
        <pt x="58" y="-75" on="1"/>
        <pt x="2" y="-55" on="1"/>
      </contour>
    </TTGlyph>
    <TTGlyph name="g" xMin="45" yMin="-243" xMax="466" yMax="513">
      <contour>
        <pt x="466" y="-48" on="1"/>
        <pt x="466" y="-85" on="0"/>
        <pt x="450" y="-155" on="0"/>
        <pt x="405" y="-210" on="0"/>
        <pt x="324" y="-243" on="0"/>
        <pt x="258" y="-243" on="1"/>
        <pt x="216" y="-242" on="0"/>
        <pt x="154" y="-234" on="0"/>
        <pt x="98" y="-219" on="0"/>
        <pt x="75" y="-209" on="1"/>
        <pt x="96" y="-139" on="1"/>
        <pt x="135" y="-156" on="0"/>
        <pt x="216" y="-174" on="0"/>
        <pt x="248" y="-174" on="1"/>
        <pt x="283" y="-174" on="0"/>
        <pt x="335" y="-160" on="0"/>
        <pt x="370" y="-127" on="0"/>
        <pt x="387" y="-73" on="0"/>
        <pt x="387" y="-33" on="1"/>
        <pt x="387" y="40" on="1"/>
        <pt x="366" y="26" on="0"/>
        <pt x="321" y="3" on="0"/>
        <pt x="270" y="-13" on="0"/>
        <pt x="246" y="-13" on="1"/>
        <pt x="153" y="-13" on="0"/>
        <pt x="45" y="118" on="0"/>
        <pt x="45" y="248" on="1"/>
        <pt x="45" y="323" on="0"/>
        <pt x="92" y="424" on="0"/>
        <pt x="164" y="486" on="0"/>
        <pt x="250" y="513" on="0"/>
        <pt x="289" y="513" on="1"/>
        <pt x="340" y="513" on="0"/>
        <pt x="425" y="496" on="0"/>
        <pt x="466" y="491" on="1"/>
      </contour>
      <contour>
        <pt x="255" y="57" on="1"/>
        <pt x="277" y="57" on="0"/>
        <pt x="323" y="73" on="0"/>
        <pt x="366" y="95" on="0"/>
        <pt x="387" y="110" on="1"/>
        <pt x="387" y="429" on="1"/>
        <pt x="375" y="432" on="0"/>
        <pt x="359" y="436" on="1"/>
        <pt x="345" y="438" on="0"/>
        <pt x="309" y="443" on="0"/>
        <pt x="289" y="443" on="1"/>
        <pt x="247" y="443" on="0"/>
        <pt x="187" y="413" on="0"/>
        <pt x="148" y="361" on="0"/>
        <pt x="130" y="291" on="0"/>
        <pt x="130" y="252" on="1"/>
        <pt x="130" y="217" on="0"/>
        <pt x="145" y="147" on="0"/>
        <pt x="177" y="91" on="0"/>
        <pt x="223" y="57" on="0"/>
      </contour>
    </TTGlyph>
    <TTGlyph name="germandbls" xMin="72" yMin="-13" xMax="574" yMax="759">
      <contour>
        <pt x="72" y="442" on="1"/>
        <pt x="72" y="521" on="0"/>
        <pt x="91" y="640" on="0"/>
        <pt x="141" y="720" on="0"/>
        <pt x="227" y="759" on="0"/>
        <pt x="294" y="759" on="1"/>
        <pt x="329" y="759" on="0"/>
        <pt x="401" y="742" on="0"/>
        <pt x="459" y="701" on="0"/>
        <pt x="496" y="636" on="0"/>
        <pt x="496" y="588" on="1"/>
        <pt x="496" y="544" on="0"/>
        <pt x="471" y="488" on="0"/>
        <pt x="432" y="453" on="0"/>
        <pt x="387" y="431" on="0"/>
        <pt x="349" y="413" on="0"/>
        <pt x="323" y="390" on="0"/>
        <pt x="323" y="371" on="1"/>
        <pt x="323" y="355" on="0"/>
        <pt x="360" y="327" on="0"/>
        <pt x="417" y="298" on="0"/>
        <pt x="481" y="265" on="0"/>
        <pt x="537" y="222" on="0"/>
        <pt x="574" y="167" on="0"/>
        <pt x="574" y="130" on="1"/>
        <pt x="574" y="88" on="0"/>
        <pt x="538" y="33" on="0"/>
        <pt x="481" y="0" on="0"/>
        <pt x="414" y="-13" on="0"/>
        <pt x="382" y="-13" on="1"/>
        <pt x="353" y="-13" on="0"/>
        <pt x="274" y="-3" on="0"/>
        <pt x="233" y="9" on="1"/>
        <pt x="249" y="82" on="1"/>
        <pt x="295" y="67" on="0"/>
        <pt x="357" y="58" on="0"/>
        <pt x="383" y="58" on="1"/>
        <pt x="401" y="58" on="0"/>
        <pt x="439" y="64" on="0"/>
        <pt x="469" y="79" on="0"/>
        <pt x="489" y="106" on="0"/>
        <pt x="489" y="127" on="1"/>
        <pt x="488" y="150" on="0"/>
        <pt x="452" y="185" on="0"/>
        <pt x="396" y="216" on="0"/>
        <pt x="332" y="248" on="0"/>
        <pt x="275" y="288" on="0"/>
        <pt x="238" y="338" on="0"/>
        <pt x="238" y="373" on="1"/>
        <pt x="238" y="404" on="0"/>
        <pt x="266" y="442" on="0"/>
        <pt x="307" y="468" on="0"/>
        <pt x="355" y="487" on="0"/>
        <pt x="397" y="512" on="0"/>
        <pt x="424" y="549" on="0"/>
        <pt x="424" y="579" on="1"/>
        <pt x="424" y="610" on="0"/>
        <pt x="397" y="652" on="0"/>
        <pt x="356" y="676" on="0"/>
        <pt x="308" y="686" on="0"/>
        <pt x="287" y="686" on="1"/>
        <pt x="238" y="686" on="0"/>
        <pt x="183" y="648" on="0"/>
        <pt x="158" y="578" on="0"/>
        <pt x="152" y="475" on="0"/>
        <pt x="152" y="411" on="1"/>
        <pt x="152" y="0" on="1"/>
        <pt x="72" y="0" on="1"/>
      </contour>
    </TTGlyph>
    <TTGlyph name="grave" xMin="100" yMin="601" xMax="324" yMax="771">
      <contour>
        <pt x="100" y="710" on="1"/>
        <pt x="152" y="771" on="1"/>
        <pt x="324" y="646" on="1"/>
        <pt x="290" y="601" on="1"/>
      </contour>
    </TTGlyph>
    <TTGlyph name="greater" xMin="67" yMin="84" xMax="440" yMax="506">
      <contour>
        <pt x="67" y="170" on="1"/>
        <pt x="326" y="305" on="1"/>
        <pt x="67" y="430" on="1"/>
        <pt x="67" y="506" on="1"/>
        <pt x="440" y="331" on="1"/>
        <pt x="440" y="290" on="1"/>
        <pt x="67" y="84" on="1"/>
      </contour>
    </TTGlyph>
    <TTGlyph name="greaterequal" xMin="62" yMin="0" xMax="405" yMax="560">
      <contour>
        <pt x="62" y="198" on="1"/>
        <pt x="287" y="342" on="1"/>
        <pt x="62" y="476" on="1"/>
        <pt x="62" y="560" on="1"/>
        <pt x="405" y="362" on="1"/>
        <pt x="405" y="315" on="1"/>
        <pt x="62" y="111" on="1"/>
      </contour>
      <contour>
        <pt x="62" y="70" on="1"/>
        <pt x="405" y="70" on="1"/>
        <pt x="405" y="0" on="1"/>
        <pt x="62" y="0" on="1"/>
      </contour>
    </TTGlyph>
    <TTGlyph name="guillemotleft" xMin="39" yMin="28" xMax="495" yMax="482">
      <component glyphName="guilsinglleft" x="0" y="0" flags="0x4"/>
      <component glyphName="guilsinglleft" x="212" y="0" flags="0x4"/>
    </TTGlyph>
    <TTGlyph name="guillemotright" xMin="44" yMin="28" xMax="500" yMax="482">
      <component glyphName="guilsinglright" x="212" y="0" flags="0x4"/>
      <component glyphName="guilsinglright" x="0" y="0" flags="0x4"/>
    </TTGlyph>
    <TTGlyph name="guilsinglleft" xMin="39" yMin="28" xMax="283" yMax="482">
      <contour>
        <pt x="283" y="73" on="1"/>
        <pt x="230" y="28" on="1"/>
        <pt x="39" y="255" on="1"/>
        <pt x="230" y="482" on="1"/>
        <pt x="283" y="437" on="1"/>
        <pt x="131" y="255" on="1"/>
      </contour>
    </TTGlyph>
    <TTGlyph name="guilsinglright" xMin="44" yMin="28" xMax="288" yMax="482">
      <contour>
        <pt x="196" y="255" on="1"/>
        <pt x="44" y="437" on="1"/>
        <pt x="97" y="482" on="1"/>
        <pt x="288" y="255" on="1"/>
        <pt x="97" y="28" on="1"/>
        <pt x="44" y="73" on="1"/>
      </contour>
    </TTGlyph>
    <TTGlyph name="h" xMin="72" yMin="0" xMax="477" yMax="758">
      <contour>
        <pt x="72" y="749" on="1"/>
        <pt x="152" y="758" on="1"/>
        <pt x="152" y="440" on="1"/>
        <pt x="182" y="460" on="0"/>
        <pt x="241" y="490" on="0"/>
        <pt x="303" y="513" on="0"/>
        <pt x="332" y="513" on="1"/>
        <pt x="373" y="513" on="0"/>
        <pt x="428" y="494" on="0"/>
        <pt x="462" y="450" on="0"/>
        <pt x="477" y="378" on="0"/>
        <pt x="477" y="324" on="1"/>
        <pt x="477" y="0" on="1"/>
        <pt x="397" y="0" on="1"/>
        <pt x="397" y="315" on="1"/>
        <pt x="397" y="345" on="0"/>
        <pt x="395" y="392" on="0"/>
        <pt x="380" y="425" on="0"/>
        <pt x="349" y="443" on="0"/>
        <pt x="321" y="443" on="1"/>
        <pt x="295" y="443" on="0"/>
        <pt x="235" y="420" on="0"/>
        <pt x="181" y="390" on="0"/>
        <pt x="152" y="370" on="1"/>
        <pt x="152" y="0" on="1"/>
        <pt x="72" y="0" on="1"/>
      </contour>
    </TTGlyph>
    <TTGlyph name="hungarumlaut" xMin="100" yMin="591" xMax="435" yMax="758">
      <contour>
        <pt x="180" y="758" on="1"/>
        <pt x="275" y="758" on="1"/>
        <pt x="186" y="591" on="1"/>
        <pt x="100" y="591" on="1"/>
      </contour>
      <contour>
        <pt x="340" y="758" on="1"/>
        <pt x="435" y="758" on="1"/>
        <pt x="350" y="591" on="1"/>
        <pt x="260" y="591" on="1"/>
      </contour>
    </TTGlyph>
    <TTGlyph name="hyphen" xMin="62" yMin="220" xMax="329" yMax="294">
      <contour>
        <pt x="62" y="294" on="1"/>
        <pt x="329" y="294" on="1"/>
        <pt x="329" y="220" on="1"/>
        <pt x="62" y="220" on="1"/>
      </contour>
    </TTGlyph>
    <TTGlyph name="i" xMin="59" yMin="0" xMax="170" yMax="701">
      <contour>
        <pt x="72" y="504" on="1"/>
        <pt x="152" y="513" on="1"/>
        <pt x="152" y="0" on="1"/>
        <pt x="72" y="0" on="1"/>
      </contour>
      <contour>
        <pt x="59" y="647" on="1"/>
        <pt x="59" y="670" on="0"/>
        <pt x="90" y="701" on="0"/>
        <pt x="113" y="701" on="1"/>
        <pt x="137" y="701" on="0"/>
        <pt x="170" y="670" on="0"/>
        <pt x="170" y="647" on="1"/>
        <pt x="170" y="624" on="0"/>
        <pt x="137" y="593" on="0"/>
        <pt x="113" y="593" on="1"/>
        <pt x="90" y="593" on="0"/>
        <pt x="59" y="624" on="0"/>
      </contour>
    </TTGlyph>
    <TTGlyph name="iacute" xMin="40" yMin="0" xMax="264" yMax="771">
      <component glyphName="dotlessi" x="0" y="0" flags="0x204"/>
      <component glyphName="acute" x="-60" y="0" flags="0x4"/>
    </TTGlyph>
    <TTGlyph name="icircumflex" xMin="-43" yMin="0" xMax="267" yMax="770">
      <component glyphName="dotlessi" x="0" y="0" flags="0x204"/>
      <component glyphName="circumflex" x="-143" y="0" flags="0x4"/>
    </TTGlyph>
    <TTGlyph name="idieresis" xMin="-29" yMin="0" xMax="253" yMax="701">
      <component glyphName="dotlessi" x="0" y="0" flags="0x204"/>
      <component glyphName="dieresis" x="-129" y="0" flags="0x4"/>
    </TTGlyph>
    <TTGlyph name="igrave" xMin="-40" yMin="0" xMax="184" yMax="771">
      <component glyphName="dotlessi" x="0" y="0" flags="0x204"/>
      <component glyphName="grave" x="-140" y="0" flags="0x4"/>
    </TTGlyph>
    <TTGlyph name="infinity" xMin="58" yMin="141" xMax="753" yMax="537">
      <contour>
        <pt x="420" y="439" on="1"/>
        <pt x="430" y="457" on="0"/>
        <pt x="462" y="492" on="0"/>
        <pt x="501" y="520" on="0"/>
        <pt x="547" y="537" on="0"/>
        <pt x="572" y="537" on="1"/>
        <pt x="618" y="537" on="0"/>
        <pt x="687" y="501" on="0"/>
        <pt x="731" y="444" on="0"/>
        <pt x="753" y="374" on="0"/>
        <pt x="753" y="339" on="1"/>
        <pt x="753" y="295" on="0"/>
        <pt x="728" y="222" on="0"/>
        <pt x="681" y="170" on="0"/>
        <pt x="614" y="141" on="0"/>
        <pt x="572" y="141" on="1"/>
        <pt x="546" y="141" on="0"/>
        <pt x="495" y="158" on="0"/>
        <pt x="450" y="185" on="0"/>
        <pt x="411" y="220" on="0"/>
        <pt x="396" y="238" on="1"/>
        <pt x="370" y="194" on="0"/>
        <pt x="289" y="141" on="0"/>
        <pt x="239" y="141" on="1"/>
        <pt x="192" y="141" on="0"/>
        <pt x="124" y="177" on="0"/>
        <pt x="80" y="234" on="0"/>
        <pt x="58" y="304" on="0"/>
        <pt x="58" y="339" on="1"/>
        <pt x="58" y="383" on="0"/>
        <pt x="83" y="456" on="0"/>
        <pt x="130" y="508" on="0"/>
        <pt x="197" y="537" on="0"/>
        <pt x="239" y="537" on="1"/>
        <pt x="265" y="537" on="0"/>
        <pt x="317" y="520" on="0"/>
        <pt x="364" y="493" on="0"/>
        <pt x="405" y="457" on="0"/>
      </contour>
      <contour>
        <pt x="385" y="368" on="1"/>
        <pt x="373" y="383" on="0"/>
        <pt x="343" y="413" on="0"/>
        <pt x="307" y="437" on="0"/>
        <pt x="264" y="452" on="0"/>
        <pt x="239" y="452" on="1"/>
        <pt x="218" y="452" on="0"/>
        <pt x="178" y="441" on="0"/>
        <pt x="147" y="415" on="0"/>
        <pt x="128" y="371" on="0"/>
        <pt x="128" y="339" on="1"/>
        <pt x="128" y="311" on="0"/>
        <pt x="147" y="269" on="0"/>
        <pt x="179" y="240" on="0"/>
        <pt x="219" y="226" on="0"/>
        <pt x="239" y="226" on="1"/>
        <pt x="266" y="226" on="0"/>
        <pt x="309" y="247" on="0"/>
        <pt x="344" y="285" on="0"/>
        <pt x="373" y="337" on="0"/>
      </contour>
      <contour>
        <pt x="433" y="309" on="1"/>
        <pt x="443" y="293" on="0"/>
        <pt x="471" y="263" on="0"/>
        <pt x="505" y="240" on="0"/>
        <pt x="547" y="226" on="0"/>
        <pt x="572" y="226" on="1"/>
        <pt x="593" y="226" on="0"/>
        <pt x="633" y="237" on="0"/>
        <pt x="664" y="263" on="0"/>
        <pt x="683" y="307" on="0"/>
        <pt x="683" y="339" on="1"/>
        <pt x="683" y="367" on="0"/>
        <pt x="663" y="409" on="0"/>
        <pt x="632" y="438" on="0"/>
        <pt x="592" y="452" on="0"/>
        <pt x="572" y="452" on="1"/>
        <pt x="545" y="452" on="0"/>
        <pt x="505" y="431" on="0"/>
        <pt x="472" y="393" on="0"/>
        <pt x="445" y="340" on="0"/>
      </contour>
    </TTGlyph>
    <TTGlyph name="j" xMin="-25" yMin="-238" xMax="167" yMax="701">
      <contour>
        <pt x="152" y="514" on="1"/>
        <pt x="152" y="9" on="1"/>
        <pt x="152" y="-81" on="0"/>
        <pt x="86" y="-198" on="0"/>
        <pt x="16" y="-238" on="1"/>
        <pt x="-25" y="-167" on="1"/>
        <pt x="5" y="-149" on="0"/>
        <pt x="43" y="-106" on="0"/>
        <pt x="64" y="-57" on="0"/>
        <pt x="72" y="-6" on="0"/>
        <pt x="72" y="20" on="1"/>
        <pt x="72" y="502" on="1"/>
      </contour>
      <contour>
        <pt x="56" y="647" on="1"/>
        <pt x="56" y="670" on="0"/>
        <pt x="87" y="701" on="0"/>
        <pt x="110" y="701" on="1"/>
        <pt x="134" y="701" on="0"/>
        <pt x="167" y="670" on="0"/>
        <pt x="167" y="647" on="1"/>
        <pt x="167" y="624" on="0"/>
        <pt x="134" y="593" on="0"/>
        <pt x="110" y="593" on="1"/>
        <pt x="87" y="593" on="0"/>
        <pt x="56" y="624" on="0"/>
      </contour>
    </TTGlyph>
    <TTGlyph name="k" xMin="72" yMin="0" xMax="493" yMax="758">
      <contour>
        <pt x="72" y="749" on="1"/>
        <pt x="152" y="758" on="1"/>
        <pt x="152" y="307" on="1"/>
        <pt x="375" y="503" on="1"/>
        <pt x="485" y="503" on="1"/>
        <pt x="267" y="312" on="1"/>
        <pt x="493" y="0" on="1"/>
        <pt x="392" y="0" on="1"/>
        <pt x="208" y="261" on="1"/>
        <pt x="152" y="212" on="1"/>
        <pt x="152" y="0" on="1"/>
        <pt x="72" y="0" on="1"/>
      </contour>
    </TTGlyph>
    <TTGlyph name="l" xMin="72" yMin="0" xMax="152" yMax="758">
      <contour>
        <pt x="72" y="749" on="1"/>
        <pt x="152" y="758" on="1"/>
        <pt x="152" y="0" on="1"/>
        <pt x="72" y="0" on="1"/>
      </contour>
    </TTGlyph>
    <TTGlyph name="less" xMin="41" yMin="84" xMax="414" yMax="506">
      <contour>
        <pt x="41" y="290" on="1"/>
        <pt x="41" y="331" on="1"/>
        <pt x="414" y="506" on="1"/>
        <pt x="414" y="430" on="1"/>
        <pt x="155" y="305" on="1"/>
        <pt x="414" y="170" on="1"/>
        <pt x="414" y="84" on="1"/>
      </contour>
    </TTGlyph>
    <TTGlyph name="lessequal" xMin="52" yMin="0" xMax="395" yMax="560">
      <contour>
        <pt x="52" y="362" on="1"/>
        <pt x="395" y="560" on="1"/>
        <pt x="395" y="476" on="1"/>
        <pt x="170" y="342" on="1"/>
        <pt x="395" y="198" on="1"/>
        <pt x="395" y="111" on="1"/>
        <pt x="52" y="315" on="1"/>
      </contour>
      <contour>
        <pt x="52" y="70" on="1"/>
        <pt x="395" y="70" on="1"/>
        <pt x="395" y="0" on="1"/>
        <pt x="52" y="0" on="1"/>
      </contour>
    </TTGlyph>
    <TTGlyph name="logicalnot" xMin="69" yMin="74" xMax="509" yMax="294">
      <contour>
        <pt x="69" y="294" on="1"/>
        <pt x="509" y="294" on="1"/>
        <pt x="509" y="74" on="1"/>
        <pt x="435" y="74" on="1"/>
        <pt x="435" y="220" on="1"/>
        <pt x="69" y="220" on="1"/>
      </contour>
    </TTGlyph>
    <TTGlyph name="lslash" xMin="5" yMin="0" xMax="435" yMax="758">
      <contour>
        <pt x="5" y="326" on="1"/>
        <pt x="174" y="404" on="1"/>
        <pt x="174" y="749" on="1"/>
        <pt x="254" y="758" on="1"/>
        <pt x="254" y="441" on="1"/>
        <pt x="404" y="511" on="1"/>
        <pt x="435" y="442" on="1"/>
        <pt x="254" y="358" on="1"/>
        <pt x="254" y="0" on="1"/>
        <pt x="174" y="0" on="1"/>
        <pt x="174" y="321" on="1"/>
        <pt x="36" y="257" on="1"/>
      </contour>
    </TTGlyph>
    <TTGlyph name="m" xMin="67" yMin="0" xMax="758" yMax="513">
      <contour>
        <pt x="73" y="412" on="1"/>
        <pt x="73" y="446" on="0"/>
        <pt x="67" y="494" on="1"/>
        <pt x="142" y="504" on="1"/>
        <pt x="153" y="441" on="1"/>
        <pt x="180" y="461" on="0"/>
        <pt x="232" y="491" on="0"/>
        <pt x="292" y="513" on="0"/>
        <pt x="323" y="513" on="1"/>
        <pt x="373" y="513" on="0"/>
        <pt x="431" y="478" on="0"/>
        <pt x="445" y="436" on="1"/>
        <pt x="486" y="465" on="0"/>
        <pt x="575" y="513" on="0"/>
        <pt x="623" y="513" on="1"/>
        <pt x="660" y="513" on="0"/>
        <pt x="712" y="494" on="0"/>
        <pt x="744" y="450" on="0"/>
        <pt x="758" y="378" on="0"/>
        <pt x="758" y="324" on="1"/>
        <pt x="758" y="0" on="1"/>
        <pt x="678" y="0" on="1"/>
        <pt x="678" y="315" on="1"/>
        <pt x="678" y="345" on="0"/>
        <pt x="676" y="392" on="0"/>
        <pt x="664" y="425" on="0"/>
        <pt x="637" y="443" on="0"/>
        <pt x="612" y="443" on="1"/>
        <pt x="589" y="443" on="0"/>
        <pt x="548" y="430" on="0"/>
        <pt x="504" y="406" on="0"/>
        <pt x="458" y="369" on="1"/>
        <pt x="458" y="0" on="1"/>
        <pt x="378" y="0" on="1"/>
        <pt x="378" y="315" on="1"/>
        <pt x="378" y="345" on="0"/>
        <pt x="376" y="392" on="0"/>
        <pt x="364" y="425" on="0"/>
        <pt x="337" y="443" on="0"/>
        <pt x="312" y="443" on="1"/>
        <pt x="286" y="443" on="0"/>
        <pt x="230" y="421" on="0"/>
        <pt x="180" y="391" on="0"/>
        <pt x="153" y="371" on="1"/>
        <pt x="153" y="0" on="1"/>
        <pt x="73" y="0" on="1"/>
      </contour>
    </TTGlyph>
    <TTGlyph name="macron" xMin="100" yMin="592" xMax="506" yMax="662">
      <contour>
        <pt x="100" y="662" on="1"/>
        <pt x="506" y="662" on="1"/>
        <pt x="506" y="592" on="1"/>
        <pt x="100" y="592" on="1"/>
      </contour>
    </TTGlyph>
    <TTGlyph name="minus" xMin="69" yMin="247" xMax="356" yMax="327">
      <contour>
        <pt x="69" y="327" on="1"/>
        <pt x="356" y="327" on="1"/>
        <pt x="356" y="247" on="1"/>
        <pt x="69" y="247" on="1"/>
      </contour>
    </TTGlyph>
    <TTGlyph name="mu" xMin="76" yMin="-227" xMax="465" yMax="503">
      <contour>
        <pt x="76" y="503" on="1"/>
        <pt x="156" y="503" on="1"/>
        <pt x="156" y="188" on="1"/>
        <pt x="156" y="158" on="0"/>
        <pt x="158" y="110" on="0"/>
        <pt x="170" y="76" on="0"/>
        <pt x="197" y="57" on="0"/>
        <pt x="222" y="57" on="1"/>
        <pt x="248" y="57" on="0"/>
        <pt x="304" y="79" on="0"/>
        <pt x="327" y="93" on="1"/>
        <pt x="354" y="109" on="0"/>
        <pt x="380" y="129" on="1"/>
        <pt x="380" y="503" on="1"/>
        <pt x="460" y="503" on="1"/>
        <pt x="460" y="65" on="1"/>
        <pt x="460" y="37" on="0"/>
        <pt x="465" y="0" on="1"/>
        <pt x="386" y="-8" on="1"/>
        <pt x="380" y="55" on="1"/>
        <pt x="378" y="55" on="1"/>
        <pt x="369" y="48" on="0"/>
        <pt x="335" y="25" on="0"/>
        <pt x="291" y="3" on="0"/>
        <pt x="238" y="-13" on="0"/>
        <pt x="211" y="-13" on="1"/>
        <pt x="188" y="-13" on="0"/>
        <pt x="167" y="-6" on="0"/>
        <pt x="156" y="0" on="1"/>
        <pt x="156" y="-227" on="1"/>
        <pt x="76" y="-227" on="1"/>
      </contour>
    </TTGlyph>
    <TTGlyph name="multiply" xMin="47" yMin="17" xMax="515" yMax="486">
      <contour>
        <pt x="238" y="251" on="1"/>
        <pt x="47" y="443" on="1"/>
        <pt x="89" y="486" on="1"/>
        <pt x="281" y="294" on="1"/>
        <pt x="473" y="486" on="1"/>
        <pt x="515" y="443" on="1"/>
        <pt x="323" y="251" on="1"/>
        <pt x="515" y="60" on="1"/>
        <pt x="473" y="17" on="1"/>
        <pt x="281" y="209" on="1"/>
        <pt x="89" y="17" on="1"/>
        <pt x="47" y="60" on="1"/>
      </contour>
    </TTGlyph>
    <TTGlyph name="n" xMin="68" yMin="0" xMax="478" yMax="513">
      <contour>
        <pt x="73" y="403" on="1"/>
        <pt x="74" y="424" on="0"/>
        <pt x="68" y="494" on="1"/>
        <pt x="142" y="504" on="1"/>
        <pt x="153" y="440" on="1"/>
        <pt x="183" y="460" on="0"/>
        <pt x="242" y="490" on="0"/>
        <pt x="304" y="513" on="0"/>
        <pt x="333" y="513" on="1"/>
        <pt x="374" y="513" on="0"/>
        <pt x="429" y="494" on="0"/>
        <pt x="463" y="450" on="0"/>
        <pt x="478" y="378" on="0"/>
        <pt x="478" y="324" on="1"/>
        <pt x="478" y="0" on="1"/>
        <pt x="398" y="0" on="1"/>
        <pt x="398" y="315" on="1"/>
        <pt x="398" y="345" on="0"/>
        <pt x="396" y="392" on="0"/>
        <pt x="381" y="425" on="0"/>
        <pt x="350" y="443" on="0"/>
        <pt x="322" y="443" on="1"/>
        <pt x="296" y="443" on="0"/>
        <pt x="238" y="420" on="0"/>
        <pt x="182" y="390" on="0"/>
        <pt x="153" y="370" on="1"/>
        <pt x="153" y="0" on="1"/>
        <pt x="73" y="0" on="1"/>
      </contour>
    </TTGlyph>
    <TTGlyph name="nine" xMin="40" yMin="-205" xMax="470" yMax="513">
      <contour>
        <pt x="62" y="-133" on="1"/>
        <pt x="196" y="-88" on="0"/>
        <pt x="345" y="41" on="0"/>
        <pt x="371" y="109" on="1"/>
        <pt x="354" y="107" on="0"/>
        <pt x="336" y="105" on="1"/>
        <pt x="320" y="103" on="0"/>
        <pt x="279" y="101" on="0"/>
        <pt x="257" y="101" on="1"/>
        <pt x="218" y="101" on="0"/>
        <pt x="140" y="123" on="0"/>
        <pt x="79" y="172" on="0"/>
        <pt x="40" y="250" on="0"/>
        <pt x="40" y="306" on="1"/>
        <pt x="40" y="402" on="0"/>
        <pt x="158" y="512" on="0"/>
        <pt x="261" y="513" on="1"/>
        <pt x="310" y="513" on="0"/>
        <pt x="387" y="480" on="0"/>
        <pt x="441" y="410" on="0"/>
        <pt x="470" y="302" on="0"/>
        <pt x="470" y="227" on="1"/>
        <pt x="470" y="157" on="0"/>
        <pt x="434" y="44" on="0"/>
        <pt x="373" y="-45" on="0"/>
        <pt x="294" y="-111" on="0"/>
        <pt x="209" y="-160" on="0"/>
        <pt x="123" y="-194" on="0"/>
        <pt x="86" y="-205" on="1"/>
      </contour>
      <contour>
        <pt x="254" y="443" on="1"/>
        <pt x="230" y="443" on="0"/>
        <pt x="183" y="428" on="0"/>
        <pt x="147" y="397" on="0"/>
        <pt x="125" y="345" on="0"/>
        <pt x="125" y="308" on="1"/>
        <pt x="125" y="243" on="0"/>
        <pt x="197" y="171" on="0"/>
        <pt x="269" y="171" on="1"/>
        <pt x="292" y="171" on="0"/>
        <pt x="332" y="173" on="0"/>
        <pt x="348" y="175" on="1"/>
        <pt x="366" y="177" on="0"/>
        <pt x="382" y="180" on="1"/>
        <pt x="383" y="185" on="0"/>
        <pt x="384" y="193" on="1"/>
        <pt x="385" y="200" on="0"/>
        <pt x="385" y="221" on="0"/>
        <pt x="385" y="236" on="1"/>
        <pt x="381" y="443" on="0"/>
      </contour>
    </TTGlyph>
    <TTGlyph name="notequal" xMin="55" yMin="23" xMax="535" yMax="560">
      <contour>
        <pt x="427" y="536" on="1"/>
        <pt x="387" y="425" on="1"/>
        <pt x="535" y="425" on="1"/>
        <pt x="535" y="355" on="1"/>
        <pt x="361" y="355" on="1"/>
        <pt x="312" y="220" on="1"/>
        <pt x="535" y="220" on="1"/>
        <pt x="535" y="150" on="1"/>
        <pt x="287" y="150" on="1"/>
        <pt x="241" y="23" on="1"/>
        <pt x="175" y="47" on="1"/>
        <pt x="212" y="150" on="1"/>
        <pt x="55" y="150" on="1"/>
        <pt x="55" y="220" on="1"/>
        <pt x="238" y="220" on="1"/>
        <pt x="287" y="355" on="1"/>
        <pt x="55" y="355" on="1"/>
        <pt x="55" y="425" on="1"/>
        <pt x="312" y="425" on="1"/>
        <pt x="361" y="560" on="1"/>
      </contour>
    </TTGlyph>
    <TTGlyph name="ntilde" xMin="68" yMin="0" xMax="478" yMax="696">
      <component glyphName="n" x="0" y="0" flags="0x204"/>
      <component glyphName="tilde" x="5" y="-9" flags="0x4"/>
    </TTGlyph>
    <TTGlyph name="numbersign" xMin="56" yMin="82" xMax="522" yMax="577">
      <contour>
        <pt x="114" y="229" on="1"/>
        <pt x="56" y="229" on="1"/>
        <pt x="56" y="299" on="1"/>
        <pt x="138" y="299" on="1"/>
        <pt x="163" y="373" on="1"/>
        <pt x="73" y="373" on="1"/>
        <pt x="73" y="443" on="1"/>
        <pt x="187" y="443" on="1"/>
        <pt x="232" y="572" on="1"/>
        <pt x="302" y="549" on="1"/>
        <pt x="265" y="443" on="1"/>
        <pt x="386" y="443" on="1"/>
        <pt x="432" y="577" on="1"/>
        <pt x="502" y="554" on="1"/>
        <pt x="463" y="443" on="1"/>
        <pt x="522" y="443" on="1"/>
        <pt x="522" y="373" on="1"/>
        <pt x="439" y="373" on="1"/>
        <pt x="414" y="299" on="1"/>
        <pt x="483" y="299" on="1"/>
        <pt x="483" y="229" on="1"/>
        <pt x="390" y="229" on="1"/>
        <pt x="341" y="87" on="1"/>
        <pt x="273" y="114" on="1"/>
        <pt x="312" y="229" on="1"/>
        <pt x="191" y="229" on="1"/>
        <pt x="141" y="82" on="1"/>
        <pt x="73" y="109" on="1"/>
      </contour>
      <contour>
        <pt x="336" y="299" on="1"/>
        <pt x="362" y="373" on="1"/>
        <pt x="241" y="373" on="1"/>
        <pt x="215" y="299" on="1"/>
      </contour>
    </TTGlyph>
    <TTGlyph name="o" xMin="44" yMin="-13" xMax="530" yMax="513">
      <contour>
        <pt x="129" y="249" on="1"/>
        <pt x="129" y="152" on="0"/>
        <pt x="216" y="57" on="0"/>
        <pt x="290" y="57" on="1"/>
        <pt x="363" y="57" on="0"/>
        <pt x="445" y="151" on="0"/>
        <pt x="445" y="245" on="1"/>
        <pt x="445" y="345" on="0"/>
        <pt x="358" y="443" on="0"/>
        <pt x="283" y="443" on="1"/>
        <pt x="208" y="443" on="0"/>
        <pt x="129" y="346" on="0"/>
      </contour>
      <contour>
        <pt x="44" y="250" on="1"/>
        <pt x="44" y="326" on="0"/>
        <pt x="92" y="427" on="0"/>
        <pt x="166" y="488" on="0"/>
        <pt x="251" y="513" on="0"/>
        <pt x="289" y="513" on="1"/>
        <pt x="325" y="513" on="0"/>
        <pt x="410" y="490" on="0"/>
        <pt x="482" y="431" on="0"/>
        <pt x="530" y="332" on="0"/>
        <pt x="530" y="256" on="1"/>
        <pt x="530" y="177" on="0"/>
        <pt x="481" y="73" on="0"/>
        <pt x="407" y="12" on="0"/>
        <pt x="321" y="-13" on="0"/>
        <pt x="284" y="-13" on="1"/>
        <pt x="246" y="-13" on="0"/>
        <pt x="162" y="11" on="0"/>
        <pt x="91" y="70" on="0"/>
        <pt x="44" y="172" on="0"/>
      </contour>
    </TTGlyph>
    <TTGlyph name="oacute" xMin="44" yMin="-13" xMax="530" yMax="771">
      <component glyphName="o" x="0" y="0" flags="0x204"/>
      <component glyphName="acute" x="81" y="0" flags="0x4"/>
    </TTGlyph>
    <TTGlyph name="ocircumflex" xMin="44" yMin="-13" xMax="530" yMax="770">
      <component glyphName="o" x="0" y="0" flags="0x204"/>
      <component glyphName="circumflex" x="35" y="0" flags="0x4"/>
    </TTGlyph>
    <TTGlyph name="odieresis" xMin="44" yMin="-13" xMax="530" yMax="701">
      <component glyphName="o" x="0" y="0" flags="0x204"/>
      <component glyphName="dieresis" x="52" y="0" flags="0x4"/>
    </TTGlyph>
    <TTGlyph name="oe" xMin="44" yMin="-13" xMax="861" yMax="513">
      <contour>
        <pt x="836" y="14" on="1"/>
        <pt x="753" y="-13" on="0"/>
        <pt x="673" y="-13" on="1"/>
        <pt x="610" y="-13" on="0"/>
        <pt x="510" y="33" on="0"/>
        <pt x="480" y="83" on="1"/>
        <pt x="461" y="56" on="0"/>
        <pt x="412" y="19" on="0"/>
        <pt x="360" y="-4" on="0"/>
        <pt x="307" y="-13" on="0"/>
        <pt x="283" y="-13" on="1"/>
        <pt x="246" y="-13" on="0"/>
        <pt x="162" y="9" on="0"/>
        <pt x="91" y="68" on="0"/>
        <pt x="44" y="171" on="0"/>
        <pt x="44" y="252" on="1"/>
        <pt x="44" y="324" on="0"/>
        <pt x="89" y="423" on="0"/>
        <pt x="159" y="485" on="0"/>
        <pt x="243" y="513" on="0"/>
        <pt x="283" y="513" on="1"/>
        <pt x="307" y="513" on="0"/>
        <pt x="360" y="505" on="0"/>
        <pt x="413" y="484" on="0"/>
        <pt x="462" y="448" on="0"/>
        <pt x="482" y="419" on="1"/>
        <pt x="540" y="513" on="0"/>
        <pt x="675" y="513" on="1"/>
        <pt x="724" y="513" on="0"/>
        <pt x="794" y="475" on="0"/>
        <pt x="839" y="410" on="0"/>
        <pt x="861" y="323" on="0"/>
        <pt x="861" y="275" on="1"/>
        <pt x="846" y="231" on="1"/>
        <pt x="523" y="231" on="1"/>
        <pt x="523" y="209" on="1"/>
        <pt x="526" y="180" on="0"/>
        <pt x="545" y="126" on="0"/>
        <pt x="584" y="83" on="0"/>
        <pt x="645" y="57" on="0"/>
        <pt x="688" y="57" on="1"/>
        <pt x="760" y="57" on="0"/>
        <pt x="821" y="79" on="1"/>
      </contour>
      <contour>
        <pt x="445" y="252" on="1"/>
        <pt x="445" y="349" on="0"/>
        <pt x="357" y="443" on="0"/>
        <pt x="283" y="443" on="1"/>
        <pt x="205" y="443" on="0"/>
        <pt x="129" y="345" on="0"/>
        <pt x="129" y="252" on="1"/>
        <pt x="129" y="156" on="0"/>
        <pt x="209" y="57" on="0"/>
        <pt x="283" y="57" on="1"/>
        <pt x="360" y="57" on="0"/>
        <pt x="445" y="148" on="0"/>
      </contour>
      <contour>
        <pt x="778" y="295" on="1"/>
        <pt x="778" y="302" on="0"/>
        <pt x="772" y="350" on="0"/>
        <pt x="750" y="402" on="0"/>
        <pt x="705" y="443" on="0"/>
        <pt x="666" y="443" on="1"/>
        <pt x="624" y="443" on="0"/>
        <pt x="570" y="408" on="0"/>
        <pt x="538" y="360" on="0"/>
        <pt x="526" y="310" on="0"/>
        <pt x="526" y="295" on="1"/>
      </contour>
    </TTGlyph>
    <TTGlyph name="ogonek" xMin="27" yMin="-177" xMax="213" yMax="0">
      <contour>
        <pt x="165" y="0" on="1"/>
        <pt x="143" y="-11" on="0"/>
        <pt x="115" y="-49" on="0"/>
        <pt x="109" y="-87" on="0"/>
        <pt x="130" y="-115" on="0"/>
        <pt x="154" y="-115" on="1"/>
        <pt x="176" y="-115" on="0"/>
        <pt x="198" y="-109" on="1"/>
        <pt x="213" y="-166" on="1"/>
        <pt x="174" y="-177" on="0"/>
        <pt x="147" y="-176" on="1"/>
        <pt x="105" y="-176" on="0"/>
        <pt x="48" y="-140" on="0"/>
        <pt x="27" y="-84" on="0"/>
        <pt x="48" y="-25" on="0"/>
        <pt x="85" y="0" on="1"/>
      </contour>
    </TTGlyph>
    <TTGlyph name="ograve" xMin="44" yMin="-13" xMax="530" yMax="771">
      <component glyphName="o" x="0" y="0" flags="0x204"/>
      <component glyphName="grave" x="55" y="0" flags="0x4"/>
    </TTGlyph>
    <TTGlyph name="one" xMin="21" yMin="0" xMax="248" yMax="503">
      <contour>
        <pt x="168" y="411" on="1"/>
        <pt x="37" y="386" on="1"/>
        <pt x="21" y="454" on="1"/>
        <pt x="199" y="503" on="1"/>
        <pt x="248" y="503" on="1"/>
        <pt x="248" y="0" on="1"/>
        <pt x="168" y="0" on="1"/>
      </contour>
    </TTGlyph>
    <TTGlyph name="onehalf" xMin="34" yMin="-75" xMax="766" yMax="757">
      <component glyphName="onesuperior" x="11" y="0" flags="0x4"/>
      <component glyphName="fraction" x="209" y="0" flags="0x4"/>
      <component glyphName="twosuperior" x="461" y="-314" flags="0x4"/>
    </TTGlyph>
    <TTGlyph name="onequarter" xMin="34" yMin="-75" xMax="787" yMax="757">
      <component glyphName="onesuperior" x="11" y="0" flags="0x4"/>
      <component glyphName="fraction" x="219" y="0" flags="0x4"/>
      <component glyphName="fourinferior" x="459" y="0" flags="0x4"/>
    </TTGlyph>
    <TTGlyph name="onesuperior" xMin="23" yMin="315" xMax="202" yMax="682">
      <contour>
        <pt x="135" y="614" on="1"/>
        <pt x="35" y="592" on="1"/>
        <pt x="23" y="638" on="1"/>
        <pt x="163" y="682" on="1"/>
        <pt x="202" y="682" on="1"/>
        <pt x="202" y="315" on="1"/>
        <pt x="135" y="315" on="1"/>
      </contour>
    </TTGlyph>
    <TTGlyph name="ordfeminine" xMin="39" yMin="376" xMax="323" yMax="730">
      <contour>
        <pt x="252" y="535" on="1"/>
        <pt x="210" y="533" on="0"/>
        <pt x="160" y="524" on="1"/>
        <pt x="138" y="519" on="0"/>
        <pt x="107" y="494" on="0"/>
        <pt x="107" y="470" on="1"/>
        <pt x="107" y="447" on="0"/>
        <pt x="131" y="427" on="0"/>
        <pt x="154" y="427" on="1"/>
        <pt x="184" y="427" on="0"/>
        <pt x="229" y="449" on="0"/>
        <pt x="252" y="468" on="1"/>
      </contour>
      <contour>
        <pt x="251" y="416" on="1"/>
        <pt x="217" y="392" on="0"/>
        <pt x="171" y="376" on="0"/>
        <pt x="147" y="376" on="1"/>
        <pt x="125" y="376" on="0"/>
        <pt x="85" y="387" on="0"/>
        <pt x="56" y="409" on="0"/>
        <pt x="39" y="445" on="0"/>
        <pt x="39" y="470" on="1"/>
        <pt x="39" y="496" on="0"/>
        <pt x="68" y="535" on="0"/>
        <pt x="113" y="561" on="0"/>
        <pt x="180" y="578" on="0"/>
        <pt x="252" y="582" on="1"/>
        <pt x="252" y="605" on="0"/>
        <pt x="252" y="639" on="0"/>
        <pt x="243" y="661" on="0"/>
        <pt x="219" y="672" on="0"/>
        <pt x="195" y="672" on="1"/>
        <pt x="164" y="672" on="0"/>
        <pt x="110" y="664" on="0"/>
        <pt x="84" y="658" on="1"/>
        <pt x="73" y="715" on="1"/>
        <pt x="106" y="722" on="0"/>
        <pt x="180" y="730" on="0"/>
        <pt x="206" y="730" on="1"/>
        <pt x="240" y="730" on="0"/>
        <pt x="284" y="710" on="0"/>
        <pt x="309" y="675" on="0"/>
        <pt x="319" y="631" on="0"/>
        <pt x="319" y="607" on="1"/>
        <pt x="319" y="445" on="1"/>
        <pt x="319" y="430" on="0"/>
        <pt x="323" y="384" on="1"/>
        <pt x="258" y="379" on="1"/>
      </contour>
    </TTGlyph>
    <TTGlyph name="ordmasculine" xMin="44" yMin="374" xMax="383" yMax="730">
      <contour>
        <pt x="112" y="552" on="1"/>
        <pt x="112" y="493" on="0"/>
        <pt x="166" y="432" on="0"/>
        <pt x="216" y="432" on="1"/>
        <pt x="266" y="432" on="0"/>
        <pt x="316" y="493" on="0"/>
        <pt x="316" y="549" on="1"/>
        <pt x="316" y="609" on="0"/>
        <pt x="262" y="673" on="0"/>
        <pt x="211" y="673" on="1"/>
        <pt x="160" y="673" on="0"/>
        <pt x="112" y="610" on="0"/>
      </contour>
      <contour>
        <pt x="44" y="552" on="1"/>
        <pt x="44" y="604" on="0"/>
        <pt x="79" y="672" on="0"/>
        <pt x="130" y="713" on="0"/>
        <pt x="190" y="730" on="0"/>
        <pt x="215" y="730" on="1"/>
        <pt x="240" y="730" on="0"/>
        <pt x="298" y="714" on="0"/>
        <pt x="349" y="675" on="0"/>
        <pt x="383" y="608" on="0"/>
        <pt x="383" y="556" on="1"/>
        <pt x="383" y="503" on="0"/>
        <pt x="348" y="433" on="0"/>
        <pt x="296" y="391" on="0"/>
        <pt x="237" y="374" on="0"/>
        <pt x="212" y="374" on="1"/>
        <pt x="186" y="374" on="0"/>
        <pt x="127" y="390" on="0"/>
        <pt x="77" y="430" on="0"/>
        <pt x="44" y="499" on="0"/>
      </contour>
    </TTGlyph>
    <TTGlyph name="oslash" xMin="44" yMin="-33" xMax="537" yMax="530">
      <contour>
        <pt x="101" y="65" on="1"/>
        <pt x="75" y="95" on="0"/>
        <pt x="44" y="186" on="0"/>
        <pt x="44" y="250" on="1"/>
        <pt x="44" y="326" on="0"/>
        <pt x="92" y="427" on="0"/>
        <pt x="166" y="488" on="0"/>
        <pt x="251" y="513" on="0"/>
        <pt x="289" y="513" on="1"/>
        <pt x="324" y="513" on="0"/>
        <pt x="403" y="493" on="0"/>
        <pt x="438" y="467" on="1"/>
        <pt x="491" y="530" on="1"/>
        <pt x="537" y="492" on="1"/>
        <pt x="481" y="425" on="1"/>
        <pt x="503" y="396" on="0"/>
        <pt x="530" y="313" on="0"/>
        <pt x="530" y="256" on="1"/>
        <pt x="530" y="177" on="0"/>
        <pt x="481" y="73" on="0"/>
        <pt x="407" y="12" on="0"/>
        <pt x="321" y="-13" on="0"/>
        <pt x="284" y="-13" on="1"/>
        <pt x="251" y="-13" on="0"/>
        <pt x="178" y="4" on="0"/>
        <pt x="146" y="25" on="1"/>
        <pt x="97" y="-33" on="1"/>
        <pt x="51" y="5" on="1"/>
      </contour>
      <contour>
        <pt x="129" y="249" on="1"/>
        <pt x="129" y="175" on="0"/>
        <pt x="155" y="129" on="1"/>
        <pt x="388" y="407" on="1"/>
        <pt x="347" y="443" on="0"/>
        <pt x="283" y="443" on="1"/>
        <pt x="208" y="443" on="0"/>
        <pt x="129" y="346" on="0"/>
      </contour>
      <contour>
        <pt x="445" y="245" on="1"/>
        <pt x="445" y="279" on="0"/>
        <pt x="434" y="334" on="0"/>
        <pt x="424" y="357" on="1"/>
        <pt x="195" y="84" on="1"/>
        <pt x="214" y="70" on="0"/>
        <pt x="262" y="57" on="0"/>
        <pt x="290" y="57" on="1"/>
        <pt x="363" y="57" on="0"/>
        <pt x="445" y="151" on="0"/>
      </contour>
    </TTGlyph>
    <TTGlyph name="otilde" xMin="44" yMin="-13" xMax="530" yMax="705">
      <component glyphName="o" x="0" y="0" flags="0x204"/>
      <component glyphName="tilde" x="13" y="0" flags="0x4"/>
    </TTGlyph>
    <TTGlyph name="p" xMin="68" yMin="-228" xMax="495" yMax="513">
      <contour>
        <pt x="73" y="387" on="1"/>
        <pt x="73" y="423" on="0"/>
        <pt x="68" y="494" on="1"/>
        <pt x="142" y="504" on="1"/>
        <pt x="151" y="450" on="1"/>
        <pt x="171" y="467" on="0"/>
        <pt x="214" y="494" on="0"/>
        <pt x="265" y="513" on="0"/>
        <pt x="294" y="513" on="1"/>
        <pt x="335" y="513" on="0"/>
        <pt x="408" y="485" on="0"/>
        <pt x="463" y="423" on="0"/>
        <pt x="495" y="324" on="0"/>
        <pt x="495" y="252" on="1"/>
        <pt x="495" y="179" on="0"/>
        <pt x="452" y="78" on="0"/>
        <pt x="383" y="15" on="0"/>
        <pt x="296" y="-13" on="0"/>
        <pt x="251" y="-13" on="1"/>
        <pt x="203" y="-12" on="0"/>
        <pt x="153" y="-1" on="1"/>
        <pt x="153" y="-218" on="1"/>
        <pt x="73" y="-228" on="1"/>
      </contour>
      <contour>
        <pt x="251" y="57" on="1"/>
        <pt x="293" y="57" on="0"/>
        <pt x="353" y="87" on="0"/>
        <pt x="392" y="140" on="0"/>
        <pt x="410" y="209" on="0"/>
        <pt x="410" y="248" on="1"/>
        <pt x="410" y="283" on="0"/>
        <pt x="397" y="353" on="0"/>
        <pt x="368" y="408" on="0"/>
        <pt x="320" y="443" on="0"/>
        <pt x="285" y="443" on="1"/>
        <pt x="259" y="443" on="0"/>
        <pt x="213" y="424" on="0"/>
        <pt x="172" y="397" on="0"/>
        <pt x="153" y="380" on="1"/>
        <pt x="153" y="73" on="1"/>
        <pt x="164" y="69" on="0"/>
        <pt x="191" y="62" on="0"/>
        <pt x="228" y="57" on="0"/>
      </contour>
    </TTGlyph>
    <TTGlyph name="paragraph" xMin="39" yMin="-237" xMax="439" yMax="682">
      <contour>
        <pt x="359" y="612" on="1"/>
        <pt x="287" y="612" on="1"/>
        <pt x="287" y="266" on="1"/>
        <pt x="239" y="266" on="1"/>
        <pt x="188" y="266" on="0"/>
        <pt x="113" y="301" on="0"/>
        <pt x="63" y="360" on="0"/>
        <pt x="39" y="435" on="0"/>
        <pt x="39" y="474" on="1"/>
        <pt x="39" y="529" on="0"/>
        <pt x="59" y="607" on="0"/>
        <pt x="104" y="658" on="0"/>
        <pt x="177" y="682" on="0"/>
        <pt x="230" y="682" on="1"/>
        <pt x="439" y="682" on="1"/>
        <pt x="439" y="-1" on="1"/>
        <pt x="439" y="-46" on="0"/>
        <pt x="426" y="-111" on="0"/>
        <pt x="398" y="-165" on="0"/>
        <pt x="352" y="-212" on="0"/>
        <pt x="319" y="-237" on="1"/>
        <pt x="263" y="-177" on="1"/>
        <pt x="293" y="-154" on="0"/>
        <pt x="331" y="-109" on="0"/>
        <pt x="352" y="-63" on="0"/>
        <pt x="359" y="-16" on="0"/>
        <pt x="359" y="10" on="1"/>
      </contour>
    </TTGlyph>
    <TTGlyph name="parenleft" xMin="39" yMin="-262" xMax="321" yMax="800">
      <contour>
        <pt x="273" y="-262" on="1"/>
        <pt x="228" y="-226" on="0"/>
        <pt x="144" y="-128" on="0"/>
        <pt x="79" y="1" on="0"/>
        <pt x="39" y="166" on="0"/>
        <pt x="39" y="271" on="1"/>
        <pt x="39" y="376" on="0"/>
        <pt x="79" y="540" on="0"/>
        <pt x="144" y="668" on="0"/>
        <pt x="228" y="764" on="0"/>
        <pt x="273" y="800" on="1"/>
        <pt x="321" y="754" on="1"/>
        <pt x="263" y="697" on="0"/>
        <pt x="190" y="574" on="0"/>
        <pt x="148" y="450" on="0"/>
        <pt x="133" y="328" on="0"/>
        <pt x="133" y="270" on="1"/>
        <pt x="133" y="212" on="0"/>
        <pt x="148" y="90" on="0"/>
        <pt x="190" y="-35" on="0"/>
        <pt x="263" y="-158" on="0"/>
        <pt x="321" y="-216" on="1"/>
      </contour>
    </TTGlyph>
    <TTGlyph name="parenright" xMin="14" yMin="-262" xMax="296" yMax="800">
      <contour>
        <pt x="14" y="-216" on="1"/>
        <pt x="72" y="-158" on="0"/>
        <pt x="145" y="-35" on="0"/>
        <pt x="187" y="90" on="0"/>
        <pt x="202" y="212" on="0"/>
        <pt x="202" y="270" on="1"/>
        <pt x="202" y="328" on="0"/>
        <pt x="187" y="450" on="0"/>
        <pt x="145" y="574" on="0"/>
        <pt x="72" y="697" on="0"/>
        <pt x="14" y="754" on="1"/>
        <pt x="62" y="800" on="1"/>
        <pt x="107" y="764" on="0"/>
        <pt x="191" y="668" on="0"/>
        <pt x="256" y="540" on="0"/>
        <pt x="296" y="376" on="0"/>
        <pt x="296" y="271" on="1"/>
        <pt x="296" y="166" on="0"/>
        <pt x="256" y="1" on="0"/>
        <pt x="191" y="-128" on="0"/>
        <pt x="107" y="-226" on="0"/>
        <pt x="62" y="-262" on="1"/>
      </contour>
    </TTGlyph>
    <TTGlyph name="percent" xMin="46" yMin="-45" xMax="721" yMax="743">
      <contour>
        <pt x="46" y="540" on="1"/>
        <pt x="46" y="560" on="0"/>
        <pt x="58" y="617" on="0"/>
        <pt x="92" y="668" on="0"/>
        <pt x="153" y="704" on="0"/>
        <pt x="201" y="704" on="1"/>
        <pt x="247" y="704" on="0"/>
        <pt x="305" y="667" on="0"/>
        <pt x="336" y="615" on="0"/>
        <pt x="347" y="559" on="0"/>
        <pt x="347" y="540" on="1"/>
        <pt x="347" y="521" on="0"/>
        <pt x="336" y="465" on="0"/>
        <pt x="305" y="413" on="0"/>
        <pt x="247" y="376" on="0"/>
        <pt x="201" y="376" on="1"/>
        <pt x="153" y="376" on="0"/>
        <pt x="92" y="412" on="0"/>
        <pt x="58" y="463" on="0"/>
        <pt x="46" y="520" on="0"/>
      </contour>
      <contour>
        <pt x="275" y="540" on="1"/>
        <pt x="275" y="557" on="0"/>
        <pt x="269" y="592" on="0"/>
        <pt x="253" y="621" on="0"/>
        <pt x="221" y="640" on="0"/>
        <pt x="196" y="640" on="1"/>
        <pt x="173" y="640" on="0"/>
        <pt x="143" y="621" on="0"/>
        <pt x="125" y="592" on="0"/>
        <pt x="117" y="557" on="0"/>
        <pt x="117" y="540" on="1"/>
        <pt x="117" y="523" on="0"/>
        <pt x="125" y="488" on="0"/>
        <pt x="143" y="459" on="0"/>
        <pt x="173" y="440" on="0"/>
        <pt x="196" y="440" on="1"/>
        <pt x="221" y="440" on="0"/>
        <pt x="253" y="459" on="0"/>
        <pt x="269" y="488" on="0"/>
        <pt x="275" y="523" on="0"/>
      </contour>
      <contour>
        <pt x="420" y="151" on="1"/>
        <pt x="420" y="171" on="0"/>
        <pt x="432" y="228" on="0"/>
        <pt x="466" y="279" on="0"/>
        <pt x="527" y="315" on="0"/>
        <pt x="575" y="315" on="1"/>
        <pt x="621" y="315" on="0"/>
        <pt x="679" y="278" on="0"/>
        <pt x="710" y="226" on="0"/>
        <pt x="721" y="170" on="0"/>
        <pt x="721" y="151" on="1"/>
        <pt x="721" y="132" on="0"/>
        <pt x="710" y="76" on="0"/>
        <pt x="679" y="24" on="0"/>
        <pt x="621" y="-13" on="0"/>
        <pt x="575" y="-13" on="1"/>
        <pt x="527" y="-13" on="0"/>
        <pt x="466" y="23" on="0"/>
        <pt x="432" y="74" on="0"/>
        <pt x="420" y="131" on="0"/>
      </contour>
      <contour>
        <pt x="649" y="151" on="1"/>
        <pt x="649" y="168" on="0"/>
        <pt x="643" y="203" on="0"/>
        <pt x="627" y="232" on="0"/>
        <pt x="595" y="251" on="0"/>
        <pt x="570" y="251" on="1"/>
        <pt x="547" y="251" on="0"/>
        <pt x="517" y="232" on="0"/>
        <pt x="499" y="203" on="0"/>
        <pt x="491" y="168" on="0"/>
        <pt x="491" y="151" on="1"/>
        <pt x="491" y="134" on="0"/>
        <pt x="499" y="99" on="0"/>
        <pt x="517" y="70" on="0"/>
        <pt x="547" y="51" on="0"/>
        <pt x="570" y="51" on="1"/>
        <pt x="595" y="51" on="0"/>
        <pt x="627" y="70" on="0"/>
        <pt x="643" y="99" on="0"/>
        <pt x="649" y="134" on="0"/>
      </contour>
      <contour>
        <pt x="602" y="743" on="1"/>
        <pt x="666" y="695" on="1"/>
        <pt x="147" y="-45" on="1"/>
        <pt x="83" y="2" on="1"/>
      </contour>
    </TTGlyph>
    <TTGlyph name="period" xMin="51" yMin="0" xMax="172" yMax="118">
      <contour>
        <pt x="51" y="59" on="1"/>
        <pt x="51" y="83" on="0"/>
        <pt x="85" y="118" on="0"/>
        <pt x="110" y="118" on="1"/>
        <pt x="136" y="118" on="0"/>
        <pt x="172" y="83" on="0"/>
        <pt x="172" y="59" on="1"/>
        <pt x="172" y="34" on="0"/>
        <pt x="136" y="0" on="0"/>
        <pt x="110" y="0" on="1"/>
        <pt x="85" y="0" on="0"/>
        <pt x="51" y="34" on="0"/>
      </contour>
    </TTGlyph>
    <TTGlyph name="periodcentered" xMin="53" yMin="334" xMax="171" yMax="452">
      <contour>
        <pt x="53" y="393" on="1"/>
        <pt x="53" y="418" on="0"/>
        <pt x="87" y="452" on="0"/>
        <pt x="112" y="452" on="1"/>
        <pt x="137" y="452" on="0"/>
        <pt x="171" y="418" on="0"/>
        <pt x="171" y="393" on="1"/>
        <pt x="171" y="368" on="0"/>
        <pt x="137" y="334" on="0"/>
        <pt x="112" y="334" on="1"/>
        <pt x="87" y="334" on="0"/>
        <pt x="53" y="368" on="0"/>
      </contour>
    </TTGlyph>
    <TTGlyph name="perthousand" xMin="49" yMin="-45" xMax="1062" yMax="743">
      <contour>
        <pt x="49" y="540" on="1"/>
        <pt x="49" y="560" on="0"/>
        <pt x="61" y="617" on="0"/>
        <pt x="95" y="668" on="0"/>
        <pt x="156" y="704" on="0"/>
        <pt x="204" y="704" on="1"/>
        <pt x="250" y="704" on="0"/>
        <pt x="308" y="667" on="0"/>
        <pt x="339" y="615" on="0"/>
        <pt x="350" y="559" on="0"/>
        <pt x="350" y="540" on="1"/>
        <pt x="350" y="521" on="0"/>
        <pt x="339" y="465" on="0"/>
        <pt x="308" y="413" on="0"/>
        <pt x="250" y="376" on="0"/>
        <pt x="204" y="376" on="1"/>
        <pt x="156" y="376" on="0"/>
        <pt x="95" y="412" on="0"/>
        <pt x="61" y="463" on="0"/>
        <pt x="49" y="520" on="0"/>
      </contour>
      <contour>
        <pt x="278" y="540" on="1"/>
        <pt x="278" y="557" on="0"/>
        <pt x="272" y="592" on="0"/>
        <pt x="256" y="621" on="0"/>
        <pt x="224" y="640" on="0"/>
        <pt x="199" y="640" on="1"/>
        <pt x="176" y="640" on="0"/>
        <pt x="146" y="621" on="0"/>
        <pt x="128" y="592" on="0"/>
        <pt x="120" y="557" on="0"/>
        <pt x="120" y="540" on="1"/>
        <pt x="120" y="523" on="0"/>
        <pt x="128" y="488" on="0"/>
        <pt x="146" y="459" on="0"/>
        <pt x="176" y="440" on="0"/>
        <pt x="199" y="440" on="1"/>
        <pt x="224" y="440" on="0"/>
        <pt x="256" y="459" on="0"/>
        <pt x="272" y="488" on="0"/>
        <pt x="278" y="523" on="0"/>
      </contour>
      <contour>
        <pt x="423" y="151" on="1"/>
        <pt x="423" y="171" on="0"/>
        <pt x="435" y="228" on="0"/>
        <pt x="469" y="279" on="0"/>
        <pt x="530" y="315" on="0"/>
        <pt x="578" y="315" on="1"/>
        <pt x="624" y="315" on="0"/>
        <pt x="682" y="278" on="0"/>
        <pt x="713" y="226" on="0"/>
        <pt x="724" y="170" on="0"/>
        <pt x="724" y="151" on="1"/>
        <pt x="724" y="132" on="0"/>
        <pt x="713" y="76" on="0"/>
        <pt x="682" y="24" on="0"/>
        <pt x="624" y="-13" on="0"/>
        <pt x="578" y="-13" on="1"/>
        <pt x="530" y="-13" on="0"/>
        <pt x="469" y="23" on="0"/>
        <pt x="435" y="74" on="0"/>
        <pt x="423" y="131" on="0"/>
      </contour>
      <contour>
        <pt x="652" y="151" on="1"/>
        <pt x="652" y="168" on="0"/>
        <pt x="646" y="203" on="0"/>
        <pt x="630" y="232" on="0"/>
        <pt x="598" y="251" on="0"/>
        <pt x="573" y="251" on="1"/>
        <pt x="550" y="251" on="0"/>
        <pt x="520" y="232" on="0"/>
        <pt x="502" y="203" on="0"/>
        <pt x="494" y="168" on="0"/>
        <pt x="494" y="151" on="1"/>
        <pt x="494" y="134" on="0"/>
        <pt x="502" y="99" on="0"/>
        <pt x="520" y="70" on="0"/>
        <pt x="550" y="51" on="0"/>
        <pt x="573" y="51" on="1"/>
        <pt x="598" y="51" on="0"/>
        <pt x="630" y="70" on="0"/>
        <pt x="646" y="99" on="0"/>
        <pt x="652" y="134" on="0"/>
      </contour>
      <contour>
        <pt x="761" y="151" on="1"/>
        <pt x="761" y="171" on="0"/>
        <pt x="773" y="228" on="0"/>
        <pt x="807" y="279" on="0"/>
        <pt x="868" y="315" on="0"/>
        <pt x="916" y="315" on="1"/>
        <pt x="962" y="315" on="0"/>
        <pt x="1020" y="278" on="0"/>
        <pt x="1051" y="226" on="0"/>
        <pt x="1062" y="170" on="0"/>
        <pt x="1062" y="151" on="1"/>
        <pt x="1062" y="132" on="0"/>
        <pt x="1051" y="76" on="0"/>
        <pt x="1020" y="24" on="0"/>
        <pt x="962" y="-13" on="0"/>
        <pt x="916" y="-13" on="1"/>
        <pt x="868" y="-13" on="0"/>
        <pt x="807" y="23" on="0"/>
        <pt x="773" y="74" on="0"/>
        <pt x="761" y="131" on="0"/>
      </contour>
      <contour>
        <pt x="990" y="151" on="1"/>
        <pt x="990" y="168" on="0"/>
        <pt x="984" y="203" on="0"/>
        <pt x="968" y="232" on="0"/>
        <pt x="936" y="251" on="0"/>
        <pt x="911" y="251" on="1"/>
        <pt x="888" y="251" on="0"/>
        <pt x="858" y="232" on="0"/>
        <pt x="840" y="203" on="0"/>
        <pt x="832" y="168" on="0"/>
        <pt x="832" y="151" on="1"/>
        <pt x="832" y="134" on="0"/>
        <pt x="840" y="99" on="0"/>
        <pt x="858" y="70" on="0"/>
        <pt x="888" y="51" on="0"/>
        <pt x="911" y="51" on="1"/>
        <pt x="936" y="51" on="0"/>
        <pt x="968" y="70" on="0"/>
        <pt x="984" y="99" on="0"/>
        <pt x="990" y="134" on="0"/>
      </contour>
      <contour>
        <pt x="605" y="743" on="1"/>
        <pt x="669" y="695" on="1"/>
        <pt x="150" y="-45" on="1"/>
        <pt x="86" y="2" on="1"/>
      </contour>
    </TTGlyph>
    <TTGlyph name="plus" xMin="44" yMin="40" xMax="484" yMax="474">
      <contour>
        <pt x="44" y="294" on="1"/>
        <pt x="224" y="294" on="1"/>
        <pt x="224" y="474" on="1"/>
        <pt x="304" y="474" on="1"/>
        <pt x="304" y="294" on="1"/>
        <pt x="484" y="294" on="1"/>
        <pt x="484" y="220" on="1"/>
        <pt x="304" y="220" on="1"/>
        <pt x="304" y="40" on="1"/>
        <pt x="224" y="40" on="1"/>
        <pt x="224" y="220" on="1"/>
        <pt x="44" y="220" on="1"/>
      </contour>
    </TTGlyph>
    <TTGlyph name="plusminus" xMin="55" yMin="0" xMax="496" yMax="470">
      <contour>
        <pt x="56" y="74" on="1"/>
        <pt x="235" y="74" on="1"/>
        <pt x="235" y="220" on="1"/>
        <pt x="55" y="220" on="1"/>
        <pt x="55" y="294" on="1"/>
        <pt x="235" y="294" on="1"/>
        <pt x="235" y="470" on="1"/>
        <pt x="315" y="470" on="1"/>
        <pt x="315" y="294" on="1"/>
        <pt x="495" y="294" on="1"/>
        <pt x="495" y="220" on="1"/>
        <pt x="315" y="220" on="1"/>
        <pt x="315" y="74" on="1"/>
        <pt x="496" y="74" on="1"/>
        <pt x="496" y="0" on="1"/>
        <pt x="56" y="0" on="1"/>
      </contour>
    </TTGlyph>
    <TTGlyph name="q" xMin="44" yMin="-229" xMax="465" yMax="513">
      <contour>
        <pt x="386" y="40" on="1"/>
        <pt x="357" y="19" on="0"/>
        <pt x="278" y="-13" on="0"/>
        <pt x="245" y="-13" on="1"/>
        <pt x="204" y="-13" on="0"/>
        <pt x="131" y="15" on="0"/>
        <pt x="76" y="77" on="0"/>
        <pt x="44" y="176" on="0"/>
        <pt x="44" y="248" on="1"/>
        <pt x="44" y="316" on="0"/>
        <pt x="89" y="416" on="0"/>
        <pt x="160" y="481" on="0"/>
        <pt x="247" y="513" on="0"/>
        <pt x="288" y="513" on="1"/>
        <pt x="326" y="513" on="0"/>
        <pt x="374" y="504" on="0"/>
        <pt x="410" y="494" on="0"/>
        <pt x="442" y="485" on="0"/>
        <pt x="465" y="485" on="1"/>
        <pt x="465" y="-219" on="1"/>
        <pt x="386" y="-229" on="1"/>
      </contour>
      <contour>
        <pt x="254" y="57" on="1"/>
        <pt x="276" y="57" on="0"/>
        <pt x="322" y="73" on="0"/>
        <pt x="364" y="95" on="0"/>
        <pt x="386" y="110" on="1"/>
        <pt x="386" y="429" on="1"/>
        <pt x="377" y="432" on="0"/>
        <pt x="364" y="436" on="1"/>
        <pt x="353" y="438" on="0"/>
        <pt x="315" y="443" on="0"/>
        <pt x="288" y="443" on="1"/>
        <pt x="246" y="443" on="0"/>
        <pt x="186" y="413" on="0"/>
        <pt x="147" y="360" on="0"/>
        <pt x="129" y="291" on="0"/>
        <pt x="129" y="252" on="1"/>
        <pt x="129" y="217" on="0"/>
        <pt x="144" y="147" on="0"/>
        <pt x="176" y="91" on="0"/>
        <pt x="222" y="57" on="0"/>
      </contour>
    </TTGlyph>
    <TTGlyph name="question" xMin="60" yMin="0" xMax="365" yMax="733">
      <contour>
        <pt x="84" y="308" on="1"/>
        <pt x="84" y="341" on="0"/>
        <pt x="114" y="380" on="0"/>
        <pt x="155" y="405" on="0"/>
        <pt x="204" y="428" on="0"/>
        <pt x="247" y="459" on="0"/>
        <pt x="275" y="506" on="0"/>
        <pt x="275" y="544" on="1"/>
        <pt x="275" y="595" on="0"/>
        <pt x="211" y="653" on="0"/>
        <pt x="157" y="653" on="1"/>
        <pt x="142" y="653" on="0"/>
        <pt x="115" y="649" on="0"/>
        <pt x="80" y="638" on="1"/>
        <pt x="60" y="715" on="1"/>
        <pt x="102" y="728" on="0"/>
        <pt x="140" y="733" on="0"/>
        <pt x="164" y="733" on="1"/>
        <pt x="207" y="733" on="0"/>
        <pt x="280" y="707" on="0"/>
        <pt x="334" y="661" on="0"/>
        <pt x="365" y="594" on="0"/>
        <pt x="365" y="554" on="1"/>
        <pt x="365" y="505" on="0"/>
        <pt x="335" y="441" on="0"/>
        <pt x="291" y="398" on="0"/>
        <pt x="238" y="369" on="0"/>
        <pt x="194" y="346" on="0"/>
        <pt x="164" y="321" on="0"/>
        <pt x="164" y="300" on="1"/>
        <pt x="164" y="182" on="1"/>
        <pt x="84" y="182" on="1"/>
      </contour>
      <contour>
        <pt x="64" y="59" on="1"/>
        <pt x="64" y="83" on="0"/>
        <pt x="98" y="118" on="0"/>
        <pt x="123" y="118" on="1"/>
        <pt x="149" y="118" on="0"/>
        <pt x="185" y="83" on="0"/>
        <pt x="185" y="59" on="1"/>
        <pt x="185" y="34" on="0"/>
        <pt x="149" y="0" on="0"/>
        <pt x="123" y="0" on="1"/>
        <pt x="98" y="0" on="0"/>
        <pt x="64" y="34" on="0"/>
      </contour>
    </TTGlyph>
    <TTGlyph name="questiondown" xMin="39" yMin="-244" xMax="344" yMax="493">
      <contour>
        <pt x="342" y="434" on="1"/>
        <pt x="342" y="410" on="0"/>
        <pt x="308" y="375" on="0"/>
        <pt x="283" y="375" on="1"/>
        <pt x="257" y="375" on="0"/>
        <pt x="221" y="410" on="0"/>
        <pt x="221" y="434" on="1"/>
        <pt x="221" y="459" on="0"/>
        <pt x="257" y="493" on="0"/>
        <pt x="283" y="493" on="1"/>
        <pt x="308" y="493" on="0"/>
        <pt x="342" y="459" on="0"/>
      </contour>
      <contour>
        <pt x="240" y="307" on="1"/>
        <pt x="320" y="307" on="1"/>
        <pt x="320" y="179" on="1"/>
        <pt x="320" y="144" on="0"/>
        <pt x="292" y="106" on="0"/>
        <pt x="249" y="81" on="0"/>
        <pt x="200" y="62" on="0"/>
        <pt x="157" y="33" on="0"/>
        <pt x="129" y="-14" on="0"/>
        <pt x="129" y="-55" on="1"/>
        <pt x="129" y="-106" on="0"/>
        <pt x="193" y="-164" on="0"/>
        <pt x="247" y="-164" on="1"/>
        <pt x="284" y="-164" on="0"/>
        <pt x="324" y="-149" on="1"/>
        <pt x="344" y="-226" on="1"/>
        <pt x="299" y="-244" on="0"/>
        <pt x="240" y="-244" on="1"/>
        <pt x="197" y="-244" on="0"/>
        <pt x="124" y="-218" on="0"/>
        <pt x="70" y="-172" on="0"/>
        <pt x="39" y="-106" on="0"/>
        <pt x="39" y="-65" on="1"/>
        <pt x="39" y="-18" on="0"/>
        <pt x="67" y="47" on="0"/>
        <pt x="115" y="95" on="0"/>
        <pt x="208" y="140" on="0"/>
        <pt x="240" y="163" on="0"/>
        <pt x="240" y="179" on="1"/>
      </contour>
    </TTGlyph>
    <TTGlyph name="quotedbl" xMin="60" yMin="513" xMax="280" yMax="758">
      <contour>
        <pt x="200" y="758" on="1"/>
        <pt x="280" y="758" on="1"/>
        <pt x="280" y="513" on="1"/>
        <pt x="200" y="513" on="1"/>
      </contour>
      <contour>
        <pt x="60" y="758" on="1"/>
        <pt x="140" y="758" on="1"/>
        <pt x="140" y="513" on="1"/>
        <pt x="60" y="513" on="1"/>
      </contour>
    </TTGlyph>
    <TTGlyph name="quotedblbase" xMin="24" yMin="-123" xMax="286" yMax="130">
      <contour>
        <pt x="62" y="121" on="1"/>
        <pt x="144" y="130" on="1"/>
        <pt x="144" y="53" on="1"/>
        <pt x="144" y="29" on="0"/>
        <pt x="126" y="-32" on="0"/>
        <pt x="115" y="-59" on="1"/>
        <pt x="102" y="-91" on="0"/>
        <pt x="86" y="-123" on="1"/>
        <pt x="24" y="-112" on="1"/>
        <pt x="34" y="-84" on="0"/>
        <pt x="43" y="-57" on="1"/>
        <pt x="50" y="-34" on="0"/>
        <pt x="62" y="20" on="0"/>
        <pt x="62" y="41" on="1"/>
      </contour>
      <contour>
        <pt x="204" y="121" on="1"/>
        <pt x="286" y="130" on="1"/>
        <pt x="286" y="53" on="1"/>
        <pt x="286" y="29" on="0"/>
        <pt x="268" y="-32" on="0"/>
        <pt x="257" y="-59" on="1"/>
        <pt x="244" y="-91" on="0"/>
        <pt x="228" y="-123" on="1"/>
        <pt x="166" y="-112" on="1"/>
        <pt x="176" y="-84" on="0"/>
        <pt x="185" y="-57" on="1"/>
        <pt x="192" y="-34" on="0"/>
        <pt x="204" y="20" on="0"/>
        <pt x="204" y="41" on="1"/>
      </contour>
    </TTGlyph>
    <TTGlyph name="quotedblleft" xMin="58" yMin="510" xMax="324" yMax="763">
      <contour>
        <pt x="204" y="587" on="1"/>
        <pt x="204" y="611" on="0"/>
        <pt x="222" y="672" on="0"/>
        <pt x="233" y="699" on="1"/>
        <pt x="245" y="731" on="0"/>
        <pt x="262" y="763" on="1"/>
        <pt x="324" y="752" on="1"/>
        <pt x="313" y="723" on="0"/>
        <pt x="305" y="696" on="1"/>
        <pt x="297" y="673" on="0"/>
        <pt x="286" y="620" on="0"/>
        <pt x="286" y="599" on="1"/>
        <pt x="286" y="519" on="1"/>
        <pt x="204" y="510" on="1"/>
      </contour>
      <contour>
        <pt x="58" y="587" on="1"/>
        <pt x="58" y="611" on="0"/>
        <pt x="76" y="672" on="0"/>
        <pt x="87" y="699" on="1"/>
        <pt x="99" y="731" on="0"/>
        <pt x="116" y="763" on="1"/>
        <pt x="178" y="752" on="1"/>
        <pt x="167" y="723" on="0"/>
        <pt x="159" y="696" on="1"/>
        <pt x="151" y="673" on="0"/>
        <pt x="140" y="620" on="0"/>
        <pt x="140" y="599" on="1"/>
        <pt x="140" y="519" on="1"/>
        <pt x="58" y="510" on="1"/>
      </contour>
    </TTGlyph>
    <TTGlyph name="quotedblright" xMin="44" yMin="514" xMax="317" yMax="767">
      <contour>
        <pt x="235" y="758" on="1"/>
        <pt x="317" y="767" on="1"/>
        <pt x="317" y="690" on="1"/>
        <pt x="317" y="666" on="0"/>
        <pt x="299" y="605" on="0"/>
        <pt x="288" y="578" on="1"/>
        <pt x="275" y="546" on="0"/>
        <pt x="259" y="514" on="1"/>
        <pt x="197" y="525" on="1"/>
        <pt x="207" y="553" on="0"/>
        <pt x="216" y="580" on="1"/>
        <pt x="223" y="603" on="0"/>
        <pt x="235" y="657" on="0"/>
        <pt x="235" y="678" on="1"/>
      </contour>
      <contour>
        <pt x="82" y="758" on="1"/>
        <pt x="164" y="767" on="1"/>
        <pt x="164" y="690" on="1"/>
        <pt x="164" y="666" on="0"/>
        <pt x="146" y="605" on="0"/>
        <pt x="135" y="578" on="1"/>
        <pt x="122" y="546" on="0"/>
        <pt x="106" y="514" on="1"/>
        <pt x="44" y="525" on="1"/>
        <pt x="54" y="553" on="0"/>
        <pt x="63" y="580" on="1"/>
        <pt x="70" y="603" on="0"/>
        <pt x="82" y="657" on="0"/>
        <pt x="82" y="678" on="1"/>
      </contour>
    </TTGlyph>
    <TTGlyph name="quoteleft" xMin="58" yMin="518" xMax="178" yMax="771">
      <contour>
        <pt x="58" y="595" on="1"/>
        <pt x="58" y="619" on="0"/>
        <pt x="76" y="680" on="0"/>
        <pt x="87" y="707" on="1"/>
        <pt x="99" y="739" on="0"/>
        <pt x="116" y="771" on="1"/>
        <pt x="178" y="760" on="1"/>
        <pt x="167" y="731" on="0"/>
        <pt x="159" y="704" on="1"/>
        <pt x="151" y="681" on="0"/>
        <pt x="140" y="628" on="0"/>
        <pt x="140" y="607" on="1"/>
        <pt x="140" y="527" on="1"/>
        <pt x="58" y="518" on="1"/>
      </contour>
    </TTGlyph>
    <TTGlyph name="quoteright" xMin="46" yMin="517" xMax="166" yMax="770">
      <contour>
        <pt x="84" y="761" on="1"/>
        <pt x="166" y="770" on="1"/>
        <pt x="166" y="693" on="1"/>
        <pt x="166" y="669" on="0"/>
        <pt x="148" y="608" on="0"/>
        <pt x="137" y="581" on="1"/>
        <pt x="124" y="549" on="0"/>
        <pt x="108" y="517" on="1"/>
        <pt x="46" y="528" on="1"/>
        <pt x="56" y="556" on="0"/>
        <pt x="65" y="583" on="1"/>
        <pt x="72" y="606" on="0"/>
        <pt x="84" y="660" on="0"/>
        <pt x="84" y="681" on="1"/>
      </contour>
    </TTGlyph>
    <TTGlyph name="quotesinglbase" xMin="24" yMin="-123" xMax="144" yMax="130">
      <contour>
        <pt x="62" y="121" on="1"/>
        <pt x="144" y="130" on="1"/>
        <pt x="144" y="53" on="1"/>
        <pt x="144" y="29" on="0"/>
        <pt x="126" y="-32" on="0"/>
        <pt x="115" y="-59" on="1"/>
        <pt x="102" y="-91" on="0"/>
        <pt x="86" y="-123" on="1"/>
        <pt x="24" y="-112" on="1"/>
        <pt x="34" y="-84" on="0"/>
        <pt x="43" y="-57" on="1"/>
        <pt x="50" y="-34" on="0"/>
        <pt x="62" y="20" on="0"/>
        <pt x="62" y="41" on="1"/>
      </contour>
    </TTGlyph>
    <TTGlyph name="quotesingle" xMin="60" yMin="513" xMax="140" yMax="758">
      <contour>
        <pt x="60" y="758" on="1"/>
        <pt x="140" y="758" on="1"/>
        <pt x="140" y="513" on="1"/>
        <pt x="60" y="513" on="1"/>
      </contour>
    </TTGlyph>
    <TTGlyph name="r" xMin="68" yMin="0" xMax="321" yMax="514">
      <contour>
        <pt x="73" y="422" on="1"/>
        <pt x="73" y="445" on="0"/>
        <pt x="68" y="494" on="1"/>
        <pt x="142" y="504" on="1"/>
        <pt x="150" y="431" on="1"/>
        <pt x="151" y="431" on="1"/>
        <pt x="169" y="454" on="0"/>
        <pt x="203" y="488" on="0"/>
        <pt x="240" y="513" on="0"/>
        <pt x="257" y="513" on="1"/>
        <pt x="280" y="514" on="0"/>
        <pt x="321" y="508" on="1"/>
        <pt x="303" y="431" on="1"/>
        <pt x="270" y="437" on="0"/>
        <pt x="257" y="436" on="1"/>
        <pt x="240" y="436" on="0"/>
        <pt x="202" y="404" on="0"/>
        <pt x="188" y="386" on="1"/>
        <pt x="170" y="364" on="0"/>
        <pt x="153" y="336" on="1"/>
        <pt x="153" y="0" on="1"/>
        <pt x="73" y="0" on="1"/>
      </contour>
    </TTGlyph>
    <TTGlyph name="registered" xMin="50" yMin="1" xMax="731" yMax="682">
      <contour>
        <pt x="50" y="341" on="1"/>
        <pt x="50" y="411" on="0"/>
        <pt x="103" y="536" on="0"/>
        <pt x="196" y="628" on="0"/>
        <pt x="319" y="682" on="0"/>
        <pt x="390" y="682" on="1"/>
        <pt x="460" y="682" on="0"/>
        <pt x="585" y="628" on="0"/>
        <pt x="677" y="536" on="0"/>
        <pt x="731" y="411" on="0"/>
        <pt x="731" y="341" on="1"/>
        <pt x="731" y="270" on="0"/>
        <pt x="677" y="147" on="0"/>
        <pt x="585" y="54" on="0"/>
        <pt x="460" y="1" on="0"/>
        <pt x="390" y="1" on="1"/>
        <pt x="319" y="1" on="0"/>
        <pt x="196" y="54" on="0"/>
        <pt x="103" y="147" on="0"/>
        <pt x="50" y="270" on="0"/>
      </contour>
      <contour>
        <pt x="107" y="341" on="1"/>
        <pt x="107" y="283" on="0"/>
        <pt x="152" y="180" on="0"/>
        <pt x="229" y="103" on="0"/>
        <pt x="332" y="58" on="0"/>
        <pt x="390" y="58" on="1"/>
        <pt x="449" y="58" on="0"/>
        <pt x="552" y="103" on="0"/>
        <pt x="629" y="180" on="0"/>
        <pt x="673" y="283" on="0"/>
        <pt x="673" y="341" on="1"/>
        <pt x="673" y="400" on="0"/>
        <pt x="629" y="503" on="0"/>
        <pt x="552" y="580" on="0"/>
        <pt x="449" y="624" on="0"/>
        <pt x="390" y="624" on="1"/>
        <pt x="332" y="624" on="0"/>
        <pt x="229" y="580" on="0"/>
        <pt x="152" y="503" on="0"/>
        <pt x="107" y="400" on="0"/>
      </contour>
      <contour>
        <pt x="277" y="543" on="1"/>
        <pt x="371" y="543" on="1"/>
        <pt x="434" y="543" on="0"/>
        <pt x="509" y="490" on="0"/>
        <pt x="509" y="434" on="1"/>
        <pt x="509" y="399" on="0"/>
        <pt x="486" y="356" on="0"/>
        <pt x="454" y="329" on="0"/>
        <pt x="433" y="324" on="1"/>
        <pt x="431" y="320" on="1"/>
        <pt x="433" y="319" on="0"/>
        <pt x="435" y="317" on="1"/>
        <pt x="437" y="315" on="0"/>
        <pt x="441" y="309" on="0"/>
        <pt x="445" y="305" on="1"/>
        <pt x="555" y="159" on="1"/>
        <pt x="478" y="159" on="1"/>
        <pt x="366" y="312" on="1"/>
        <pt x="341" y="312" on="1"/>
        <pt x="341" y="159" on="1"/>
        <pt x="277" y="159" on="1"/>
      </contour>
      <contour>
        <pt x="442" y="426" on="1"/>
        <pt x="442" y="459" on="0"/>
        <pt x="407" y="482" on="0"/>
        <pt x="371" y="482" on="1"/>
        <pt x="341" y="482" on="1"/>
        <pt x="341" y="373" on="1"/>
        <pt x="379" y="373" on="1"/>
        <pt x="413" y="373" on="0"/>
        <pt x="441" y="401" on="0"/>
      </contour>
    </TTGlyph>
    <TTGlyph name="ring" xMin="100" yMin="567" xMax="317" yMax="784">
      <contour>
        <pt x="100" y="675" on="1"/>
        <pt x="100" y="698" on="0"/>
        <pt x="116" y="738" on="0"/>
        <pt x="145" y="767" on="0"/>
        <pt x="183" y="784" on="0"/>
        <pt x="206" y="784" on="1"/>
        <pt x="253" y="784" on="0"/>
        <pt x="317" y="722" on="0"/>
        <pt x="317" y="675" on="1"/>
        <pt x="317" y="652" on="0"/>
        <pt x="300" y="613" on="0"/>
        <pt x="270" y="584" on="0"/>
        <pt x="229" y="567" on="0"/>
        <pt x="206" y="567" on="1"/>
        <pt x="183" y="567" on="0"/>
        <pt x="145" y="584" on="0"/>
        <pt x="116" y="613" on="0"/>
        <pt x="100" y="652" on="0"/>
      </contour>
      <contour>
        <pt x="151" y="675" on="1"/>
        <pt x="151" y="651" on="0"/>
        <pt x="184" y="618" on="0"/>
        <pt x="208" y="618" on="1"/>
        <pt x="232" y="618" on="0"/>
        <pt x="266" y="651" on="0"/>
        <pt x="266" y="675" on="1"/>
        <pt x="266" y="699" on="0"/>
        <pt x="232" y="733" on="0"/>
        <pt x="208" y="733" on="1"/>
        <pt x="184" y="733" on="0"/>
        <pt x="151" y="699" on="0"/>
      </contour>
    </TTGlyph>
    <TTGlyph name="s" xMin="41" yMin="-13" xMax="381" yMax="513">
      <contour>
        <pt x="344" y="421" on="1"/>
        <pt x="302" y="434" on="0"/>
        <pt x="237" y="443" on="0"/>
        <pt x="210" y="443" on="1"/>
        <pt x="175" y="443" on="0"/>
        <pt x="128" y="409" on="0"/>
        <pt x="128" y="382" on="1"/>
        <pt x="129" y="358" on="0"/>
        <pt x="169" y="324" on="0"/>
        <pt x="222" y="297" on="0"/>
        <pt x="287" y="265" on="0"/>
        <pt x="344" y="225" on="0"/>
        <pt x="380" y="169" on="0"/>
        <pt x="381" y="130" on="1"/>
        <pt x="380" y="88" on="0"/>
        <pt x="345" y="33" on="0"/>
        <pt x="290" y="0" on="0"/>
        <pt x="226" y="-13" on="0"/>
        <pt x="198" y="-13" on="1"/>
        <pt x="162" y="-13" on="0"/>
        <pt x="85" y="-5" on="0"/>
        <pt x="41" y="8" on="1"/>
        <pt x="56" y="80" on="1"/>
        <pt x="101" y="68" on="0"/>
        <pt x="175" y="57" on="0"/>
        <pt x="199" y="57" on="1"/>
        <pt x="217" y="57" on="0"/>
        <pt x="252" y="65" on="0"/>
        <pt x="280" y="80" on="0"/>
        <pt x="297" y="104" on="0"/>
        <pt x="297" y="119" on="1"/>
        <pt x="296" y="147" on="0"/>
        <pt x="260" y="186" on="0"/>
        <pt x="203" y="217" on="0"/>
        <pt x="138" y="248" on="0"/>
        <pt x="81" y="289" on="0"/>
        <pt x="43" y="346" on="0"/>
        <pt x="43" y="388" on="1"/>
        <pt x="43" y="418" on="0"/>
        <pt x="74" y="465" on="0"/>
        <pt x="123" y="496" on="0"/>
        <pt x="182" y="513" on="0"/>
        <pt x="210" y="513" on="1"/>
        <pt x="239" y="513" on="0"/>
        <pt x="311" y="504" on="0"/>
        <pt x="358" y="492" on="1"/>
      </contour>
    </TTGlyph>
    <TTGlyph name="scaron" xMin="41" yMin="-13" xMax="381" yMax="770">
      <component glyphName="s" x="0" y="0" flags="0x204"/>
      <component glyphName="caron" x="-48" y="7" flags="0x4"/>
    </TTGlyph>
    <TTGlyph name="section" xMin="52" yMin="-243" xMax="497" yMax="770">
      <contour>
        <pt x="440" y="675" on="1"/>
        <pt x="383" y="685" on="0"/>
        <pt x="312" y="691" on="0"/>
        <pt x="280" y="691" on="1"/>
        <pt x="206" y="690" on="0"/>
        <pt x="142" y="645" on="0"/>
        <pt x="142" y="598" on="1"/>
        <pt x="142" y="563" on="0"/>
        <pt x="195" y="512" on="0"/>
        <pt x="273" y="472" on="0"/>
        <pt x="366" y="431" on="0"/>
        <pt x="444" y="381" on="0"/>
        <pt x="497" y="311" on="0"/>
        <pt x="497" y="261" on="1"/>
        <pt x="497" y="231" on="0"/>
        <pt x="480" y="181" on="0"/>
        <pt x="453" y="140" on="0"/>
        <pt x="418" y="107" on="0"/>
        <pt x="399" y="94" on="1"/>
        <pt x="443" y="67" on="0"/>
        <pt x="497" y="-4" on="0"/>
        <pt x="497" y="-58" on="1"/>
        <pt x="497" y="-117" on="0"/>
        <pt x="441" y="-190" on="0"/>
        <pt x="359" y="-230" on="0"/>
        <pt x="268" y="-243" on="0"/>
        <pt x="233" y="-243" on="1"/>
        <pt x="193" y="-243" on="0"/>
        <pt x="98" y="-229" on="0"/>
        <pt x="52" y="-211" on="1"/>
        <pt x="72" y="-130" on="1"/>
        <pt x="122" y="-149" on="0"/>
        <pt x="201" y="-163" on="0"/>
        <pt x="233" y="-163" on="1"/>
        <pt x="272" y="-163" on="0"/>
        <pt x="337" y="-153" on="0"/>
        <pt x="385" y="-131" on="0"/>
        <pt x="412" y="-95" on="0"/>
        <pt x="412" y="-69" on="1"/>
        <pt x="412" y="-32" on="0"/>
        <pt x="359" y="19" on="0"/>
        <pt x="281" y="59" on="0"/>
        <pt x="189" y="100" on="0"/>
        <pt x="110" y="151" on="0"/>
        <pt x="57" y="224" on="0"/>
        <pt x="57" y="279" on="1"/>
        <pt x="57" y="304" on="0"/>
        <pt x="74" y="349" on="0"/>
        <pt x="102" y="388" on="0"/>
        <pt x="138" y="422" on="0"/>
        <pt x="158" y="436" on="1"/>
        <pt x="115" y="464" on="0"/>
        <pt x="57" y="540" on="0"/>
        <pt x="57" y="598" on="1"/>
        <pt x="57" y="630" on="0"/>
        <pt x="85" y="692" on="0"/>
        <pt x="141" y="741" on="0"/>
        <pt x="224" y="770" on="0"/>
        <pt x="280" y="770" on="1"/>
        <pt x="316" y="770" on="0"/>
        <pt x="401" y="762" on="0"/>
        <pt x="454" y="750" on="1"/>
      </contour>
      <contour>
        <pt x="411" y="250" on="1"/>
        <pt x="411" y="275" on="0"/>
        <pt x="377" y="318" on="0"/>
        <pt x="324" y="354" on="0"/>
        <pt x="261" y="384" on="0"/>
        <pt x="231" y="397" on="1"/>
        <pt x="189" y="371" on="0"/>
        <pt x="142" y="311" on="0"/>
        <pt x="142" y="279" on="1"/>
        <pt x="142" y="254" on="0"/>
        <pt x="177" y="212" on="0"/>
        <pt x="230" y="176" on="0"/>
        <pt x="295" y="144" on="0"/>
        <pt x="325" y="131" on="1"/>
        <pt x="365" y="156" on="0"/>
        <pt x="411" y="219" on="0"/>
      </contour>
    </TTGlyph>
    <TTGlyph name="semicolon" xMin="48" yMin="-139" xMax="195" yMax="454">
      <contour>
        <pt x="74" y="395" on="1"/>
        <pt x="74" y="419" on="0"/>
        <pt x="108" y="454" on="0"/>
        <pt x="133" y="454" on="1"/>
        <pt x="159" y="454" on="0"/>
        <pt x="195" y="419" on="0"/>
        <pt x="195" y="395" on="1"/>
        <pt x="195" y="370" on="0"/>
        <pt x="159" y="336" on="0"/>
        <pt x="133" y="336" on="1"/>
        <pt x="108" y="336" on="0"/>
        <pt x="74" y="370" on="0"/>
      </contour>
      <contour>
        <pt x="82" y="119" on="1"/>
        <pt x="167" y="119" on="1"/>
        <pt x="111" y="-139" on="1"/>
        <pt x="48" y="-127" on="1"/>
      </contour>
    </TTGlyph>
    <TTGlyph name="seven" xMin="30" yMin="-207" xMax="431" yMax="503">
      <contour>
        <pt x="40" y="503" on="1"/>
        <pt x="431" y="503" on="1"/>
        <pt x="431" y="465" on="1"/>
        <pt x="271" y="81" on="1"/>
        <pt x="253" y="38" on="0"/>
        <pt x="214" y="-38" on="0"/>
        <pt x="170" y="-108" on="0"/>
        <pt x="119" y="-174" on="0"/>
        <pt x="89" y="-207" on="1"/>
        <pt x="30" y="-154" on="1"/>
        <pt x="63" y="-116" on="0"/>
        <pt x="114" y="-47" on="0"/>
        <pt x="155" y="21" on="0"/>
        <pt x="189" y="90" on="0"/>
        <pt x="204" y="127" on="1"/>
        <pt x="331" y="433" on="1"/>
        <pt x="40" y="433" on="1"/>
      </contour>
    </TTGlyph>
    <TTGlyph name="six" xMin="51" yMin="-13" xMax="481" yMax="691">
      <contour>
        <pt x="459" y="620" on="1"/>
        <pt x="325" y="578" on="0"/>
        <pt x="177" y="461" on="0"/>
        <pt x="150" y="387" on="1"/>
        <pt x="185" y="390" on="1"/>
        <pt x="201" y="392" on="0"/>
        <pt x="241" y="394" on="0"/>
        <pt x="264" y="394" on="1"/>
        <pt x="303" y="394" on="0"/>
        <pt x="381" y="373" on="0"/>
        <pt x="442" y="326" on="0"/>
        <pt x="481" y="250" on="0"/>
        <pt x="481" y="194" on="1"/>
        <pt x="481" y="146" on="0"/>
        <pt x="446" y="70" on="0"/>
        <pt x="386" y="16" on="0"/>
        <pt x="305" y="-13" on="0"/>
        <pt x="260" y="-13" on="1"/>
        <pt x="160" y="-13" on="0"/>
        <pt x="51" y="118" on="0"/>
        <pt x="51" y="268" on="1"/>
        <pt x="51" y="338" on="0"/>
        <pt x="88" y="450" on="0"/>
        <pt x="149" y="537" on="0"/>
        <pt x="228" y="602" on="0"/>
        <pt x="313" y="649" on="0"/>
        <pt x="398" y="681" on="0"/>
        <pt x="434" y="691" on="1"/>
      </contour>
      <contour>
        <pt x="266" y="57" on="1"/>
        <pt x="290" y="57" on="0"/>
        <pt x="337" y="71" on="0"/>
        <pt x="374" y="103" on="0"/>
        <pt x="396" y="154" on="0"/>
        <pt x="396" y="192" on="1"/>
        <pt x="396" y="257" on="0"/>
        <pt x="324" y="324" on="0"/>
        <pt x="252" y="324" on="1"/>
        <pt x="229" y="324" on="0"/>
        <pt x="188" y="322" on="0"/>
        <pt x="140" y="317" on="1"/>
        <pt x="135" y="271" on="0"/>
        <pt x="136" y="259" on="1"/>
        <pt x="139" y="154" on="0"/>
        <pt x="201" y="57" on="0"/>
      </contour>
    </TTGlyph>
    <TTGlyph name="slash" xMin="30" yMin="-209" xMax="480" yMax="850">
      <contour>
        <pt x="405" y="850" on="1"/>
        <pt x="480" y="822" on="1"/>
        <pt x="105" y="-209" on="1"/>
        <pt x="30" y="-181" on="1"/>
      </contour>
    </TTGlyph>
    <TTGlyph name="sterling" xMin="50" yMin="-13" xMax="507" yMax="691">
      <contour>
        <pt x="50" y="59" on="1"/>
        <pt x="138" y="74" on="1"/>
        <pt x="121" y="307" on="1"/>
        <pt x="62" y="301" on="1"/>
        <pt x="55" y="372" on="1"/>
        <pt x="116" y="380" on="1"/>
        <pt x="107" y="509" on="1"/>
        <pt x="104" y="549" on="0"/>
        <pt x="128" y="616" on="0"/>
        <pt x="182" y="664" on="0"/>
        <pt x="264" y="691" on="0"/>
        <pt x="320" y="691" on="1"/>
        <pt x="356" y="691" on="0"/>
        <pt x="420" y="683" on="0"/>
        <pt x="443" y="678" on="1"/>
        <pt x="470" y="672" on="0"/>
        <pt x="493" y="665" on="1"/>
        <pt x="472" y="597" on="1"/>
        <pt x="450" y="604" on="0"/>
        <pt x="425" y="609" on="1"/>
        <pt x="404" y="614" on="0"/>
        <pt x="349" y="621" on="0"/>
        <pt x="320" y="621" on="1"/>
        <pt x="291" y="621" on="0"/>
        <pt x="241" y="610" on="0"/>
        <pt x="207" y="582" on="0"/>
        <pt x="189" y="535" on="0"/>
        <pt x="192" y="498" on="1"/>
        <pt x="200" y="387" on="1"/>
        <pt x="438" y="387" on="1"/>
        <pt x="438" y="312" on="1"/>
        <pt x="205" y="312" on="1"/>
        <pt x="223" y="80" on="1"/>
        <pt x="507" y="80" on="1"/>
        <pt x="507" y="0" on="1"/>
        <pt x="192" y="0" on="1"/>
        <pt x="171" y="0" on="0"/>
        <pt x="121" y="-4" on="0"/>
        <pt x="60" y="-13" on="1"/>
      </contour>
    </TTGlyph>
    <TTGlyph name="t" xMin="17" yMin="-13" xMax="346" yMax="653">
      <contour>
        <pt x="189" y="653" on="1"/>
        <pt x="189" y="503" on="1"/>
        <pt x="334" y="503" on="1"/>
        <pt x="334" y="438" on="1"/>
        <pt x="189" y="438" on="1"/>
        <pt x="189" y="171" on="1"/>
        <pt x="189" y="138" on="0"/>
        <pt x="192" y="94" on="0"/>
        <pt x="202" y="68" on="0"/>
        <pt x="220" y="57" on="0"/>
        <pt x="234" y="57" on="1"/>
        <pt x="272" y="58" on="0"/>
        <pt x="322" y="85" on="1"/>
        <pt x="346" y="24" on="1"/>
        <pt x="313" y="2" on="0"/>
        <pt x="256" y="-13" on="0"/>
        <pt x="228" y="-13" on="1"/>
        <pt x="162" y="-13" on="0"/>
        <pt x="109" y="62" on="0"/>
        <pt x="109" y="149" on="1"/>
        <pt x="109" y="438" on="1"/>
        <pt x="17" y="438" on="1"/>
        <pt x="17" y="503" on="1"/>
        <pt x="109" y="503" on="1"/>
        <pt x="109" y="643" on="1"/>
      </contour>
    </TTGlyph>
    <TTGlyph name="thorn" xMin="72" yMin="-228" xMax="494" yMax="758">
      <contour>
        <pt x="152" y="-228" on="1"/>
        <pt x="72" y="-228" on="1"/>
        <pt x="72" y="749" on="1"/>
        <pt x="152" y="758" on="1"/>
        <pt x="152" y="460" on="1"/>
        <pt x="191" y="486" on="0"/>
        <pt x="268" y="513" on="0"/>
        <pt x="293" y="513" on="1"/>
        <pt x="334" y="513" on="0"/>
        <pt x="407" y="481" on="0"/>
        <pt x="462" y="417" on="0"/>
        <pt x="494" y="319" on="0"/>
        <pt x="494" y="252" on="1"/>
        <pt x="494" y="178" on="0"/>
        <pt x="453" y="77" on="0"/>
        <pt x="384" y="15" on="0"/>
        <pt x="296" y="-13" on="0"/>
        <pt x="250" y="-13" on="1"/>
        <pt x="198" y="-13" on="0"/>
        <pt x="152" y="-2" on="1"/>
      </contour>
      <contour>
        <pt x="284" y="443" on="1"/>
        <pt x="263" y="443" on="0"/>
        <pt x="199" y="419" on="0"/>
        <pt x="152" y="388" on="1"/>
        <pt x="152" y="74" on="1"/>
        <pt x="204" y="57" on="0"/>
        <pt x="250" y="57" on="1"/>
        <pt x="296" y="57" on="0"/>
        <pt x="358" y="83" on="0"/>
        <pt x="394" y="133" on="0"/>
        <pt x="409" y="204" on="0"/>
        <pt x="409" y="248" on="1"/>
        <pt x="409" y="283" on="0"/>
        <pt x="394" y="353" on="0"/>
        <pt x="362" y="408" on="0"/>
        <pt x="315" y="443" on="0"/>
      </contour>
    </TTGlyph>
    <TTGlyph name="three" xMin="20" yMin="-195" xMax="404" yMax="513">
      <contour>
        <pt x="45" y="-92" on="1"/>
        <pt x="64" y="-101" on="0"/>
        <pt x="99" y="-114" on="0"/>
        <pt x="132" y="-121" on="0"/>
        <pt x="167" y="-125" on="0"/>
        <pt x="187" y="-125" on="1"/>
        <pt x="213" y="-125" on="0"/>
        <pt x="261" y="-109" on="0"/>
        <pt x="297" y="-77" on="0"/>
        <pt x="319" y="-28" on="0"/>
        <pt x="319" y="5" on="1"/>
        <pt x="319" y="71" on="0"/>
        <pt x="212" y="143" on="0"/>
        <pt x="125" y="144" on="1"/>
        <pt x="125" y="214" on="1"/>
        <pt x="210" y="214" on="0"/>
        <pt x="311" y="286" on="0"/>
        <pt x="311" y="355" on="1"/>
        <pt x="311" y="374" on="0"/>
        <pt x="302" y="406" on="0"/>
        <pt x="279" y="430" on="0"/>
        <pt x="241" y="443" on="0"/>
        <pt x="212" y="443" on="1"/>
        <pt x="188" y="443" on="0"/>
        <pt x="145" y="437" on="0"/>
        <pt x="128" y="434" on="1"/>
        <pt x="109" y="430" on="0"/>
        <pt x="91" y="426" on="1"/>
        <pt x="71" y="491" on="1"/>
        <pt x="90" y="497" on="0"/>
        <pt x="114" y="502" on="1"/>
        <pt x="134" y="506" on="0"/>
        <pt x="190" y="513" on="0"/>
        <pt x="223" y="513" on="1"/>
        <pt x="301" y="513" on="0"/>
        <pt x="396" y="438" on="0"/>
        <pt x="396" y="356" on="1"/>
        <pt x="396" y="316" on="0"/>
        <pt x="370" y="257" on="0"/>
        <pt x="333" y="215" on="0"/>
        <pt x="290" y="190" on="0"/>
        <pt x="272" y="184" on="1"/>
        <pt x="272" y="181" on="1"/>
        <pt x="297" y="172" on="0"/>
        <pt x="345" y="142" on="0"/>
        <pt x="382" y="98" on="0"/>
        <pt x="404" y="41" on="0"/>
        <pt x="404" y="5" on="1"/>
        <pt x="404" y="-54" on="0"/>
        <pt x="361" y="-131" on="0"/>
        <pt x="297" y="-177" on="0"/>
        <pt x="220" y="-195" on="0"/>
        <pt x="187" y="-195" on="1"/>
        <pt x="149" y="-195" on="0"/>
        <pt x="88" y="-184" on="0"/>
        <pt x="66" y="-177" on="1"/>
        <pt x="40" y="-169" on="0"/>
        <pt x="20" y="-159" on="1"/>
      </contour>
    </TTGlyph>
    <TTGlyph name="threequarters" xMin="40" yMin="-75" xMax="823" yMax="757">
      <component glyphName="fraction" x="255" y="0" flags="0x4"/>
      <component glyphName="threesuperior" x="0" y="0" flags="0x4"/>
      <component glyphName="fourinferior" x="495" y="0" flags="0x4"/>
    </TTGlyph>
    <TTGlyph name="threesuperior" xMin="40" yMin="308" xMax="272" yMax="691">
      <contour>
        <pt x="62" y="378" on="1"/>
        <pt x="86" y="367" on="0"/>
        <pt x="119" y="363" on="0"/>
        <pt x="131" y="363" on="1"/>
        <pt x="202" y="363" on="0"/>
        <pt x="202" y="422" on="1"/>
        <pt x="202" y="453" on="0"/>
        <pt x="152" y="482" on="0"/>
        <pt x="97" y="482" on="1"/>
        <pt x="97" y="530" on="1"/>
        <pt x="150" y="530" on="0"/>
        <pt x="198" y="564" on="0"/>
        <pt x="198" y="591" on="1"/>
        <pt x="198" y="608" on="0"/>
        <pt x="176" y="631" on="0"/>
        <pt x="144" y="632" on="1"/>
        <pt x="131" y="632" on="0"/>
        <pt x="108" y="630" on="0"/>
        <pt x="86" y="624" on="1"/>
        <pt x="68" y="679" on="1"/>
        <pt x="95" y="687" on="0"/>
        <pt x="132" y="691" on="0"/>
        <pt x="150" y="691" on="1"/>
        <pt x="175" y="691" on="0"/>
        <pt x="218" y="681" on="0"/>
        <pt x="250" y="660" on="0"/>
        <pt x="268" y="628" on="0"/>
        <pt x="268" y="606" on="1"/>
        <pt x="268" y="584" on="0"/>
        <pt x="254" y="551" on="0"/>
        <pt x="234" y="527" on="0"/>
        <pt x="210" y="512" on="0"/>
        <pt x="201" y="509" on="1"/>
        <pt x="201" y="507" on="1"/>
        <pt x="230" y="497" on="0"/>
        <pt x="272" y="453" on="0"/>
        <pt x="272" y="416" on="1"/>
        <pt x="272" y="384" on="0"/>
        <pt x="244" y="342" on="0"/>
        <pt x="202" y="318" on="0"/>
        <pt x="153" y="308" on="0"/>
        <pt x="131" y="308" on="1"/>
        <pt x="80" y="308" on="0"/>
        <pt x="40" y="327" on="1"/>
      </contour>
    </TTGlyph>
    <TTGlyph name="tilde" xMin="100" yMin="600" xMax="454" yMax="705">
      <contour>
        <pt x="454" y="663" on="1"/>
        <pt x="427" y="629" on="0"/>
        <pt x="376" y="600" on="0"/>
        <pt x="351" y="600" on="1"/>
        <pt x="326" y="600" on="0"/>
        <pt x="287" y="612" on="0"/>
        <pt x="254" y="627" on="0"/>
        <pt x="227" y="640" on="0"/>
        <pt x="215" y="640" on="1"/>
        <pt x="195" y="640" on="0"/>
        <pt x="165" y="620" on="0"/>
        <pt x="152" y="603" on="1"/>
        <pt x="100" y="647" on="1"/>
        <pt x="126" y="682" on="0"/>
        <pt x="184" y="705" on="0"/>
        <pt x="211" y="705" on="1"/>
        <pt x="232" y="705" on="0"/>
        <pt x="268" y="692" on="0"/>
        <pt x="300" y="677" on="0"/>
        <pt x="327" y="665" on="0"/>
        <pt x="340" y="665" on="1"/>
        <pt x="363" y="665" on="0"/>
        <pt x="390" y="690" on="0"/>
        <pt x="400" y="704" on="1"/>
      </contour>
    </TTGlyph>
    <TTGlyph name="trademark" xMin="45" yMin="349" xMax="801" yMax="759">
      <contour>
        <pt x="157" y="709" on="1"/>
        <pt x="45" y="709" on="1"/>
        <pt x="45" y="759" on="1"/>
        <pt x="328" y="759" on="1"/>
        <pt x="328" y="709" on="1"/>
        <pt x="216" y="709" on="1"/>
        <pt x="216" y="349" on="1"/>
        <pt x="157" y="349" on="1"/>
      </contour>
      <contour>
        <pt x="394" y="759" on="1"/>
        <pt x="458" y="759" on="1"/>
        <pt x="586" y="422" on="1"/>
        <pt x="587" y="422" on="1"/>
        <pt x="716" y="759" on="1"/>
        <pt x="780" y="759" on="1"/>
        <pt x="801" y="349" on="1"/>
        <pt x="750" y="349" on="1"/>
        <pt x="733" y="614" on="1"/>
        <pt x="732" y="625" on="0"/>
        <pt x="733" y="641" on="0"/>
        <pt x="734" y="647" on="1"/>
        <pt x="735" y="654" on="0"/>
        <pt x="737" y="659" on="1"/>
        <pt x="736" y="659" on="1"/>
        <pt x="612" y="349" on="1"/>
        <pt x="561" y="349" on="1"/>
        <pt x="436" y="659" on="1"/>
        <pt x="435" y="659" on="1"/>
        <pt x="436" y="654" on="0"/>
        <pt x="437" y="647" on="1"/>
        <pt x="438" y="641" on="0"/>
        <pt x="439" y="625" on="0"/>
        <pt x="439" y="614" on="1"/>
        <pt x="423" y="349" on="1"/>
        <pt x="372" y="349" on="1"/>
      </contour>
    </TTGlyph>
    <TTGlyph name="two" xMin="43" yMin="0" xMax="438" yMax="513">
      <contour>
        <pt x="43" y="38" on="1"/>
        <pt x="125" y="103" on="0"/>
        <pt x="190" y="165" on="1"/>
        <pt x="218" y="191" on="0"/>
        <pt x="271" y="247" on="0"/>
        <pt x="313" y="301" on="0"/>
        <pt x="338" y="350" on="0"/>
        <pt x="338" y="370" on="1"/>
        <pt x="338" y="402" on="0"/>
        <pt x="297" y="443" on="0"/>
        <pt x="237" y="443" on="1"/>
        <pt x="206" y="443" on="0"/>
        <pt x="148" y="433" on="0"/>
        <pt x="125" y="428" on="1"/>
        <pt x="98" y="421" on="0"/>
        <pt x="73" y="413" on="1"/>
        <pt x="49" y="477" on="1"/>
        <pt x="75" y="487" on="0"/>
        <pt x="108" y="495" on="1"/>
        <pt x="135" y="502" on="0"/>
        <pt x="208" y="513" on="0"/>
        <pt x="249" y="513" on="1"/>
        <pt x="282" y="513" on="0"/>
        <pt x="345" y="500" on="0"/>
        <pt x="394" y="469" on="0"/>
        <pt x="423" y="417" on="0"/>
        <pt x="423" y="377" on="1"/>
        <pt x="423" y="354" on="0"/>
        <pt x="403" y="303" on="0"/>
        <pt x="372" y="252" on="0"/>
        <pt x="331" y="201" on="0"/>
        <pt x="310" y="178" on="1"/>
        <pt x="261" y="124" on="0"/>
        <pt x="198" y="71" on="1"/>
        <pt x="222" y="72" on="0"/>
        <pt x="248" y="73" on="1"/>
        <pt x="271" y="74" on="0"/>
        <pt x="330" y="75" on="0"/>
        <pt x="362" y="75" on="1"/>
        <pt x="438" y="75" on="1"/>
        <pt x="438" y="0" on="1"/>
        <pt x="43" y="0" on="1"/>
      </contour>
    </TTGlyph>
    <TTGlyph name="twosuperior" xMin="51" yMin="315" xMax="305" yMax="691">
      <contour>
        <pt x="51" y="356" on="1"/>
        <pt x="99" y="400" on="0"/>
        <pt x="137" y="442" on="1"/>
        <pt x="153" y="460" on="0"/>
        <pt x="184" y="499" on="0"/>
        <pt x="209" y="537" on="0"/>
        <pt x="224" y="572" on="0"/>
        <pt x="224" y="586" on="1"/>
        <pt x="224" y="612" on="0"/>
        <pt x="197" y="632" on="0"/>
        <pt x="162" y="632" on="1"/>
        <pt x="145" y="632" on="0"/>
        <pt x="113" y="627" on="0"/>
        <pt x="85" y="620" on="0"/>
        <pt x="72" y="616" on="1"/>
        <pt x="55" y="669" on="1"/>
        <pt x="69" y="675" on="0"/>
        <pt x="102" y="684" on="0"/>
        <pt x="146" y="691" on="0"/>
        <pt x="173" y="691" on="1"/>
        <pt x="197" y="691" on="0"/>
        <pt x="240" y="682" on="0"/>
        <pt x="274" y="659" on="0"/>
        <pt x="294" y="621" on="0"/>
        <pt x="294" y="592" on="1"/>
        <pt x="293" y="555" on="0"/>
        <pt x="244" y="477" on="0"/>
        <pt x="219" y="448" on="1"/>
        <pt x="186" y="409" on="0"/>
        <pt x="144" y="370" on="1"/>
        <pt x="153" y="371" on="0"/>
        <pt x="166" y="372" on="1"/>
        <pt x="177" y="373" on="0"/>
        <pt x="212" y="374" on="0"/>
        <pt x="236" y="374" on="1"/>
        <pt x="305" y="374" on="1"/>
        <pt x="305" y="315" on="1"/>
        <pt x="51" y="315" on="1"/>
      </contour>
    </TTGlyph>
</ttFont>
